<?xml version="1.0" encoding="UTF-8"?>
<svg xmlns="http://www.w3.org/2000/svg" xmlns:xlink="http://www.w3.org/1999/xlink" width="560pt" height="792pt" viewBox="0 0 560 792" version="1.1">
<g id="surface1">
<path style=" stroke:none;fill-rule:nonzero;fill:rgb(99.607843%,32.941176%,32.941176%);fill-opacity:1;" d="M 0 396 L 0 0 L 560 0 L 560 792 L 0 792 Z "/>
<path style=" stroke:none;fill-rule:nonzero;fill:rgb(49.411765%,12.156863%,49.411765%);fill-opacity:1;" d="M 0 35.378906 L 0 0 L 112.777344 0 C 174.804688 0 225.554688 0.210938 225.554688 0.472656 C 225.554688 1.167969 182.554688 23.792969 170.464844 29.457031 C 164.757812 32.132812 157.757812 35.703125 154.90625 37.394531 C 142.066406 45.007812 115.039062 59.328125 110.878906 60.71875 C 106.03125 62.34375 100.410156 63.308594 76.734375 66.574219 C 59.699219 68.921875 52.722656 69.382812 22.359375 70.171875 L 0 70.753906 Z "/>
<path style=" stroke:none;fill-rule:nonzero;fill:rgb(0%,0%,0%);fill-opacity:1;" d="M 0 68.273438 C 0 65.886719 0.457031 65.765625 11.867188 65.117188 C 18.390625 64.746094 29.507812 64.441406 36.570312 64.441406 C 43.632812 64.441406 53.605469 63.957031 58.734375 63.363281 C 80.066406 60.894531 99.570312 57.914062 105.648438 56.199219 C 111.796875 54.464844 135.9375 42.0625 147.128906 34.890625 C 151.691406 31.96875 171.742188 21.828125 172.957031 21.828125 C 173.449219 21.828125 193.160156 11.609375 198.007812 8.84375 C 200.070312 7.667969 200.925781 6.125 200.925781 3.589844 L 200.925781 0 L 213.242188 0 C 220.015625 0 225.554688 0.210938 225.554688 0.472656 C 225.554688 1.167969 182.554688 23.792969 170.464844 29.457031 C 164.757812 32.132812 157.757812 35.703125 154.90625 37.394531 C 142.066406 45.007812 115.039062 59.328125 110.878906 60.71875 C 106.03125 62.34375 100.410156 63.308594 76.734375 66.574219 C 59.699219 68.921875 52.722656 69.382812 22.359375 70.171875 L 0 70.753906 Z "/>
</g>
</svg>
