<?xml version="1.0" encoding="UTF-8"?>
<svg xmlns="http://www.w3.org/2000/svg" xmlns:xlink="http://www.w3.org/1999/xlink" width="560pt" height="792pt" viewBox="0 0 560 792" version="1.1">
<g id="surface1">
<path style=" stroke:none;fill-rule:nonzero;fill:rgb(99.607843%,99.607843%,99.607843%);fill-opacity:1;" d="M 0 396 L 0 0 L 560 0 L 560 792 L 0 792 Z "/>
<path style=" stroke:none;fill-rule:nonzero;fill:rgb(99.607843%,99.215686%,32.941176%);fill-opacity:1;" d="M 0.0507812 396 L -0.0859375 0 L 560 0 L 560 792 L 0.191406 792 Z "/>
<path style=" stroke:none;fill-rule:nonzero;fill:rgb(49.411765%,36.862745%,49.411765%);fill-opacity:1;" d="M 0.191406 396.261719 L -0.0859375 0 L 349.375 0 L 349.375 3.1875 C 349.375 4.945312 347.125 11.78125 344.375 18.382812 C 341.625 24.984375 338.902344 32.351562 338.324219 34.757812 C 335.191406 47.765625 334.113281 52.441406 332.421875 60.3125 C 330.863281 67.578125 328.480469 74.558594 319.339844 98.609375 C 318.90625 99.757812 318.269531 102.339844 317.929688 104.347656 C 317.585938 106.355469 316.933594 109.175781 316.476562 110.609375 C 316.015625 112.042969 314.878906 116.035156 313.941406 119.476562 C 310.765625 131.191406 303.5625 149.675781 301.542969 151.304688 C 300.265625 152.335938 294.570312 162.417969 290.636719 170.609375 C 283.980469 184.480469 276.507812 201.320312 276.507812 202.445312 C 276.507812 203.03125 276.109375 204.320312 275.625 205.320312 C 274.367188 207.902344 273.207031 210.96875 269.027344 222.78125 C 264.753906 234.855469 264.167969 236.042969 255.746094 249.664062 C 251.085938 257.199219 249.222656 261.285156 248.585938 265.367188 C 247.847656 270.105469 244.152344 280.125 242.546875 281.738281 C 242.261719 282.027344 241.492188 283.433594 240.835938 284.871094 C 240.179688 286.304688 238.207031 290.0625 236.453125 293.21875 C 232.050781 301.128906 229.164062 307.585938 227.824219 312.523438 C 224.039062 326.460938 222.765625 329.8125 218.382812 337.453125 C 215.710938 342.105469 211.976562 347.488281 210.089844 349.414062 C 208.199219 351.335938 206.1875 354.722656 205.613281 356.9375 C 204.644531 360.699219 199.957031 370.714844 194.652344 380.347656 C 189.898438 388.980469 182.671875 405.769531 182.671875 408.179688 C 182.671875 409.488281 176.65625 422.910156 175.738281 423.652344 C 175.382812 423.9375 174.019531 425.816406 172.707031 427.824219 C 171.398438 429.835938 168.511719 433.785156 166.292969 436.601562 C 161.25 443 159.714844 446.066406 159.714844 449.714844 C 159.714844 452.75 155.574219 461.554688 152.226562 465.632812 C 148.804688 469.804688 141.90625 485.277344 138.65625 496.078125 C 135.0625 508.007812 129.625 517.53125 121.421875 526.238281 C 118.328125 529.53125 115.792969 532.707031 115.792969 533.304688 C 115.792969 534.992188 110.835938 545.59375 106.804688 552.523438 C 102.679688 559.621094 98.1875 568.6875 91.304688 583.824219 C 88.695312 589.566406 83.5 599.054688 79.757812 604.917969 C 76.015625 610.777344 72.019531 617.824219 70.878906 620.570312 C 69.738281 623.316406 68.390625 626.351562 67.882812 627.3125 C 62.042969 638.347656 58.503906 646.289062 54.933594 656.347656 C 50.058594 670.09375 49.023438 672.855469 47.796875 675.378906 C 47.3125 676.375 46.917969 677.710938 46.917969 678.351562 C 46.917969 679.882812 41.078125 693.757812 39.925781 694.957031 C 39.652344 695.242188 38.824219 696.703125 38.085938 698.199219 C 37.351562 699.699219 34.964844 703.382812 32.785156 706.394531 C 30.609375 709.402344 27.351562 714.75 25.550781 718.28125 C 23.75 721.808594 21.164062 726.402344 19.800781 728.484375 C 17.457031 732.0625 14.507812 738.089844 8.632812 751.304688 C 2.167969 765.839844 1.5625 768.164062 1.007812 780.523438 C 0.710938 787.121094 0.34375 614.203125 0.191406 396.261719 Z "/>
<path style=" stroke:none;fill-rule:nonzero;fill:rgb(0%,0%,0%);fill-opacity:1;" d="M 0.460938 396.523438 L 0.453125 0.523438 L 0.726562 363.390625 L 1 726.261719 L 4.90625 726.261719 C 8.496094 726.261719 9.046875 725.859375 11.695312 721.304688 C 13.28125 718.578125 15.542969 714.175781 16.71875 711.523438 C 17.894531 708.867188 19.449219 706.050781 20.167969 705.261719 C 26.339844 698.496094 33.179688 685.367188 38.304688 670.433594 C 45.425781 649.6875 49.0625 640.710938 57.085938 624.078125 C 61.914062 614.066406 66.222656 605.609375 66.664062 605.285156 C 68.472656 603.953125 77.066406 588.679688 81.867188 578.269531 C 84.691406 572.144531 87.5 566.191406 88.109375 565.042969 C 88.71875 563.894531 90.445312 560.316406 91.953125 557.09375 C 93.457031 553.867188 96.195312 548.699219 98.035156 545.613281 C 99.875 542.527344 101.890625 538.824219 102.515625 537.390625 C 107.5625 525.789062 109.480469 522.410156 112.707031 519.421875 C 116.671875 515.753906 123.667969 506.183594 125.507812 501.914062 C 126.125 500.476562 127.597656 495.78125 128.777344 491.476562 C 131.476562 481.617188 136.589844 470.429688 143.417969 459.445312 C 146.34375 454.742188 148.734375 449.6875 148.734375 448.214844 C 148.734375 446.742188 149.132812 444.722656 149.621094 443.726562 C 150.109375 442.726562 151.308594 440.203125 152.285156 438.117188 C 153.261719 436.027344 156.003906 432.039062 158.382812 429.253906 C 160.761719 426.46875 162.710938 423.90625 162.710938 423.558594 C 162.710938 423.210938 163.609375 421.84375 164.707031 420.523438 C 165.804688 419.199219 166.703125 417.484375 166.703125 416.710938 C 166.703125 415.9375 167.042969 415.304688 167.457031 415.304688 C 168.382812 415.304688 169.765625 412.082031 173.539062 401.144531 C 175.136719 396.511719 176.902344 391.816406 177.460938 390.707031 C 178.019531 389.601562 179.578125 386.347656 180.925781 383.476562 C 182.273438 380.609375 184.625 375.914062 186.15625 373.042969 C 192.355469 361.425781 193.382812 359.246094 195.222656 353.738281 C 196.28125 350.582031 198.421875 346.589844 199.980469 344.871094 C 207.023438 337.097656 215.375 320.796875 217.023438 311.605469 C 218.011719 306.109375 222.179688 296.316406 227.964844 285.914062 C 234.808594 273.605469 237.574219 267.539062 237.589844 264.789062 C 237.617188 260.308594 240.757812 253.003906 246.449219 244.175781 C 252.765625 234.375 256.191406 227.261719 259.519531 217.042969 C 261.949219 209.582031 262.5625 207.902344 264.925781 202.277344 C 265.804688 200.183594 266.523438 198.070312 266.519531 197.582031 C 266.519531 197.09375 268.808594 191.765625 271.609375 185.738281 C 274.40625 179.714844 278.550781 170.792969 280.816406 165.914062 C 283.082031 161.035156 286.828125 154.183594 289.144531 150.683594 C 291.460938 147.1875 294.476562 141.789062 295.847656 138.683594 C 299.023438 131.496094 305.074219 112.523438 306.886719 104.074219 C 308.542969 96.347656 312.542969 84.410156 316.46875 75.460938 C 318.929688 69.859375 320.921875 62.839844 322.78125 53.21875 C 323.65625 48.710938 328.171875 30.949219 329.417969 27.128906 C 330.695312 23.203125 332.5625 18.609375 335.53125 12.066406 C 336.558594 9.804688 337.398438 6.164062 337.398438 3.976562 L 337.398438 0 L 349.375 0 L 349.375 3.1875 C 349.375 4.945312 347.125 11.78125 344.375 18.382812 C 341.625 24.984375 338.902344 32.351562 338.324219 34.757812 C 335.191406 47.765625 334.113281 52.441406 332.421875 60.3125 C 330.863281 67.578125 328.480469 74.558594 319.339844 98.609375 C 318.90625 99.757812 318.269531 102.339844 317.929688 104.347656 C 317.585938 106.355469 316.933594 109.175781 316.476562 110.609375 C 316.015625 112.042969 314.878906 116.035156 313.941406 119.476562 C 310.765625 131.191406 303.5625 149.675781 301.542969 151.304688 C 300.265625 152.335938 294.570312 162.417969 290.636719 170.609375 C 283.980469 184.480469 276.507812 201.320312 276.507812 202.445312 C 276.507812 203.03125 276.109375 204.320312 275.625 205.320312 C 274.367188 207.902344 273.207031 210.96875 269.027344 222.78125 C 264.753906 234.855469 264.167969 236.042969 255.746094 249.664062 C 251.085938 257.199219 249.222656 261.285156 248.585938 265.367188 C 247.847656 270.105469 244.152344 280.125 242.546875 281.738281 C 242.261719 282.027344 241.492188 283.433594 240.835938 284.871094 C 240.179688 286.304688 238.207031 290.0625 236.453125 293.21875 C 232.050781 301.128906 229.164062 307.585938 227.824219 312.523438 C 224.039062 326.460938 222.765625 329.8125 218.382812 337.453125 C 215.710938 342.105469 211.976562 347.488281 210.089844 349.414062 C 208.199219 351.335938 206.1875 354.722656 205.613281 356.9375 C 204.644531 360.699219 199.957031 370.714844 194.652344 380.347656 C 189.898438 388.980469 182.671875 405.769531 182.671875 408.179688 C 182.671875 409.488281 176.65625 422.910156 175.738281 423.652344 C 175.382812 423.9375 174.019531 425.816406 172.707031 427.824219 C 171.398438 429.835938 168.511719 433.785156 166.292969 436.601562 C 161.25 443 159.714844 446.066406 159.714844 449.714844 C 159.714844 452.75 155.574219 461.554688 152.226562 465.632812 C 148.804688 469.804688 141.90625 485.277344 138.65625 496.078125 C 135.0625 508.007812 129.625 517.53125 121.421875 526.238281 C 118.328125 529.53125 115.792969 532.707031 115.792969 533.304688 C 115.792969 534.992188 110.835938 545.59375 106.804688 552.523438 C 102.679688 559.621094 98.1875 568.6875 91.304688 583.824219 C 88.695312 589.566406 83.5 599.054688 79.757812 604.917969 C 76.015625 610.777344 72.019531 617.824219 70.878906 620.570312 C 69.738281 623.316406 68.390625 626.351562 67.882812 627.3125 C 62.042969 638.347656 58.503906 646.289062 54.933594 656.347656 C 50.058594 670.09375 49.023438 672.855469 47.796875 675.378906 C 47.3125 676.375 46.917969 677.710938 46.917969 678.351562 C 46.917969 679.882812 41.078125 693.757812 39.925781 694.957031 C 39.652344 695.242188 38.824219 696.703125 38.085938 698.199219 C 37.351562 699.699219 34.964844 703.382812 32.785156 706.394531 C 30.609375 709.402344 27.351562 714.75 25.550781 718.28125 C 23.75 721.808594 21.164062 726.402344 19.800781 728.484375 C 17.457031 732.0625 14.507812 738.089844 8.632812 751.304688 C 2.167969 765.839844 1.5625 768.164062 1.007812 780.523438 C 0.710938 787.121094 0.464844 614.320312 0.460938 396.523438 Z "/>
</g>
</svg>
