<?xml version="1.0" encoding="UTF-8"?>
<svg xmlns="http://www.w3.org/2000/svg" xmlns:xlink="http://www.w3.org/1999/xlink" width="560pt" height="792pt" viewBox="0 0 560 792" version="1.1">
<g id="surface1">
<path style=" stroke:none;fill-rule:nonzero;fill:rgb(99.607843%,77.647059%,99.607843%);fill-opacity:1;" d="M 0 396 L 0 0 L 560 0 L 560 792 L 0 792 Z "/>
<path style=" stroke:none;fill-rule:nonzero;fill:rgb(66.27451%,70.196078%,99.607843%);fill-opacity:1;" d="M 0 396 L 0 0 L 175.664062 0 L 175.664062 3.359375 C 175.664062 6.636719 175.8125 6.746094 181.785156 7.910156 C 185.152344 8.566406 194.859375 9.734375 203.351562 10.503906 C 224.859375 12.460938 235.695312 15.292969 256.234375 24.332031 C 261.023438 26.441406 269.167969 29.734375 274.332031 31.648438 C 297.019531 40.0625 323.539062 50.304688 335.894531 55.421875 C 341.335938 57.679688 348.054688 59.855469 356.121094 61.976562 C 365.230469 64.375 391.359375 74.285156 396.203125 77.179688 C 404.148438 81.925781 417.101562 88.34375 429.582031 93.71875 C 433.679688 95.484375 444.460938 100.332031 453.535156 104.492188 C 473.332031 113.5625 472.941406 113.398438 479.621094 115.460938 C 482.546875 116.363281 486.980469 117.960938 489.46875 119.007812 C 503.746094 125.027344 506.441406 126 515.816406 128.515625 C 525.164062 131.019531 535.0625 133.957031 543.296875 136.667969 C 547.28125 137.980469 552.671875 139.054688 555.273438 139.054688 L 560 139.054688 L 560 792 L 0 792 Z "/>
<path style=" stroke:none;fill-rule:nonzero;fill:rgb(32.941176%,94.901961%,99.607843%);fill-opacity:1;" d="M 0 396 L 0 0 L 104.335938 0 L 104.335938 7.054688 L 120.304688 7.054688 L 120.304688 0 L 175.664062 0 L 175.664062 3.359375 C 175.664062 6.636719 175.8125 6.746094 181.785156 7.910156 C 185.152344 8.566406 194.859375 9.734375 203.351562 10.503906 C 224.859375 12.460938 235.695312 15.292969 256.234375 24.332031 C 261.023438 26.441406 269.167969 29.734375 274.332031 31.648438 C 297.019531 40.0625 323.539062 50.304688 335.894531 55.421875 C 341.335938 57.679688 348.054688 59.855469 356.121094 61.976562 C 365.230469 64.375 391.359375 74.285156 396.203125 77.179688 C 404.148438 81.925781 417.101562 88.34375 429.582031 93.71875 C 433.679688 95.484375 444.460938 100.332031 453.535156 104.492188 C 473.332031 113.5625 472.941406 113.398438 479.621094 115.460938 C 482.546875 116.363281 486.980469 117.960938 489.46875 119.007812 C 503.746094 125.027344 506.441406 126 515.816406 128.515625 C 525.164062 131.019531 535.0625 133.957031 543.296875 136.667969 C 547.28125 137.980469 552.671875 139.054688 555.273438 139.054688 L 560 139.054688 L 560 792 L 0 792 Z "/>
<path style=" stroke:none;fill-rule:nonzero;fill:rgb(77.254902%,91.372549%,49.411765%);fill-opacity:1;" d="M 0 396 L 0 0 L 29.808594 0 L 29.808594 3.125 C 29.808594 5.074219 31.464844 8.667969 34.214844 12.695312 L 38.625 19.144531 L 55.359375 19.144531 L 55.359375 11.207031 C 55.359375 4.113281 55.105469 3.101562 52.964844 1.6875 C 50.761719 0.230469 52.710938 0.101562 77.453125 0.0546875 L 104.335938 0 L 104.335938 7.054688 L 120.304688 7.054688 L 120.304688 0 L 175.664062 0 L 175.664062 3.359375 C 175.664062 6.636719 175.8125 6.746094 181.785156 7.910156 C 185.152344 8.566406 194.859375 9.734375 203.351562 10.503906 C 224.859375 12.460938 235.695312 15.292969 256.234375 24.332031 C 261.023438 26.441406 269.167969 29.734375 274.332031 31.648438 C 297.019531 40.0625 323.539062 50.304688 335.894531 55.421875 C 341.335938 57.679688 348.054688 59.855469 356.121094 61.976562 C 365.230469 64.375 391.359375 74.285156 396.203125 77.179688 C 404.148438 81.925781 417.101562 88.34375 429.582031 93.71875 C 433.679688 95.484375 444.460938 100.332031 453.535156 104.492188 C 473.332031 113.5625 472.941406 113.398438 479.621094 115.460938 C 482.546875 116.363281 486.980469 117.960938 489.46875 119.007812 C 503.746094 125.027344 506.441406 126 515.816406 128.515625 C 525.164062 131.019531 535.0625 133.957031 543.296875 136.667969 C 547.28125 137.980469 552.671875 139.054688 555.273438 139.054688 L 560 139.054688 L 560 792 L 0 792 Z "/>
<path style=" stroke:none;fill-rule:nonzero;fill:rgb(88.235294%,85.098039%,32.941176%);fill-opacity:1;" d="M 0 396 L 0 0 L 29.808594 0 L 29.808594 3.125 C 29.808594 5.074219 31.464844 8.667969 34.214844 12.695312 L 38.625 19.144531 L 55.359375 19.144531 L 55.359375 11.207031 C 55.359375 4.113281 55.105469 3.101562 52.964844 1.6875 C 50.761719 0.230469 52.710938 0.101562 77.453125 0.0546875 L 104.335938 0 L 104.335938 7.054688 L 120.304688 7.054688 L 120.304688 0 L 175.664062 0 L 175.664062 3.359375 C 175.664062 6.636719 175.8125 6.746094 181.785156 7.910156 C 185.152344 8.566406 194.859375 9.734375 203.351562 10.503906 C 224.859375 12.460938 235.695312 15.292969 256.234375 24.332031 C 261.023438 26.441406 269.167969 29.734375 274.332031 31.648438 C 297.019531 40.0625 323.539062 50.304688 335.894531 55.421875 C 341.335938 57.679688 348.054688 59.855469 356.121094 61.976562 C 365.230469 64.375 391.359375 74.285156 396.203125 77.179688 C 404.148438 81.925781 417.101562 88.34375 429.582031 93.71875 C 433.679688 95.484375 444.460938 100.332031 453.535156 104.492188 C 473.332031 113.5625 472.941406 113.398438 479.621094 115.460938 C 482.546875 116.363281 486.980469 117.960938 489.46875 119.007812 C 503.746094 125.027344 506.441406 126 515.816406 128.515625 C 525.164062 131.019531 535.0625 133.957031 543.296875 136.667969 C 547.28125 137.980469 552.671875 139.054688 555.273438 139.054688 L 560 139.054688 L 560 792 L 0 792 Z M 136.273438 46.5 C 136.273438 46.03125 135.816406 44.328125 135.261719 42.722656 C 134.703125 41.117188 133.726562 37.875 133.089844 35.519531 L 131.933594 31.238281 L 116.046875 31.238281 L 116.046875 37.730469 C 116.046875 46.144531 117.621094 47.359375 128.527344 47.359375 C 132.789062 47.359375 136.273438 46.972656 136.273438 46.5 Z "/>
<path style=" stroke:none;fill-rule:nonzero;fill:rgb(54.901961%,38.431373%,32.941176%);fill-opacity:1;" d="M 0 396 L 0 0 L 29.808594 0 L 29.808594 3.125 C 29.808594 5.074219 31.464844 8.667969 34.214844 12.695312 L 38.625 19.144531 L 55.359375 19.144531 L 55.359375 11.207031 C 55.359375 4.113281 55.105469 3.101562 52.964844 1.6875 C 50.761719 0.230469 52.710938 0.101562 77.453125 0.0546875 L 104.335938 0 L 104.335938 7.054688 L 120.304688 7.054688 L 120.304688 3.527344 C 120.304688 0.167969 120.480469 0 124.03125 0 L 127.757812 0 L 127.773438 4.785156 C 127.785156 8.199219 129.148438 12.539062 132.511719 19.898438 C 137.457031 30.714844 143.078125 48.363281 144.308594 56.929688 C 144.878906 60.925781 145.664062 62.386719 148.09375 63.984375 C 149.777344 65.09375 155.242188 68.617188 160.234375 71.8125 C 165.230469 75.007812 170.183594 78.410156 171.246094 79.371094 C 183.546875 90.492188 191.789062 96.988281 202.863281 104.289062 C 207.070312 107.0625 212.128906 110.542969 214.113281 112.027344 C 225.726562 120.722656 254.71875 140.726562 259.238281 143.164062 C 268.707031 148.273438 270.550781 149.828125 277.816406 158.839844 C 281.601562 163.539062 291.191406 172.046875 303.207031 181.375 C 307.441406 184.664062 321.859375 192.984375 331.636719 197.78125 C 340.425781 202.097656 357.628906 213.835938 370.496094 224.296875 C 382.84375 234.339844 402.621094 248.886719 403.921875 248.886719 C 404.691406 248.886719 422.824219 259.984375 424.328125 261.375 C 424.988281 261.988281 428.960938 264.527344 433.15625 267.023438 C 440.027344 271.109375 452.035156 279.085938 470.039062 291.519531 C 473.550781 293.949219 478.34375 296.996094 480.683594 298.292969 C 486.589844 301.5625 514.5625 320.734375 521.671875 326.382812 C 524.894531 328.941406 530.882812 333.605469 534.980469 336.742188 C 539.078125 339.882812 544.328125 344.296875 546.640625 346.554688 C 550.277344 350.097656 551.472656 350.65625 555.425781 350.65625 L 560 350.65625 L 560 792 L 0 792 Z M 136.273438 46.5 C 136.273438 46.03125 135.816406 44.328125 135.261719 42.722656 C 134.703125 41.117188 133.726562 37.875 133.089844 35.519531 L 131.933594 31.238281 L 116.046875 31.238281 L 116.046875 37.730469 C 116.046875 46.144531 117.621094 47.359375 128.527344 47.359375 C 132.789062 47.359375 136.273438 46.972656 136.273438 46.5 Z M 554.066406 146.640625 C 548.273438 143.589844 531.582031 138.222656 511.714844 133.019531 C 507.117188 131.816406 499.8125 129.28125 495.480469 127.386719 C 491.144531 125.492188 482.453125 122.140625 476.15625 119.941406 C 469.863281 117.742188 456.089844 111.914062 445.550781 106.988281 C 435.011719 102.0625 423.273438 96.742188 419.46875 95.164062 C 415.660156 93.585938 410.761719 91.253906 408.578125 89.980469 C 406.390625 88.707031 404.371094 87.664062 404.085938 87.664062 C 403.796875 87.664062 399.507812 85.398438 394.550781 82.625 C 389.59375 79.855469 385.023438 77.585938 384.390625 77.585938 C 383.757812 77.585938 382.410156 77.171875 381.390625 76.664062 C 376.644531 74.289062 360.808594 68.503906 356.582031 67.597656 C 350.371094 66.265625 339.21875 62.773438 333.230469 60.285156 C 330.597656 59.191406 326.765625 57.617188 324.714844 56.789062 C 322.664062 55.960938 320.03125 54.878906 318.859375 54.386719 C 317.6875 53.894531 310.980469 51.378906 303.953125 48.800781 C 296.929688 46.222656 289.261719 43.296875 286.921875 42.304688 C 284.578125 41.3125 277.871094 38.699219 272.015625 36.496094 C 266.160156 34.292969 258.160156 31.089844 254.234375 29.378906 C 232.136719 19.738281 221.609375 17.03125 200.683594 15.609375 C 181.640625 14.3125 142.660156 4.421875 142.660156 0.882812 C 142.660156 0.398438 150.085938 0 159.164062 0 L 175.664062 0 L 175.664062 3.359375 C 175.664062 6.636719 175.8125 6.746094 181.785156 7.910156 C 185.152344 8.566406 194.859375 9.734375 203.351562 10.503906 C 224.859375 12.460938 235.695312 15.292969 256.234375 24.332031 C 261.023438 26.441406 269.167969 29.734375 274.332031 31.648438 C 297.019531 40.0625 323.539062 50.304688 335.894531 55.421875 C 341.335938 57.679688 348.054688 59.855469 356.121094 61.976562 C 365.230469 64.375 391.359375 74.285156 396.203125 77.179688 C 404.148438 81.925781 417.101562 88.34375 429.582031 93.71875 C 433.679688 95.484375 444.460938 100.332031 453.535156 104.492188 C 473.332031 113.5625 472.941406 113.398438 479.621094 115.460938 C 482.546875 116.363281 486.980469 117.960938 489.46875 119.007812 C 503.746094 125.027344 506.441406 126 515.816406 128.515625 C 525.164062 131.019531 535.0625 133.957031 543.296875 136.667969 C 547.28125 137.980469 552.671875 139.054688 555.273438 139.054688 L 560 139.054688 L 560 144.089844 C 560 146.863281 559.640625 149.082031 559.203125 149.027344 C 558.761719 148.96875 556.453125 147.894531 554.066406 146.640625 Z "/>
<path style=" stroke:none;fill-rule:nonzero;fill:rgb(43.921569%,25.490196%,49.411765%);fill-opacity:1;" d="M 0 396 L 0 0 L 29.808594 0 L 29.808594 3.125 C 29.808594 5.074219 31.464844 8.667969 34.214844 12.695312 L 38.625 19.144531 L 55.359375 19.144531 L 55.359375 11.207031 C 55.359375 4.113281 55.105469 3.101562 52.964844 1.6875 C 50.71875 0.203125 51.253906 0.101562 61.484375 0.0546875 L 72.394531 0 L 72.394531 4.488281 C 72.394531 8.425781 73 9.597656 77.34375 14.058594 L 82.292969 19.144531 L 97.945312 19.144531 L 97.945312 0 L 101.140625 0 C 104.082031 0 104.335938 0.28125 104.335938 3.527344 L 104.335938 7.054688 L 120.304688 7.054688 L 120.304688 3.527344 C 120.304688 0.167969 120.480469 0 124.03125 0 L 127.757812 0 L 127.773438 4.785156 C 127.785156 8.199219 129.148438 12.539062 132.511719 19.898438 C 137.457031 30.714844 143.078125 48.363281 144.308594 56.929688 C 144.878906 60.925781 145.664062 62.386719 148.09375 63.984375 C 149.777344 65.09375 155.242188 68.617188 160.234375 71.8125 C 165.230469 75.007812 170.183594 78.410156 171.246094 79.371094 C 183.546875 90.492188 191.789062 96.988281 202.863281 104.289062 C 207.070312 107.0625 212.128906 110.542969 214.113281 112.027344 C 225.726562 120.722656 254.71875 140.726562 259.238281 143.164062 C 268.707031 148.273438 270.550781 149.828125 277.816406 158.839844 C 281.601562 163.539062 291.191406 172.046875 303.207031 181.375 C 307.441406 184.664062 321.859375 192.984375 331.636719 197.78125 C 340.425781 202.097656 357.628906 213.835938 370.496094 224.296875 C 382.84375 234.339844 402.621094 248.886719 403.921875 248.886719 C 404.691406 248.886719 422.824219 259.984375 424.328125 261.375 C 424.988281 261.988281 428.960938 264.527344 433.15625 267.023438 C 440.027344 271.109375 452.035156 279.085938 470.039062 291.519531 C 473.550781 293.949219 478.34375 296.996094 480.683594 298.292969 C 486.589844 301.5625 514.5625 320.734375 521.671875 326.382812 C 524.894531 328.941406 530.882812 333.605469 534.980469 336.742188 C 539.078125 339.882812 544.328125 344.296875 546.640625 346.554688 C 550.277344 350.097656 551.472656 350.65625 555.425781 350.65625 L 560 350.65625 L 560 792 L 0 792 Z M 136.273438 46.5 C 136.273438 46.03125 135.816406 44.328125 135.261719 42.722656 C 134.703125 41.117188 133.726562 37.875 133.089844 35.519531 L 131.933594 31.238281 L 116.046875 31.238281 L 116.046875 37.730469 C 116.046875 46.144531 117.621094 47.359375 128.527344 47.359375 C 132.789062 47.359375 136.273438 46.972656 136.273438 46.5 Z M 554.066406 146.640625 C 548.273438 143.589844 531.582031 138.222656 511.714844 133.019531 C 507.117188 131.816406 499.8125 129.28125 495.480469 127.386719 C 491.144531 125.492188 482.453125 122.140625 476.15625 119.941406 C 469.863281 117.742188 456.089844 111.914062 445.550781 106.988281 C 435.011719 102.0625 423.273438 96.742188 419.46875 95.164062 C 415.660156 93.585938 410.761719 91.253906 408.578125 89.980469 C 406.390625 88.707031 404.371094 87.664062 404.085938 87.664062 C 403.796875 87.664062 399.507812 85.398438 394.550781 82.625 C 389.59375 79.855469 385.023438 77.585938 384.390625 77.585938 C 383.757812 77.585938 382.410156 77.171875 381.390625 76.664062 C 376.644531 74.289062 360.808594 68.503906 356.582031 67.597656 C 350.371094 66.265625 339.21875 62.773438 333.230469 60.285156 C 330.597656 59.191406 326.765625 57.617188 324.714844 56.789062 C 322.664062 55.960938 320.03125 54.878906 318.859375 54.386719 C 317.6875 53.894531 310.980469 51.378906 303.953125 48.800781 C 296.929688 46.222656 289.261719 43.296875 286.921875 42.304688 C 284.578125 41.3125 277.871094 38.699219 272.015625 36.496094 C 266.160156 34.292969 258.160156 31.089844 254.234375 29.378906 C 232.136719 19.738281 221.609375 17.03125 200.683594 15.609375 C 181.640625 14.3125 142.660156 4.421875 142.660156 0.882812 C 142.660156 0.398438 150.085938 0 159.164062 0 L 175.664062 0 L 175.664062 3.359375 C 175.664062 6.636719 175.8125 6.746094 181.785156 7.910156 C 185.152344 8.566406 194.859375 9.734375 203.351562 10.503906 C 224.859375 12.460938 235.695312 15.292969 256.234375 24.332031 C 261.023438 26.441406 269.167969 29.734375 274.332031 31.648438 C 297.019531 40.0625 323.539062 50.304688 335.894531 55.421875 C 341.335938 57.679688 348.054688 59.855469 356.121094 61.976562 C 365.230469 64.375 391.359375 74.285156 396.203125 77.179688 C 404.148438 81.925781 417.101562 88.34375 429.582031 93.71875 C 433.679688 95.484375 444.460938 100.332031 453.535156 104.492188 C 473.332031 113.5625 472.941406 113.398438 479.621094 115.460938 C 482.546875 116.363281 486.980469 117.960938 489.46875 119.007812 C 503.746094 125.027344 506.441406 126 515.816406 128.515625 C 525.164062 131.019531 535.0625 133.957031 543.296875 136.667969 C 547.28125 137.980469 552.671875 139.054688 555.273438 139.054688 L 560 139.054688 L 560 144.089844 C 560 146.863281 559.640625 149.082031 559.203125 149.027344 C 558.761719 148.96875 556.453125 147.894531 554.066406 146.640625 Z "/>
<path style=" stroke:none;fill-rule:nonzero;fill:rgb(10.588235%,46.666667%,49.411765%);fill-opacity:1;" d="M 0 396 L 0 0 L 29.808594 0 L 29.808594 3.125 C 29.808594 5.074219 31.464844 8.667969 34.214844 12.695312 L 38.625 19.144531 L 55.359375 19.144531 L 55.359375 11.207031 C 55.359375 4.113281 55.105469 3.101562 52.964844 1.6875 C 50.71875 0.203125 51.253906 0.101562 61.484375 0.0546875 L 72.394531 0 L 72.394531 4.488281 C 72.394531 8.425781 73 9.597656 77.34375 14.058594 L 82.292969 19.144531 L 97.945312 19.144531 L 97.945312 0 L 101.140625 0 C 104.082031 0 104.335938 0.28125 104.335938 3.527344 L 104.335938 7.054688 L 120.304688 7.054688 L 120.304688 3.527344 C 120.304688 0.167969 120.480469 0 124.03125 0 L 127.757812 0 L 127.773438 4.785156 C 127.785156 8.199219 129.148438 12.539062 132.511719 19.898438 C 137.457031 30.714844 143.078125 48.363281 144.308594 56.929688 C 144.878906 60.925781 145.664062 62.386719 148.09375 63.984375 C 149.777344 65.09375 155.242188 68.617188 160.234375 71.8125 C 165.230469 75.007812 170.183594 78.410156 171.246094 79.371094 C 183.546875 90.492188 191.789062 96.988281 202.863281 104.289062 C 207.070312 107.0625 212.128906 110.542969 214.113281 112.027344 C 225.726562 120.722656 254.71875 140.726562 259.238281 143.164062 C 268.707031 148.273438 270.550781 149.828125 277.816406 158.839844 C 281.601562 163.539062 291.191406 172.046875 303.207031 181.375 C 307.441406 184.664062 321.859375 192.984375 331.636719 197.78125 C 340.425781 202.097656 357.628906 213.835938 370.496094 224.296875 C 382.84375 234.339844 402.621094 248.886719 403.921875 248.886719 C 404.691406 248.886719 422.824219 259.984375 424.328125 261.375 C 424.988281 261.988281 428.960938 264.527344 433.15625 267.023438 C 440.027344 271.109375 452.035156 279.085938 470.039062 291.519531 C 473.550781 293.949219 478.34375 296.996094 480.683594 298.292969 C 486.589844 301.5625 514.5625 320.734375 521.671875 326.382812 C 524.894531 328.941406 530.882812 333.605469 534.980469 336.742188 C 539.078125 339.882812 544.328125 344.296875 546.640625 346.554688 C 550.277344 350.097656 551.472656 350.65625 555.425781 350.65625 L 560 350.65625 L 560 357.710938 C 560 361.589844 559.707031 364.761719 559.351562 364.761719 C 558.992188 364.761719 553.601562 360.097656 547.375 354.390625 C 541.144531 348.6875 532.214844 341.105469 527.527344 337.539062 C 522.84375 333.972656 518.53125 330.546875 517.945312 329.921875 C 516.28125 328.140625 482.476562 305.152344 475.359375 300.960938 C 471.847656 298.890625 463.703125 293.554688 457.261719 289.097656 C 450.820312 284.644531 435.492188 274.695312 423.195312 266.988281 C 385.125 243.128906 387.914062 245.046875 368.273438 229.238281 C 353.898438 217.664062 342.082031 209.464844 332.167969 204.175781 C 328.359375 202.148438 324.527344 200.03125 323.648438 199.476562 C 322.773438 198.921875 320.855469 197.90625 319.390625 197.222656 C 304.722656 190.359375 281.03125 171.351562 268.589844 156.464844 C 266.703125 154.207031 261.914062 150.585938 257.941406 148.417969 C 250.613281 144.414062 235.683594 134.527344 228.898438 129.1875 C 226.847656 127.574219 222.535156 124.527344 219.316406 122.414062 C 216.09375 120.304688 211.542969 117.128906 209.203125 115.363281 C 206.859375 113.59375 202 110.285156 198.402344 108.003906 C 194.804688 105.722656 191.210938 103.273438 190.417969 102.558594 C 189.625 101.84375 186.367188 99.21875 183.183594 96.726562 C 180 94.238281 174.96875 90.03125 172.003906 87.382812 C 169.039062 84.730469 162.734375 80.125 157.992188 77.144531 C 150.394531 72.375 148.554688 71.664062 142.554688 71.1875 C 138.808594 70.890625 133.707031 70.347656 131.214844 69.980469 L 126.691406 69.316406 L 126.691406 64.464844 C 126.691406 59.832031 126.414062 59.378906 120.625 54.492188 C 117.285156 51.675781 113.734375 49.375 112.726562 49.375 C 111.722656 49.375 110.738281 49.027344 110.546875 48.609375 C 110.351562 48.1875 105.878906 44.699219 100.609375 40.859375 C 95.339844 37.019531 88.390625 31.472656 85.171875 28.53125 L 79.316406 23.183594 L 70.796875 23.179688 L 62.28125 23.175781 L 57.757812 28.148438 C 53.320312 33.023438 53.230469 33.265625 53.230469 40.53125 C 53.230469 45.921875 53.804688 49.003906 55.335938 51.847656 C 56.496094 54 58 57.355469 58.679688 59.304688 C 59.359375 61.257812 62.855469 65.828125 66.449219 69.464844 C 75.875 79.003906 78.871094 83.277344 89.457031 102.273438 C 91.308594 105.601562 93.5 109.035156 94.320312 109.910156 C 95.144531 110.785156 95.816406 112.070312 95.816406 112.765625 C 95.816406 113.460938 103.882812 121.8125 113.738281 131.328125 C 139.386719 156.089844 140.042969 156.847656 148.15625 171.105469 C 153.941406 181.265625 163.15625 195.332031 166.109375 198.503906 C 167.398438 199.890625 169.699219 202.609375 171.21875 204.550781 C 173.8125 207.859375 183.402344 218.699219 187.710938 223.191406 C 190.554688 226.152344 200.191406 240.273438 204.90625 248.382812 C 209.148438 255.6875 225.707031 279.921875 228.082031 282.308594 C 235.550781 289.8125 250.433594 309.550781 255.433594 318.585938 C 258.59375 324.292969 260.828125 326.765625 276.664062 342.089844 C 283.535156 348.742188 290.574219 355.996094 292.296875 358.210938 C 294.023438 360.429688 295.820312 362.695312 296.289062 363.25 C 300.261719 367.953125 307.074219 377.277344 311.90625 384.625 C 321.167969 398.714844 328.671875 409.4375 330.796875 411.617188 C 331.875 412.726562 333.925781 415.21875 335.355469 417.160156 C 336.785156 419.101562 338.449219 421.238281 339.050781 421.910156 C 339.65625 422.585938 340.667969 423.730469 341.300781 424.457031 C 341.933594 425.183594 345.710938 430.980469 349.691406 437.339844 C 358.699219 451.726562 360.941406 454.511719 373.632812 467.039062 C 399.585938 492.65625 402.175781 495.523438 415.769531 513.703125 C 419.214844 518.3125 427.082031 526.699219 433.246094 532.34375 C 458.96875 555.894531 459.414062 556.4375 472.238281 579.894531 C 481.425781 596.699219 481.949219 597.457031 496.675781 615.160156 C 504.511719 624.582031 515.15625 638.183594 520.328125 645.390625 C 525.503906 652.59375 532.371094 662.117188 535.585938 666.550781 C 541.726562 675.007812 545.636719 682.101562 549.386719 691.59375 C 551.59375 697.179688 551.710938 697.28125 555.816406 697.28125 L 560 697.28125 L 560 792 L 0 792 Z M 136.273438 46.5 C 136.273438 46.03125 135.816406 44.328125 135.261719 42.722656 C 134.703125 41.117188 133.726562 37.875 133.089844 35.519531 L 131.933594 31.238281 L 116.046875 31.238281 L 116.046875 37.730469 C 116.046875 46.144531 117.621094 47.359375 128.527344 47.359375 C 132.789062 47.359375 136.273438 46.972656 136.273438 46.5 Z M 554.066406 146.640625 C 548.273438 143.589844 531.582031 138.222656 511.714844 133.019531 C 507.117188 131.816406 499.8125 129.28125 495.480469 127.386719 C 491.144531 125.492188 482.453125 122.140625 476.15625 119.941406 C 469.863281 117.742188 456.089844 111.914062 445.550781 106.988281 C 435.011719 102.0625 423.273438 96.742188 419.46875 95.164062 C 415.660156 93.585938 410.761719 91.253906 408.578125 89.980469 C 406.390625 88.707031 404.371094 87.664062 404.085938 87.664062 C 403.796875 87.664062 399.507812 85.398438 394.550781 82.625 C 389.59375 79.855469 385.023438 77.585938 384.390625 77.585938 C 383.757812 77.585938 382.410156 77.171875 381.390625 76.664062 C 376.644531 74.289062 360.808594 68.503906 356.582031 67.597656 C 350.371094 66.265625 339.21875 62.773438 333.230469 60.285156 C 330.597656 59.191406 326.765625 57.617188 324.714844 56.789062 C 322.664062 55.960938 320.03125 54.878906 318.859375 54.386719 C 317.6875 53.894531 310.980469 51.378906 303.953125 48.800781 C 296.929688 46.222656 289.261719 43.296875 286.921875 42.304688 C 284.578125 41.3125 277.871094 38.699219 272.015625 36.496094 C 266.160156 34.292969 258.160156 31.089844 254.234375 29.378906 C 232.136719 19.738281 221.609375 17.03125 200.683594 15.609375 C 181.640625 14.3125 142.660156 4.421875 142.660156 0.882812 C 142.660156 0.398438 150.085938 0 159.164062 0 L 175.664062 0 L 175.664062 3.359375 C 175.664062 6.636719 175.8125 6.746094 181.785156 7.910156 C 185.152344 8.566406 194.859375 9.734375 203.351562 10.503906 C 224.859375 12.460938 235.695312 15.292969 256.234375 24.332031 C 261.023438 26.441406 269.167969 29.734375 274.332031 31.648438 C 297.019531 40.0625 323.539062 50.304688 335.894531 55.421875 C 341.335938 57.679688 348.054688 59.855469 356.121094 61.976562 C 365.230469 64.375 391.359375 74.285156 396.203125 77.179688 C 404.148438 81.925781 417.101562 88.34375 429.582031 93.71875 C 433.679688 95.484375 444.460938 100.332031 453.535156 104.492188 C 473.332031 113.5625 472.941406 113.398438 479.621094 115.460938 C 482.546875 116.363281 486.980469 117.960938 489.46875 119.007812 C 503.746094 125.027344 506.441406 126 515.816406 128.515625 C 525.164062 131.019531 535.0625 133.957031 543.296875 136.667969 C 547.28125 137.980469 552.671875 139.054688 555.273438 139.054688 L 560 139.054688 L 560 144.089844 C 560 146.863281 559.640625 149.082031 559.203125 149.027344 C 558.761719 148.96875 556.453125 147.894531 554.066406 146.640625 Z "/>
<path style=" stroke:none;fill-rule:nonzero;fill:rgb(21.568627%,11.764706%,32.941176%);fill-opacity:1;" d="M 0 469.054688 L 0 146.105469 L 4.09375 146.105469 C 8.066406 146.105469 8.523438 145.714844 19.109375 133.167969 C 25.113281 126.054688 31.296875 118.140625 32.847656 115.585938 C 41 102.152344 46.722656 92.96875 50.304688 87.570312 C 54.015625 81.976562 54.296875 81.003906 54.296875 73.855469 C 54.296875 68.714844 53.804688 65.628906 52.816406 64.566406 C 52 63.691406 48.886719 58.914062 45.894531 53.949219 C 41.679688 46.953125 40.457031 43.953125 40.457031 40.597656 C 40.457031 37.652344 40 36.273438 39.027344 36.273438 C 36.445312 36.273438 21.292969 17.324219 21.292969 14.101562 C 21.292969 13.488281 20.390625 11.085938 19.289062 8.761719 C 15.027344 -0.238281 14.929688 0 22.816406 0 L 29.808594 0 L 29.808594 3.125 C 29.808594 5.074219 31.464844 8.667969 34.214844 12.695312 L 38.625 19.144531 L 55.359375 19.144531 L 55.359375 11.207031 C 55.359375 4.113281 55.105469 3.101562 52.964844 1.6875 C 50.71875 0.203125 51.253906 0.101562 61.484375 0.0546875 L 72.394531 0 L 72.394531 4.488281 C 72.394531 8.425781 73 9.597656 77.34375 14.058594 L 82.292969 19.144531 L 97.945312 19.144531 L 97.945312 0 L 101.140625 0 C 104.082031 0 104.335938 0.28125 104.335938 3.527344 L 104.335938 7.054688 L 120.304688 7.054688 L 120.304688 3.527344 C 120.304688 0.167969 120.480469 0 124.03125 0 L 127.757812 0 L 127.773438 4.785156 C 127.785156 8.199219 129.148438 12.539062 132.511719 19.898438 C 137.457031 30.714844 143.078125 48.363281 144.308594 56.929688 C 144.878906 60.925781 145.664062 62.386719 148.09375 63.984375 C 149.777344 65.09375 155.242188 68.617188 160.234375 71.8125 C 165.230469 75.007812 170.183594 78.410156 171.246094 79.371094 C 183.546875 90.492188 191.789062 96.988281 202.863281 104.289062 C 207.070312 107.0625 212.128906 110.542969 214.113281 112.027344 C 225.726562 120.722656 254.71875 140.726562 259.238281 143.164062 C 268.707031 148.273438 270.550781 149.828125 277.816406 158.839844 C 281.601562 163.539062 291.191406 172.046875 303.207031 181.375 C 307.441406 184.664062 321.859375 192.984375 331.636719 197.78125 C 340.425781 202.097656 357.628906 213.835938 370.496094 224.296875 C 382.84375 234.339844 402.621094 248.886719 403.921875 248.886719 C 404.691406 248.886719 422.824219 259.984375 424.328125 261.375 C 424.988281 261.988281 428.960938 264.527344 433.15625 267.023438 C 440.027344 271.109375 452.035156 279.085938 470.039062 291.519531 C 473.550781 293.949219 478.34375 296.996094 480.683594 298.292969 C 486.589844 301.5625 514.5625 320.734375 521.671875 326.382812 C 524.894531 328.941406 530.882812 333.605469 534.980469 336.742188 C 539.078125 339.882812 544.328125 344.296875 546.640625 346.554688 C 550.277344 350.097656 551.472656 350.65625 555.425781 350.65625 L 560 350.65625 L 560 357.710938 C 560 361.589844 559.707031 364.761719 559.351562 364.761719 C 558.992188 364.761719 553.601562 360.097656 547.375 354.390625 C 541.144531 348.6875 532.214844 341.105469 527.527344 337.539062 C 522.84375 333.972656 518.53125 330.546875 517.945312 329.921875 C 516.28125 328.140625 482.476562 305.152344 475.359375 300.960938 C 471.847656 298.890625 463.703125 293.554688 457.261719 289.097656 C 450.820312 284.644531 435.492188 274.695312 423.195312 266.988281 C 385.125 243.128906 387.914062 245.046875 368.273438 229.238281 C 353.898438 217.664062 342.082031 209.464844 332.167969 204.175781 C 328.359375 202.148438 324.527344 200.03125 323.648438 199.476562 C 322.773438 198.921875 320.855469 197.90625 319.390625 197.222656 C 304.722656 190.359375 281.03125 171.351562 268.589844 156.464844 C 266.703125 154.207031 261.914062 150.585938 257.941406 148.417969 C 250.613281 144.414062 235.683594 134.527344 228.898438 129.1875 C 226.847656 127.574219 222.535156 124.527344 219.316406 122.414062 C 216.09375 120.304688 211.542969 117.128906 209.203125 115.363281 C 206.859375 113.59375 202 110.285156 198.402344 108.003906 C 194.804688 105.722656 191.210938 103.273438 190.417969 102.558594 C 189.625 101.84375 186.367188 99.21875 183.183594 96.726562 C 180 94.238281 174.96875 90.03125 172.003906 87.382812 C 169.039062 84.730469 162.734375 80.125 157.992188 77.144531 C 150.394531 72.375 148.554688 71.664062 142.554688 71.1875 C 138.808594 70.890625 133.707031 70.347656 131.214844 69.980469 L 126.691406 69.316406 L 126.691406 64.464844 C 126.691406 59.832031 126.414062 59.378906 120.625 54.492188 C 117.285156 51.675781 113.734375 49.375 112.726562 49.375 C 111.722656 49.375 110.738281 49.027344 110.546875 48.609375 C 110.351562 48.1875 105.878906 44.699219 100.609375 40.859375 C 95.339844 37.019531 88.390625 31.472656 85.171875 28.53125 L 79.316406 23.183594 L 70.796875 23.179688 L 62.28125 23.175781 L 57.757812 28.148438 C 53.320312 33.023438 53.230469 33.265625 53.230469 40.53125 C 53.230469 45.921875 53.804688 49.003906 55.335938 51.847656 C 56.496094 54 58 57.355469 58.679688 59.304688 C 59.359375 61.257812 62.855469 65.828125 66.449219 69.464844 C 75.875 79.003906 78.871094 83.277344 89.457031 102.273438 C 91.308594 105.601562 93.5 109.035156 94.320312 109.910156 C 95.144531 110.785156 95.816406 112.070312 95.816406 112.765625 C 95.816406 113.460938 103.882812 121.8125 113.738281 131.328125 C 139.386719 156.089844 140.042969 156.847656 148.15625 171.105469 C 153.941406 181.265625 163.15625 195.332031 166.109375 198.503906 C 167.398438 199.890625 169.699219 202.609375 171.21875 204.550781 C 173.8125 207.859375 183.402344 218.699219 187.710938 223.191406 C 190.554688 226.152344 200.191406 240.273438 204.90625 248.382812 C 209.148438 255.6875 225.707031 279.921875 228.082031 282.308594 C 235.550781 289.8125 250.433594 309.550781 255.433594 318.585938 C 258.59375 324.292969 260.828125 326.765625 276.664062 342.089844 C 283.535156 348.742188 290.574219 355.996094 292.296875 358.210938 C 294.023438 360.429688 295.820312 362.695312 296.289062 363.25 C 300.261719 367.953125 307.074219 377.277344 311.90625 384.625 C 321.167969 398.714844 328.671875 409.4375 330.796875 411.617188 C 331.875 412.726562 333.925781 415.21875 335.355469 417.160156 C 336.785156 419.101562 338.449219 421.238281 339.050781 421.910156 C 339.65625 422.585938 340.667969 423.730469 341.300781 424.457031 C 341.933594 425.183594 345.710938 430.980469 349.691406 437.339844 C 358.699219 451.726562 360.941406 454.511719 373.632812 467.039062 C 399.585938 492.65625 402.175781 495.523438 415.769531 513.703125 C 419.214844 518.3125 427.082031 526.699219 433.246094 532.34375 C 458.96875 555.894531 459.414062 556.4375 472.238281 579.894531 C 481.425781 596.699219 481.949219 597.457031 496.675781 615.160156 C 504.511719 624.582031 515.15625 638.183594 520.328125 645.390625 C 525.503906 652.59375 532.371094 662.117188 535.585938 666.550781 C 541.726562 675.007812 545.636719 682.101562 549.386719 691.59375 C 551.59375 697.179688 551.710938 697.28125 555.816406 697.28125 L 560 697.28125 L 560 792 L 0 792 Z M 136.273438 46.5 C 136.273438 46.03125 135.816406 44.328125 135.261719 42.722656 C 134.703125 41.117188 133.726562 37.875 133.089844 35.519531 L 131.933594 31.238281 L 116.046875 31.238281 L 116.046875 37.730469 C 116.046875 46.144531 117.621094 47.359375 128.527344 47.359375 C 132.789062 47.359375 136.273438 46.972656 136.273438 46.5 Z M 554.066406 146.640625 C 548.273438 143.589844 531.582031 138.222656 511.714844 133.019531 C 507.117188 131.816406 499.8125 129.28125 495.480469 127.386719 C 491.144531 125.492188 482.453125 122.140625 476.15625 119.941406 C 469.863281 117.742188 456.089844 111.914062 445.550781 106.988281 C 435.011719 102.0625 423.273438 96.742188 419.46875 95.164062 C 415.660156 93.585938 410.761719 91.253906 408.578125 89.980469 C 406.390625 88.707031 404.371094 87.664062 404.085938 87.664062 C 403.796875 87.664062 399.507812 85.398438 394.550781 82.625 C 389.59375 79.855469 385.023438 77.585938 384.390625 77.585938 C 383.757812 77.585938 382.410156 77.171875 381.390625 76.664062 C 376.644531 74.289062 360.808594 68.503906 356.582031 67.597656 C 350.371094 66.265625 339.21875 62.773438 333.230469 60.285156 C 330.597656 59.191406 326.765625 57.617188 324.714844 56.789062 C 322.664062 55.960938 320.03125 54.878906 318.859375 54.386719 C 317.6875 53.894531 310.980469 51.378906 303.953125 48.800781 C 296.929688 46.222656 289.261719 43.296875 286.921875 42.304688 C 284.578125 41.3125 277.871094 38.699219 272.015625 36.496094 C 266.160156 34.292969 258.160156 31.089844 254.234375 29.378906 C 232.136719 19.738281 221.609375 17.03125 200.683594 15.609375 C 181.640625 14.3125 142.660156 4.421875 142.660156 0.882812 C 142.660156 0.398438 150.085938 0 159.164062 0 L 175.664062 0 L 175.664062 3.359375 C 175.664062 6.636719 175.8125 6.746094 181.785156 7.910156 C 185.152344 8.566406 194.859375 9.734375 203.351562 10.503906 C 224.859375 12.460938 235.695312 15.292969 256.234375 24.332031 C 261.023438 26.441406 269.167969 29.734375 274.332031 31.648438 C 297.019531 40.0625 323.539062 50.304688 335.894531 55.421875 C 341.335938 57.679688 348.054688 59.855469 356.121094 61.976562 C 365.230469 64.375 391.359375 74.285156 396.203125 77.179688 C 404.148438 81.925781 417.101562 88.34375 429.582031 93.71875 C 433.679688 95.484375 444.460938 100.332031 453.535156 104.492188 C 473.332031 113.5625 472.941406 113.398438 479.621094 115.460938 C 482.546875 116.363281 486.980469 117.960938 489.46875 119.007812 C 503.746094 125.027344 506.441406 126 515.816406 128.515625 C 525.164062 131.019531 535.0625 133.957031 543.296875 136.667969 C 547.28125 137.980469 552.671875 139.054688 555.273438 139.054688 L 560 139.054688 L 560 144.089844 C 560 146.863281 559.640625 149.082031 559.203125 149.027344 C 558.761719 148.96875 556.453125 147.894531 554.066406 146.640625 Z "/>
<path style=" stroke:none;fill-rule:nonzero;fill:rgb(0%,0%,0%);fill-opacity:1;" d="M 555.386719 717.183594 C 552.285156 712.527344 546.085938 699.734375 541.835938 689.222656 C 539.59375 683.667969 534.566406 675.191406 529.289062 668.0625 C 526.621094 664.457031 520.742188 656.257812 516.222656 649.839844 C 509.394531 640.144531 494.984375 622.191406 482.726562 608.105469 C 479.414062 604.304688 469.613281 588.722656 465.925781 581.40625 C 457.75 565.175781 450.765625 555.632812 441.136719 547.527344 C 427.53125 536.082031 416.792969 525.324219 410.988281 517.328125 C 401.355469 504.054688 392.429688 494.050781 374.394531 476.296875 C 357.84375 460.003906 350.675781 451.324219 343.78125 439.234375 C 342.011719 436.136719 337.160156 429.335938 332.996094 424.121094 C 323.417969 412.128906 313.183594 397.972656 305.996094 386.78125 C 296.640625 372.207031 285.949219 359.335938 272.429688 346.375 C 258.472656 332.992188 253.046875 326.726562 248.648438 318.917969 C 245.398438 313.136719 235.414062 298.003906 234.355469 297.25 C 232.59375 295.996094 219.25 280.023438 215.417969 274.582031 C 213.074219 271.253906 206.222656 260.597656 200.1875 250.902344 C 190.652344 235.582031 183.351562 225.699219 175.988281 218.152344 C 174.90625 217.042969 170.398438 211.828125 165.96875 206.566406 C 158.695312 197.921875 154.671875 191.953125 138.523438 165.890625 C 134.835938 159.9375 128.910156 153.390625 114.746094 139.613281 C 104.371094 129.519531 94.996094 120.164062 93.917969 118.820312 C 91.679688 116.039062 80.191406 97.363281 76.765625 90.9375 L 74.480469 86.65625 L 66.113281 86.65625 C 57.898438 86.65625 57.695312 86.71875 55.210938 89.929688 C 53.820312 91.734375 51.648438 95.019531 50.382812 97.238281 C 44.207031 108.082031 34.484375 123.488281 32.496094 125.589844 C 31.894531 126.222656 30.449219 127.996094 29.277344 129.535156 C 28.105469 131.070312 22.355469 137.863281 16.5 144.628906 C 10.644531 151.394531 4.546875 158.460938 2.945312 160.335938 L 0.0390625 163.742188 L 0.0195312 154.921875 L 0 146.105469 L 4.09375 146.105469 C 8.066406 146.105469 8.523438 145.714844 19.109375 133.167969 C 25.113281 126.054688 31.296875 118.140625 32.847656 115.585938 C 41 102.152344 46.722656 92.96875 50.304688 87.570312 C 54.015625 81.976562 54.296875 81.003906 54.296875 73.855469 C 54.296875 68.714844 53.804688 65.628906 52.816406 64.566406 C 52 63.691406 48.886719 58.914062 45.894531 53.949219 C 41.679688 46.953125 40.457031 43.953125 40.457031 40.597656 C 40.457031 37.652344 40 36.273438 39.027344 36.273438 C 36.445312 36.273438 21.292969 17.324219 21.292969 14.101562 C 21.292969 13.488281 20.390625 11.085938 19.289062 8.761719 C 15.027344 -0.238281 14.929688 0 22.816406 0 L 29.808594 0 L 29.808594 3.125 C 29.808594 5.074219 31.464844 8.667969 34.214844 12.695312 L 38.625 19.144531 L 55.359375 19.144531 L 55.359375 11.207031 C 55.359375 4.113281 55.105469 3.101562 52.964844 1.6875 C 50.71875 0.203125 51.253906 0.101562 61.484375 0.0546875 L 72.394531 0 L 72.394531 4.488281 C 72.394531 8.425781 73 9.597656 77.34375 14.058594 L 82.292969 19.144531 L 97.945312 19.144531 L 97.945312 0 L 101.140625 0 C 104.082031 0 104.335938 0.28125 104.335938 3.527344 L 104.335938 7.054688 L 120.304688 7.054688 L 120.304688 3.527344 C 120.304688 0.167969 120.480469 0 124.03125 0 L 127.757812 0 L 127.773438 4.785156 C 127.785156 8.199219 129.148438 12.539062 132.511719 19.898438 C 137.457031 30.714844 143.078125 48.363281 144.308594 56.929688 C 144.878906 60.925781 145.664062 62.386719 148.09375 63.984375 C 149.777344 65.09375 155.242188 68.617188 160.234375 71.8125 C 165.230469 75.007812 170.183594 78.410156 171.246094 79.371094 C 183.546875 90.492188 191.789062 96.988281 202.863281 104.289062 C 207.070312 107.0625 212.128906 110.542969 214.113281 112.027344 C 225.726562 120.722656 254.71875 140.726562 259.238281 143.164062 C 268.707031 148.273438 270.550781 149.828125 277.816406 158.839844 C 281.601562 163.539062 291.191406 172.046875 303.207031 181.375 C 307.441406 184.664062 321.859375 192.984375 331.636719 197.78125 C 340.425781 202.097656 357.628906 213.835938 370.496094 224.296875 C 382.84375 234.339844 402.621094 248.886719 403.921875 248.886719 C 404.691406 248.886719 422.824219 259.984375 424.328125 261.375 C 424.988281 261.988281 428.960938 264.527344 433.15625 267.023438 C 440.027344 271.109375 452.035156 279.085938 470.039062 291.519531 C 473.550781 293.949219 478.34375 296.996094 480.683594 298.292969 C 486.589844 301.5625 514.5625 320.734375 521.671875 326.382812 C 524.894531 328.941406 530.882812 333.605469 534.980469 336.742188 C 539.078125 339.882812 544.328125 344.296875 546.640625 346.554688 C 550.277344 350.097656 551.472656 350.65625 555.425781 350.65625 L 560 350.65625 L 560 357.710938 C 560 361.589844 559.707031 364.761719 559.351562 364.761719 C 558.992188 364.761719 553.601562 360.097656 547.375 354.390625 C 541.144531 348.6875 532.214844 341.105469 527.527344 337.539062 C 522.84375 333.972656 518.53125 330.546875 517.945312 329.921875 C 516.28125 328.140625 482.476562 305.152344 475.359375 300.960938 C 471.847656 298.890625 463.703125 293.554688 457.261719 289.097656 C 450.820312 284.644531 435.492188 274.695312 423.195312 266.988281 C 385.125 243.128906 387.914062 245.046875 368.273438 229.238281 C 353.898438 217.664062 342.082031 209.464844 332.167969 204.175781 C 328.359375 202.148438 324.527344 200.03125 323.648438 199.476562 C 322.773438 198.921875 320.855469 197.90625 319.390625 197.222656 C 304.722656 190.359375 281.03125 171.351562 268.589844 156.464844 C 266.703125 154.207031 261.914062 150.585938 257.941406 148.417969 C 250.613281 144.414062 235.683594 134.527344 228.898438 129.1875 C 226.847656 127.574219 222.535156 124.527344 219.316406 122.414062 C 216.09375 120.304688 211.542969 117.128906 209.203125 115.363281 C 206.859375 113.59375 202 110.285156 198.402344 108.003906 C 194.804688 105.722656 191.210938 103.273438 190.417969 102.558594 C 189.625 101.84375 186.367188 99.21875 183.183594 96.726562 C 180 94.238281 174.96875 90.03125 172.003906 87.382812 C 169.039062 84.730469 162.734375 80.125 157.992188 77.144531 C 150.394531 72.375 148.554688 71.664062 142.554688 71.1875 C 138.808594 70.890625 133.707031 70.347656 131.214844 69.980469 L 126.691406 69.316406 L 126.691406 64.464844 C 126.691406 59.832031 126.414062 59.378906 120.625 54.492188 C 117.285156 51.675781 113.734375 49.375 112.726562 49.375 C 111.722656 49.375 110.738281 49.027344 110.546875 48.609375 C 110.351562 48.1875 105.878906 44.699219 100.609375 40.859375 C 95.339844 37.019531 88.390625 31.472656 85.171875 28.53125 L 79.316406 23.183594 L 70.796875 23.179688 L 62.28125 23.175781 L 57.757812 28.148438 C 53.320312 33.023438 53.230469 33.265625 53.230469 40.53125 C 53.230469 45.921875 53.804688 49.003906 55.335938 51.847656 C 56.496094 54 58 57.355469 58.679688 59.304688 C 59.359375 61.257812 62.855469 65.828125 66.449219 69.464844 C 75.875 79.003906 78.871094 83.277344 89.457031 102.273438 C 91.308594 105.601562 93.5 109.035156 94.320312 109.910156 C 95.144531 110.785156 95.816406 112.070312 95.816406 112.765625 C 95.816406 113.460938 103.882812 121.8125 113.738281 131.328125 C 139.386719 156.089844 140.042969 156.847656 148.15625 171.105469 C 153.941406 181.265625 163.15625 195.332031 166.109375 198.503906 C 167.398438 199.890625 169.699219 202.609375 171.21875 204.550781 C 173.8125 207.859375 183.402344 218.699219 187.710938 223.191406 C 190.554688 226.152344 200.191406 240.273438 204.90625 248.382812 C 209.148438 255.6875 225.707031 279.921875 228.082031 282.308594 C 235.550781 289.8125 250.433594 309.550781 255.433594 318.585938 C 258.59375 324.292969 260.828125 326.765625 276.664062 342.089844 C 283.535156 348.742188 290.574219 355.996094 292.296875 358.210938 C 294.023438 360.429688 295.820312 362.695312 296.289062 363.25 C 300.261719 367.953125 307.074219 377.277344 311.90625 384.625 C 321.167969 398.714844 328.671875 409.4375 330.796875 411.617188 C 331.875 412.726562 333.925781 415.21875 335.355469 417.160156 C 336.785156 419.101562 338.449219 421.238281 339.050781 421.910156 C 339.65625 422.585938 340.667969 423.730469 341.300781 424.457031 C 341.933594 425.183594 345.710938 430.980469 349.691406 437.339844 C 358.699219 451.726562 360.941406 454.511719 373.632812 467.039062 C 399.585938 492.65625 402.175781 495.523438 415.769531 513.703125 C 419.214844 518.3125 427.082031 526.699219 433.246094 532.34375 C 458.96875 555.894531 459.414062 556.4375 472.238281 579.894531 C 481.425781 596.699219 481.949219 597.457031 496.675781 615.160156 C 504.511719 624.582031 515.15625 638.183594 520.328125 645.390625 C 525.503906 652.59375 532.371094 662.117188 535.585938 666.550781 C 541.726562 675.007812 545.636719 682.101562 549.386719 691.59375 C 551.59375 697.179688 551.710938 697.28125 555.816406 697.28125 L 560 697.28125 L 560 709.878906 C 560 716.804688 559.753906 722.472656 559.453125 722.472656 C 559.15625 722.472656 557.324219 720.09375 555.386719 717.183594 Z M 136.273438 46.5 C 136.273438 46.03125 135.816406 44.328125 135.261719 42.722656 C 134.703125 41.117188 133.726562 37.875 133.089844 35.519531 L 131.933594 31.238281 L 116.046875 31.238281 L 116.046875 37.730469 C 116.046875 46.144531 117.621094 47.359375 128.527344 47.359375 C 132.789062 47.359375 136.273438 46.972656 136.273438 46.5 Z M 554.066406 146.640625 C 548.273438 143.589844 531.582031 138.222656 511.714844 133.019531 C 507.117188 131.816406 499.8125 129.28125 495.480469 127.386719 C 491.144531 125.492188 482.453125 122.140625 476.15625 119.941406 C 469.863281 117.742188 456.089844 111.914062 445.550781 106.988281 C 435.011719 102.0625 423.273438 96.742188 419.46875 95.164062 C 415.660156 93.585938 410.761719 91.253906 408.578125 89.980469 C 406.390625 88.707031 404.371094 87.664062 404.085938 87.664062 C 403.796875 87.664062 399.507812 85.398438 394.550781 82.625 C 389.59375 79.855469 385.023438 77.585938 384.390625 77.585938 C 383.757812 77.585938 382.410156 77.171875 381.390625 76.664062 C 376.644531 74.289062 360.808594 68.503906 356.582031 67.597656 C 350.371094 66.265625 339.21875 62.773438 333.230469 60.285156 C 330.597656 59.191406 326.765625 57.617188 324.714844 56.789062 C 322.664062 55.960938 320.03125 54.878906 318.859375 54.386719 C 317.6875 53.894531 310.980469 51.378906 303.953125 48.800781 C 296.929688 46.222656 289.261719 43.296875 286.921875 42.304688 C 284.578125 41.3125 277.871094 38.699219 272.015625 36.496094 C 266.160156 34.292969 258.160156 31.089844 254.234375 29.378906 C 232.136719 19.738281 221.609375 17.03125 200.683594 15.609375 C 181.640625 14.3125 142.660156 4.421875 142.660156 0.882812 C 142.660156 0.398438 150.085938 0 159.164062 0 L 175.664062 0 L 175.664062 3.359375 C 175.664062 6.636719 175.8125 6.746094 181.785156 7.910156 C 185.152344 8.566406 194.859375 9.734375 203.351562 10.503906 C 224.859375 12.460938 235.695312 15.292969 256.234375 24.332031 C 261.023438 26.441406 269.167969 29.734375 274.332031 31.648438 C 297.019531 40.0625 323.539062 50.304688 335.894531 55.421875 C 341.335938 57.679688 348.054688 59.855469 356.121094 61.976562 C 365.230469 64.375 391.359375 74.285156 396.203125 77.179688 C 404.148438 81.925781 417.101562 88.34375 429.582031 93.71875 C 433.679688 95.484375 444.460938 100.332031 453.535156 104.492188 C 473.332031 113.5625 472.941406 113.398438 479.621094 115.460938 C 482.546875 116.363281 486.980469 117.960938 489.46875 119.007812 C 503.746094 125.027344 506.441406 126 515.816406 128.515625 C 525.164062 131.019531 535.0625 133.957031 543.296875 136.667969 C 547.28125 137.980469 552.671875 139.054688 555.273438 139.054688 L 560 139.054688 L 560 144.089844 C 560 146.863281 559.640625 149.082031 559.203125 149.027344 C 558.761719 148.96875 556.453125 147.894531 554.066406 146.640625 Z "/>
</g>
</svg>
