<?xml version="1.0" encoding="UTF-8"?>
<svg xmlns="http://www.w3.org/2000/svg" xmlns:xlink="http://www.w3.org/1999/xlink" width="560pt" height="792pt" viewBox="0 0 560 792" version="1.1">
<g id="surface1">
<path style=" stroke:none;fill-rule:nonzero;fill:rgb(99.607843%,99.607843%,99.607843%);fill-opacity:1;" d="M 0 396 L 0 0 L 560 0 L 560 792 L 0 792 Z "/>
<path style=" stroke:none;fill-rule:nonzero;fill:rgb(99.607843%,97.647059%,49.411765%);fill-opacity:1;" d="M 0 396 L 0 0 L 560 0 L 560 792 L 0 792 Z "/>
<path style=" stroke:none;fill-rule:nonzero;fill:rgb(74.509804%,62.745098%,99.607843%);fill-opacity:1;" d="M 0 396 L 0 0 L 560 0 L 560 792 L 0 792 Z M 511.179688 785.882812 C 512.589844 783.636719 513.738281 781.582031 513.738281 781.320312 C 513.738281 781.058594 509.660156 780.84375 504.675781 780.84375 C 496.695312 780.84375 495.390625 781.113281 493.722656 783.097656 C 492.679688 784.339844 491.824219 786.390625 491.824219 787.664062 C 491.824219 789.84375 492.296875 789.972656 500.226562 789.972656 L 508.625 789.972656 Z "/>
<path style=" stroke:none;fill-rule:nonzero;fill:rgb(49.411765%,87.058824%,32.941176%);fill-opacity:1;" d="M 0 396 L 0 0 L 416.433594 0 L 415.683594 5.324219 C 415.269531 8.253906 414.628906 11.332031 414.253906 12.167969 C 413.882812 13.003906 413.175781 23.957031 412.683594 36.507812 C 412.144531 50.296875 410.804688 64.941406 409.292969 73.519531 C 406.410156 89.914062 404.742188 134.050781 404.929688 189.125 C 405.0625 228.644531 407.0625 283.109375 408.453125 284.980469 C 409.734375 286.707031 411.328125 312.234375 412.636719 351.886719 C 413.539062 379.300781 415.480469 400.351562 418.191406 412.226562 C 418.574219 413.898438 419.398438 420.011719 420.019531 425.8125 C 420.644531 431.613281 421.941406 438.230469 422.898438 440.519531 C 425.316406 446.28125 429.285156 462.71875 431.609375 476.597656 C 432.679688 483 434 488.707031 434.542969 489.273438 C 436.613281 491.453125 442.164062 513.574219 443.707031 525.804688 C 444.757812 534.136719 446.773438 543.640625 448.011719 546.085938 C 451.457031 552.878906 455.496094 565.855469 457.171875 575.492188 C 458.238281 581.628906 459.835938 588.472656 460.722656 590.703125 C 461.613281 592.933594 463.265625 598.261719 464.402344 602.542969 C 465.585938 607.011719 467.199219 610.5625 468.1875 610.878906 C 469.136719 611.179688 469.914062 612.375 469.914062 613.53125 C 469.914062 614.683594 470.933594 617.324219 472.175781 619.390625 C 473.421875 621.460938 476.171875 628.175781 478.285156 634.308594 C 480.398438 640.445312 484.039062 648.53125 486.371094 652.28125 C 488.707031 656.03125 491.792969 661.738281 493.230469 664.957031 C 494.664062 668.179688 498.199219 674.46875 501.085938 678.933594 C 503.96875 683.398438 507.183594 689.058594 508.222656 691.519531 C 509.265625 693.976562 512.257812 699.679688 514.875 704.191406 C 517.492188 708.703125 520.582031 714.332031 521.742188 716.703125 C 522.898438 719.074219 524.234375 721.015625 524.703125 721.015625 C 525.171875 721.015625 528.195312 725.464844 531.417969 730.902344 C 534.640625 736.339844 537.640625 741.015625 538.082031 741.296875 C 538.523438 741.574219 539.726562 743.171875 540.753906 744.84375 C 549.246094 758.671875 551.988281 761.578125 556.535156 761.578125 L 560 761.578125 L 560 792 L 0 792 Z M 511.179688 785.882812 C 512.589844 783.636719 513.738281 781.582031 513.738281 781.320312 C 513.738281 781.058594 509.660156 780.84375 504.675781 780.84375 C 496.695312 780.84375 495.390625 781.113281 493.722656 783.097656 C 492.679688 784.339844 491.824219 786.390625 491.824219 787.664062 C 491.824219 789.84375 492.296875 789.972656 500.226562 789.972656 L 508.625 789.972656 Z "/>
<path style=" stroke:none;fill-rule:nonzero;fill:rgb(24.313725%,1.960784%,49.411765%);fill-opacity:1;" d="M 0 396 L 0 0 L 416.433594 0 L 415.683594 5.324219 C 415.269531 8.253906 414.628906 11.332031 414.253906 12.167969 C 413.882812 13.003906 413.175781 23.957031 412.683594 36.507812 C 412.144531 50.296875 410.804688 64.941406 409.292969 73.519531 C 406.410156 89.914062 404.742188 134.050781 404.929688 189.125 C 405.0625 228.644531 407.0625 283.109375 408.453125 284.980469 C 409.734375 286.707031 411.328125 312.234375 412.636719 351.886719 C 413.539062 379.300781 415.480469 400.351562 418.191406 412.226562 C 418.574219 413.898438 419.398438 420.011719 420.019531 425.8125 C 420.644531 431.613281 421.941406 438.230469 422.898438 440.519531 C 425.316406 446.28125 429.285156 462.71875 431.609375 476.597656 C 432.679688 483 434 488.707031 434.542969 489.273438 C 436.613281 491.453125 442.164062 513.574219 443.707031 525.804688 C 444.757812 534.136719 446.773438 543.640625 448.011719 546.085938 C 451.457031 552.878906 455.496094 565.855469 457.171875 575.492188 C 458.238281 581.628906 459.835938 588.472656 460.722656 590.703125 C 461.613281 592.933594 463.265625 598.261719 464.402344 602.542969 C 465.585938 607.011719 467.199219 610.5625 468.1875 610.878906 C 469.136719 611.179688 469.914062 612.375 469.914062 613.53125 C 469.914062 614.683594 470.933594 617.324219 472.175781 619.390625 C 473.421875 621.460938 476.171875 628.175781 478.285156 634.308594 C 480.398438 640.445312 484.039062 648.53125 486.371094 652.28125 C 488.707031 656.03125 491.792969 661.738281 493.230469 664.957031 C 494.664062 668.179688 498.199219 674.46875 501.085938 678.933594 C 503.96875 683.398438 507.183594 689.058594 508.222656 691.519531 C 509.265625 693.976562 512.257812 699.679688 514.875 704.191406 C 517.492188 708.703125 520.582031 714.332031 521.742188 716.703125 C 522.898438 719.074219 524.234375 721.015625 524.703125 721.015625 C 525.171875 721.015625 528.195312 725.464844 531.417969 730.902344 C 534.640625 736.339844 537.640625 741.015625 538.082031 741.296875 C 538.523438 741.574219 539.726562 743.171875 540.753906 744.84375 C 549.246094 758.671875 551.988281 761.578125 556.535156 761.578125 L 560 761.578125 L 560 792 L 480.890625 792 L 484.761719 786.675781 C 491.617188 777.238281 494.609375 774.917969 518.609375 760.40625 C 528.230469 754.585938 528.355469 754.398438 528.289062 745.648438 C 528.226562 737.335938 527.976562 736.738281 519.785156 725.429688 C 514.609375 718.285156 511.085938 710.976562 512.132812 709.5625 C 512.554688 708.996094 512.308594 708.835938 511.585938 709.207031 C 510.191406 709.925781 505.972656 703.207031 501.4375 693.03125 C 499.96875 689.738281 498.394531 686.8125 497.933594 686.535156 C 496.78125 685.832031 489.945312 674.421875 488.828125 671.324219 C 488.320312 669.929688 484.957031 663.726562 481.347656 657.542969 C 477.734375 651.355469 474.765625 645.652344 474.746094 644.867188 C 474.726562 644.078125 472.859375 638.875 470.597656 633.296875 L 466.484375 623.15625 L 459.425781 622.84375 C 449.683594 622.417969 447.675781 623.011719 440.347656 628.5 C 429.734375 636.453125 424.109375 640.074219 418.574219 642.519531 C 407.472656 647.417969 396.125 651.316406 391.441406 651.839844 C 386.949219 652.34375 375.214844 657.230469 373.695312 659.230469 C 373.339844 659.703125 370.871094 660.832031 368.21875 661.742188 C 361.308594 664.105469 341.714844 672.433594 331.738281 677.246094 C 327.050781 679.507812 318.296875 683.492188 312.28125 686.105469 C 306.265625 688.714844 299.691406 691.886719 297.671875 693.152344 C 292.265625 696.542969 272.980469 704.648438 267.285156 705.921875 C 261.878906 707.136719 252 711.617188 252 712.859375 C 252 713.289062 248.984375 714.429688 245.300781 715.394531 C 237.335938 717.480469 215.257812 726.765625 208.359375 730.925781 C 205.671875 732.550781 201.957031 735.375 200.105469 737.210938 C 197.832031 739.460938 190.949219 742.914062 178.949219 747.824219 C 169.164062 751.828125 160.070312 755.992188 158.738281 757.074219 C 151.589844 762.886719 139.34375 771.359375 135.386719 773.238281 C 132.902344 774.414062 127.992188 777.03125 124.480469 779.046875 C 120.964844 781.066406 116.171875 783.242188 113.828125 783.886719 C 110.058594 784.921875 109.566406 785.460938 109.566406 788.53125 L 109.566406 792 L 0 792 Z M 511.179688 785.882812 C 512.589844 783.636719 513.738281 781.582031 513.738281 781.320312 C 513.738281 781.058594 509.660156 780.84375 504.675781 780.84375 C 496.695312 780.84375 495.390625 781.113281 493.722656 783.097656 C 492.679688 784.339844 491.824219 786.390625 491.824219 787.664062 C 491.824219 789.84375 492.296875 789.972656 500.226562 789.972656 L 508.625 789.972656 Z "/>
<path style=" stroke:none;fill-rule:nonzero;fill:rgb(0%,0%,0%);fill-opacity:1;" d="M 102.25 786.433594 C 105.898438 783.355469 110.78125 780.351562 113.164062 779.714844 C 115.535156 779.082031 118.574219 777.800781 119.914062 776.863281 C 121.253906 775.925781 125.910156 773.382812 130.261719 771.214844 C 134.613281 769.046875 143.566406 763.25 150.160156 758.339844 C 156.75 753.425781 162.714844 749.410156 163.414062 749.410156 C 164.113281 749.410156 171.464844 746.617188 179.75 743.207031 C 189.441406 739.21875 195.683594 735.992188 197.246094 734.160156 C 201.203125 729.535156 213.765625 722.875 231.304688 716.109375 C 240.34375 712.621094 248.5625 709.324219 249.566406 708.773438 C 252.703125 707.066406 265.585938 702.046875 275.660156 698.609375 C 280.976562 696.796875 288.824219 693.316406 293.105469 690.875 C 297.386719 688.4375 303.976562 685.300781 307.75 683.910156 C 311.523438 682.519531 314.90625 681.058594 315.261719 680.664062 C 315.972656 679.875 317.574219 679.097656 329.628906 673.675781 C 334.078125 671.675781 338.464844 669.414062 339.378906 668.652344 C 340.296875 667.890625 341.515625 667.269531 342.089844 667.269531 C 344.074219 667.269531 369.273438 656.84375 376.835938 652.890625 C 381.003906 650.714844 390.5 647.164062 397.933594 645 C 412.671875 640.714844 423.277344 635.378906 435.21875 626.246094 C 439.234375 623.171875 445.945312 619.203125 450.128906 617.421875 L 457.738281 614.1875 L 457.738281 607.761719 C 457.738281 604.222656 456.675781 597.34375 455.378906 592.46875 C 454.082031 587.59375 452.382812 579.5 451.605469 574.480469 C 450.828125 569.460938 448.898438 562.613281 447.316406 559.269531 C 443.179688 550.515625 441.046875 542.734375 438.847656 528.339844 C 436.742188 514.558594 435.257812 508.46875 430.515625 494.09375 C 428.8125 488.921875 426.507812 479.109375 425.398438 472.289062 C 424.289062 465.46875 422.65625 458.0625 421.769531 455.832031 C 418.632812 447.949219 416.160156 437.433594 414.503906 424.902344 C 410.636719 395.621094 408.972656 384.601562 407.800781 380.507812 C 407.117188 378.121094 406.308594 358.957031 406.003906 337.917969 C 405.625 311.636719 404.867188 296.011719 403.578125 288 C 401.832031 277.136719 399.824219 233.558594 399.042969 189.632812 C 398.570312 162.921875 400.378906 91.992188 401.734375 84.167969 C 405.46875 62.609375 406.636719 51.585938 406.625 38.027344 C 406.617188 28.664062 407.3125 19.761719 408.433594 14.867188 C 409.4375 10.496094 410.261719 5.363281 410.261719 3.460938 C 410.261719 0.433594 410.648438 0 413.347656 0 C 416.351562 0 416.414062 0.136719 415.683594 5.324219 C 415.269531 8.253906 414.628906 11.332031 414.253906 12.167969 C 413.882812 13.003906 413.175781 23.957031 412.683594 36.507812 C 412.144531 50.296875 410.804688 64.941406 409.292969 73.519531 C 406.410156 89.914062 404.742188 134.050781 404.929688 189.125 C 405.0625 228.644531 407.0625 283.109375 408.453125 284.980469 C 409.734375 286.707031 411.328125 312.234375 412.636719 351.886719 C 413.539062 379.300781 415.480469 400.351562 418.191406 412.226562 C 418.574219 413.898438 419.398438 420.011719 420.019531 425.8125 C 420.644531 431.613281 421.941406 438.230469 422.898438 440.519531 C 425.316406 446.28125 429.285156 462.71875 431.609375 476.597656 C 432.679688 483 434 488.707031 434.542969 489.273438 C 436.613281 491.453125 442.164062 513.574219 443.707031 525.804688 C 444.757812 534.136719 446.773438 543.640625 448.011719 546.085938 C 451.457031 552.878906 455.496094 565.855469 457.171875 575.492188 C 458.238281 581.628906 459.835938 588.472656 460.722656 590.703125 C 461.613281 592.933594 463.265625 598.261719 464.402344 602.542969 C 465.585938 607.011719 467.199219 610.5625 468.1875 610.878906 C 469.136719 611.179688 469.914062 612.375 469.914062 613.53125 C 469.914062 614.683594 470.933594 617.324219 472.175781 619.390625 C 473.421875 621.460938 476.171875 628.175781 478.285156 634.308594 C 480.398438 640.445312 484.039062 648.53125 486.371094 652.28125 C 488.707031 656.03125 491.792969 661.738281 493.230469 664.957031 C 494.664062 668.179688 498.199219 674.46875 501.085938 678.933594 C 503.96875 683.398438 507.183594 689.058594 508.222656 691.519531 C 509.265625 693.976562 512.257812 699.679688 514.875 704.191406 C 517.492188 708.703125 520.582031 714.332031 521.742188 716.703125 C 522.898438 719.074219 524.234375 721.015625 524.703125 721.015625 C 525.171875 721.015625 528.195312 725.464844 531.417969 730.902344 C 534.640625 736.339844 537.640625 741.015625 538.082031 741.296875 C 538.523438 741.574219 539.726562 743.171875 540.753906 744.84375 C 549.246094 758.671875 551.988281 761.578125 556.535156 761.578125 L 560 761.578125 L 560 792 L 480.890625 792 L 484.761719 786.675781 C 491.617188 777.238281 494.609375 774.917969 518.609375 760.40625 C 528.230469 754.585938 528.355469 754.398438 528.289062 745.648438 C 528.226562 737.335938 527.976562 736.738281 519.785156 725.429688 C 514.609375 718.285156 511.085938 710.976562 512.132812 709.5625 C 512.554688 708.996094 512.308594 708.835938 511.585938 709.207031 C 510.191406 709.925781 505.972656 703.207031 501.4375 693.03125 C 499.96875 689.738281 498.394531 686.8125 497.933594 686.535156 C 496.78125 685.832031 489.945312 674.421875 488.828125 671.324219 C 488.320312 669.929688 484.957031 663.726562 481.347656 657.542969 C 477.734375 651.355469 474.765625 645.652344 474.746094 644.867188 C 474.726562 644.078125 472.859375 638.875 470.597656 633.296875 L 466.484375 623.15625 L 459.425781 622.84375 C 449.683594 622.417969 447.675781 623.011719 440.347656 628.5 C 429.734375 636.453125 424.109375 640.074219 418.574219 642.519531 C 407.472656 647.417969 396.125 651.316406 391.441406 651.839844 C 386.949219 652.34375 375.214844 657.230469 373.695312 659.230469 C 373.339844 659.703125 370.871094 660.832031 368.21875 661.742188 C 361.308594 664.105469 341.714844 672.433594 331.738281 677.246094 C 327.050781 679.507812 318.296875 683.492188 312.28125 686.105469 C 306.265625 688.714844 299.691406 691.886719 297.671875 693.152344 C 292.265625 696.542969 272.980469 704.648438 267.285156 705.921875 C 261.878906 707.136719 252 711.617188 252 712.859375 C 252 713.289062 248.984375 714.429688 245.300781 715.394531 C 237.335938 717.480469 215.257812 726.765625 208.359375 730.925781 C 205.671875 732.550781 201.957031 735.375 200.105469 737.210938 C 197.832031 739.460938 190.949219 742.914062 178.949219 747.824219 C 169.164062 751.828125 160.070312 755.992188 158.738281 757.074219 C 151.589844 762.886719 139.34375 771.359375 135.386719 773.238281 C 132.902344 774.414062 127.992188 777.03125 124.480469 779.046875 C 120.964844 781.066406 116.171875 783.242188 113.828125 783.886719 C 110.058594 784.921875 109.566406 785.460938 109.566406 788.53125 L 109.566406 792 L 95.648438 792 Z M 511.179688 785.882812 C 512.589844 783.636719 513.738281 781.582031 513.738281 781.320312 C 513.738281 781.058594 509.660156 780.84375 504.675781 780.84375 C 496.695312 780.84375 495.390625 781.113281 493.722656 783.097656 C 492.679688 784.339844 491.824219 786.390625 491.824219 787.664062 C 491.824219 789.84375 492.296875 789.972656 500.226562 789.972656 L 508.625 789.972656 Z "/>
</g>
</svg>
