<?xml version="1.0" encoding="UTF-8" standalone="no"?>
<!-- Created with Inkscape (http://www.inkscape.org/) -->

<svg
   xmlns:dc="http://purl.org/dc/elements/1.1/"
   xmlns:cc="http://creativecommons.org/ns#"
   xmlns:rdf="http://www.w3.org/1999/02/22-rdf-syntax-ns#"
   xmlns:svg="http://www.w3.org/2000/svg"
   xmlns="http://www.w3.org/2000/svg"
   xmlns:xlink="http://www.w3.org/1999/xlink"
   version="1.1"
   width="432"
   height="762"
   id="svg2">
  <metadata
     id="metadata8">
    <rdf:RDF>
      <cc:Work
         rdf:about="">
        <dc:format>image/svg+xml</dc:format>
        <dc:type
           rdf:resource="http://purl.org/dc/dcmitype/StillImage" />
        <dc:title></dc:title>
      </cc:Work>
    </rdf:RDF>
  </metadata>
  <defs
     id="defs6" />
  <image
     xlink:href="file:///media/michi/arch/home/michi/broken-art/selection_scaled_pngs/27413-52.png"
     x="0"
     y="0"
     width="432"
     height="762"
     id="image10" />
  <g
     id="g2987">
    <path
       d="M 0,381 0,0 l 216,0 216,0 0,381 0,381 -216,0 -216,0 0,-381 z"
       id="path2993"
       style="fill:#fe5454" />
    <path
       d="M 0,34.037238 0,0 87,0 c 47.85,0 87,0.20472725 87,0.45494945 0,0.66838045 -33.17349,22.43615955 -42.5,27.88764655 -4.4,2.571867 -9.8,6.007271 -12,7.63423 C 109.59488,43.301927 88.744746,57.079812 85.535632,58.420665 81.794531,59.983797 77.460517,60.91033 59.19453,64.051911 46.053958,66.311968 40.672642,66.756322 17.25,67.515424 L 0,68.074477 0,34.037238 z"
       id="path2991"
       style="fill:#7e1f7e" />
    <path
       d="M 0,65.686981 C 0,63.391525 0.35287848,63.274437 9.1536247,62.649743 14.188118,62.292384 22.76442,62 28.212072,62 33.659724,62 41.353093,61.532929 45.308447,60.962064 61.764659,58.586987 76.812053,55.722017 81.5,54.071321 86.242112,52.401554 104.86715,40.469168 113.5,33.570087 117.01884,30.757949 132.48583,21 133.42441,21 133.8032,21 149.00962,11.170834 152.75,8.5082745 154.33977,7.3766104 155,5.8933026 155,3.453315 L 155,0 l 9.5,0 c 5.225,0 9.5,0.20472725 9.5,0.45494945 0,0.66838045 -33.17349,22.43615955 -42.5,27.88764655 -4.4,2.571867 -9.8,6.007271 -12,7.63423 C 109.59488,43.301927 88.744746,57.079812 85.535632,58.420665 81.794531,59.983797 77.460517,60.91033 59.19453,64.051911 46.053958,66.311968 40.672642,66.756322 17.25,67.515424 L 0,68.074477 0,65.686981 z"
       id="path2989"
       style="fill:#000000" />
  </g>
</svg>
