<?xml version="1.0" encoding="UTF-8" standalone="no"?>
<!-- Created with Inkscape (http://www.inkscape.org/) -->

<svg
   xmlns:dc="http://purl.org/dc/elements/1.1/"
   xmlns:cc="http://creativecommons.org/ns#"
   xmlns:rdf="http://www.w3.org/1999/02/22-rdf-syntax-ns#"
   xmlns:svg="http://www.w3.org/2000/svg"
   xmlns="http://www.w3.org/2000/svg"
   xmlns:xlink="http://www.w3.org/1999/xlink"
   version="1.1"
   width="465"
   height="762"
   id="svg2">
  <metadata
     id="metadata8">
    <rdf:RDF>
      <cc:Work
         rdf:about="">
        <dc:format>image/svg+xml</dc:format>
        <dc:type
           rdf:resource="http://purl.org/dc/dcmitype/StillImage" />
        <dc:title></dc:title>
      </cc:Work>
    </rdf:RDF>
  </metadata>
  <defs
     id="defs6" />
  <image
     xlink:href="file:///media/michi/arch/home/michi/broken-art/selection_pngs/27413-19.png"
     x="0"
     y="0"
     width="465"
     height="762"
     id="image10" />
  <g
     id="g2987">
    <path
       d="M 0,381 0,0 232.5,0 465,0 l 0,381 0,381 -232.5,0 L 0,762 0,381 z"
       id="path2997"
       style="fill:#fefd7e" />
    <path
       d="M 0,381 0,0 65.5,0 131,0 l 0,4.4068817 c 0,4.0792441 0.38202,4.7267251 5.13832,8.7089283 2.82608,2.366126 5.71109,5.670529 6.41114,7.343119 0.70004,1.672589 5.16721,7.091071 9.92704,12.041071 9.58273,9.965594 11.8752,12.814826 15.81758,19.659115 2.35199,4.083238 6.89589,9.583314 18.87003,22.840885 5.67838,6.287006 14.21752,16.594455 20.33589,24.547091 6.60812,8.589209 9.00219,11.279099 12,13.482739 1.1,0.80859 3.73282,3.62621 5.85071,6.26137 2.11789,2.63516 11.38282,12.38973 20.58872,21.67681 13.67905,13.79967 17.29862,18.05924 19.80557,23.3075 2.07775,4.34974 4.59423,7.68074 7.79889,10.3232 5.64264,4.65273 8.87685,7.77025 17.25679,16.63413 3.46538,3.66551 7.06538,6.93009 8,7.25463 0.93463,0.32454 3.83714,2.93513 6.45002,5.8013 6.58992,7.22874 11.77632,12.55611 16.52878,16.97805 2.22661,2.07176 5.6254,6.14271 7.55287,9.04657 1.92747,2.90386 6.02953,7.95879 9.11568,11.23318 3.08615,3.27439 6.5071,7.64112 7.60211,9.70385 2.03619,3.83566 6.72425,7.37499 13.54162,10.22347 2.10927,0.88131 4.52651,2.21403 5.37164,2.9616 2.06668,1.82811 9.58683,6.18888 14.67643,8.51056 2.27691,1.03864 4.42617,2.35173 4.77613,2.91798 0.34997,0.56625 2.70637,2.42662 5.23645,4.13415 7.16981,4.83885 15.38625,12.22574 16.9646,15.25182 0.78889,1.5125 2.09511,2.75 2.90272,2.75 1.35435,0 12.87462,5.77045 39.0536,19.56176 C 454.53626,320.70309 460.1853,323 461.94815,323 L 465,323 465,542.5 465,762 232.5,762 0,762 0,381 z"
       id="path2995"
       style="fill:#beadfe" />
    <path
       d="M 0,381 0,0 11.5,0 23,0 23,3.3631581 c 0,2.7416591 0.916064,4.2200292 4.957159,7.9999999 C 30.683596,13.913421 33.30518,16 33.782901,16 c 1.219866,0 10.535422,7.232868 19.96319,15.5 4.390508,3.85 10.325493,8.575 13.188856,10.5 7.495924,5.039409 26.77779,21.47135 31.039367,26.451644 4.049266,4.732176 8.138986,8.740473 14.025686,13.746425 3.025,2.572412 8.65,7.637571 12.5,11.255908 3.85,3.618337 8.93913,8.033923 11.30918,9.812413 2.37005,1.77848 6.58266,5.03361 9.36134,7.23361 2.77869,2.2 6.46456,4.87497 8.19082,5.94437 1.72626,1.06941 6.40098,4.58567 10.38827,7.81392 3.98728,3.22824 10.8011,8.50282 15.14183,11.72127 4.34072,3.21845 10.9784,8.71382 14.75039,12.21193 10.55346,9.7872 29.48462,25.33684 33.10735,27.19366 7.9517,4.07563 42.8441,37.01516 45.82992,43.2649 1.65295,3.45984 2.91709,4.33045 12.38091,8.52671 5.79699,2.57038 11.66499,4.98638 13.03999,5.36888 1.375,0.3825 5.07394,1.76621 8.21987,3.07491 4.03625,1.67907 7.64198,2.37945 12.25,2.37945 l 6.53013,0 0,-4.02827 c 0,-3.75388 -0.65691,-4.69044 -9.64438,-13.75 -5.30441,-5.34695 -11.49191,-11.63055 -13.75,-13.96355 -2.25809,-2.333 -4.41235,-4.2455 -4.78725,-4.25 C 295.81418,201.99613 281,186.96211 281,185.95508 281,184.72283 272.43509,179 270.59088,179 c -4.50017,0 -28.89798,-9.7895 -37.40496,-15.00855 -2.57726,-1.58115 -6.59842,-3.88083 -8.93592,-5.11039 -3.97665,-2.09178 -5.30342,-4.11197 -3.45204,-5.25619 0.43888,-0.27124 5.49429,2.1772 11.23426,5.44098 9.90572,5.63246 10.78026,5.93415 17.20204,5.93415 l 6.76574,0 0,-4.29058 c 0,-4.02004 -0.49798,-4.79247 -7.8976,-12.25 -4.34367,-4.37768 -9.85617,-9.80651 -12.25,-12.06406 -2.39382,-2.25754 -7.65297,-7.9768 -11.687,-12.70946 -4.03403,-4.73266 -8.10826,-8.85038 -9.05383,-9.15049 -0.94557,-0.30011 -2.93948,-2.47616 -4.43091,-4.83566 -1.49142,-2.3595 -4.3892,-6.01709 -6.43949,-8.12797 -2.05029,-2.110882 -4.63081,-5.33186 -5.73449,-7.157731 -1.80059,-2.978819 -6.38882,-8.355275 -24.51369,-28.724977 -6.49042,-7.294285 -9.44823,-11.397315 -10.41739,-14.450868 -0.38807,-1.222712 -3.93884,-5.607288 -7.89059,-9.743502 C 145.06244,30.37629 140.3267,24.811135 138.98836,21.873794 138.331,20.431055 135.87115,17.644031 133.52203,15.680405 131.1729,13.71678 127.39097,9.3853876 125.11773,6.0550887 L 120.98456,0 125.99228,0 131,0 l 0,4.4068817 c 0,4.0792441 0.38202,4.7267251 5.13832,8.7089283 2.82608,2.366126 5.71109,5.670529 6.41114,7.343119 0.70004,1.672589 5.16721,7.091071 9.92704,12.041071 9.58273,9.965594 11.8752,12.814826 15.81758,19.659115 2.35199,4.083238 6.89589,9.583314 18.87003,22.840885 5.67838,6.287006 14.21752,16.594455 20.33589,24.547091 6.60812,8.589209 9.00219,11.279099 12,13.482739 1.1,0.80859 3.73282,3.62621 5.85071,6.26137 2.11789,2.63516 11.38282,12.38973 20.58872,21.67681 13.67905,13.79967 17.29862,18.05924 19.80557,23.3075 2.07775,4.34974 4.59423,7.68074 7.79889,10.3232 5.64264,4.65273 8.87685,7.77025 17.25679,16.63413 3.46538,3.66551 7.06538,6.93009 8,7.25463 0.93463,0.32454 3.83714,2.93513 6.45002,5.8013 6.58992,7.22874 11.77632,12.55611 16.52878,16.97805 2.22661,2.07176 5.6254,6.14271 7.55287,9.04657 1.92747,2.90386 6.02953,7.95879 9.11568,11.23318 3.08615,3.27439 6.5071,7.64112 7.60211,9.70385 2.03619,3.83566 6.72425,7.37499 13.54162,10.22347 2.10927,0.88131 4.52651,2.21403 5.37164,2.9616 2.06668,1.82811 9.58683,6.18888 14.67643,8.51056 2.27691,1.03864 4.42617,2.35173 4.77613,2.91798 0.34997,0.56625 2.70637,2.42662 5.23645,4.13415 7.16981,4.83885 15.38625,12.22574 16.9646,15.25182 0.78889,1.5125 2.09511,2.75 2.90272,2.75 1.35435,0 12.87462,5.77045 39.0536,19.56176 C 454.53626,320.70309 460.1853,323 461.94815,323 L 465,323 465,542.5 465,762 232.5,762 0,762 0,381 z"
       id="path2993"
       style="fill:#7eda54" />
    <path
       d="m 452,323.54661 c -6.875,-3.50655 -15.875,-8.18814 -20,-10.40355 C 416.66972,304.90965 412.6278,303 410.53141,303 c -2.69532,0 -4.92652,-1.73016 -6.67423,-5.17545 C 401.4965,293.17088 384.47435,279.4085 377,276.11056 c -1.375,-0.6067 -5.2,-2.84925 -8.5,-4.98345 -7.29881,-4.72033 -55.46131,-28.97962 -64.5,-32.48843 -3.575,-1.38781 -7.83777,-2.8482 -9.47281,-3.24532 -1.63505,-0.39711 -6.01007,-2.22307 -9.72227,-4.05769 C 281.09272,229.50105 276.50098,228 274.60106,228 c -2.35028,0 -3.55776,-0.50662 -3.77774,-1.58501 -0.3205,-1.57121 -20.55024,-10.3317 -23.98754,-10.38782 -3.91204,-0.0639 -34.12622,-12.9616 -39.75797,-16.97176 -1.50991,-1.07515 -6.96817,-3.35781 -12.12946,-5.07257 -10.72001,-3.56156 -24.72973,-10.11663 -60.01951,-28.08281 -6.91413,-3.52002 -14.53939,-7.30003 -16.945,-8.40003 -2.40562,-1.1 -7.4282,-4.25088 -11.16129,-7.00195 -3.73309,-2.75107 -11.632835,-7.64508 -17.554992,-10.87558 C 83.345401,136.39198 77.825,133.16756 77,132.45711 75.297345,130.99087 51.928531,119 50.773644,119 c -0.414253,0 -3.79529,-1.94086 -7.513415,-4.31303 C 32.077193,107.55218 7.5161048,96 3.5298776,96 L 0,96 0,48 0,0 11.5,0 23,0 23,3.3631581 c 0,2.7416591 0.916064,4.2200292 4.957159,7.9999999 C 30.683596,13.913421 33.30518,16 33.782901,16 c 1.219866,0 10.535422,7.232868 19.96319,15.5 4.390508,3.85 10.325493,8.575 13.188856,10.5 7.495924,5.039409 26.77779,21.47135 31.039367,26.451644 4.049266,4.732176 8.138986,8.740473 14.025686,13.746425 3.025,2.572412 8.65,7.637571 12.5,11.255908 3.85,3.618337 8.93913,8.033923 11.30918,9.812413 2.37005,1.77848 6.58266,5.03361 9.36134,7.23361 2.77869,2.2 6.46456,4.87497 8.19082,5.94437 1.72626,1.06941 6.40098,4.58567 10.38827,7.81392 3.98728,3.22824 10.8011,8.50282 15.14183,11.72127 4.34072,3.21845 10.9784,8.71382 14.75039,12.21193 10.55346,9.7872 29.48462,25.33684 33.10735,27.19366 7.9517,4.07563 42.8441,37.01516 45.82992,43.2649 1.65295,3.45984 2.91709,4.33045 12.38091,8.52671 5.79699,2.57038 11.66499,4.98638 13.03999,5.36888 1.375,0.3825 5.07394,1.76621 8.21987,3.07491 4.03625,1.67907 7.64198,2.37945 12.25,2.37945 l 6.53013,0 0,-4.02827 c 0,-3.75388 -0.65691,-4.69044 -9.64438,-13.75 -5.30441,-5.34695 -11.49191,-11.63055 -13.75,-13.96355 -2.25809,-2.333 -4.41235,-4.2455 -4.78725,-4.25 C 295.81418,201.99613 281,186.96211 281,185.95508 281,184.72283 272.43509,179 270.59088,179 c -4.50017,0 -28.89798,-9.7895 -37.40496,-15.00855 -2.57726,-1.58115 -6.59842,-3.88083 -8.93592,-5.11039 -3.97665,-2.09178 -5.30342,-4.11197 -3.45204,-5.25619 0.43888,-0.27124 5.49429,2.1772 11.23426,5.44098 9.90572,5.63246 10.78026,5.93415 17.20204,5.93415 l 6.76574,0 0,-4.29058 c 0,-4.02004 -0.49798,-4.79247 -7.8976,-12.25 -4.34367,-4.37768 -9.85617,-9.80651 -12.25,-12.06406 -2.39382,-2.25754 -7.65297,-7.9768 -11.687,-12.70946 -4.03403,-4.73266 -8.10826,-8.85038 -9.05383,-9.15049 -0.94557,-0.30011 -2.93948,-2.47616 -4.43091,-4.83566 -1.49142,-2.3595 -4.3892,-6.01709 -6.43949,-8.12797 -2.05029,-2.110882 -4.63081,-5.33186 -5.73449,-7.157731 -1.80059,-2.978819 -6.38882,-8.355275 -24.51369,-28.724977 -6.49042,-7.294285 -9.44823,-11.397315 -10.41739,-14.450868 -0.38807,-1.222712 -3.93884,-5.607288 -7.89059,-9.743502 C 145.06244,30.37629 140.3267,24.811135 138.98836,21.873794 138.331,20.431055 135.87115,17.644031 133.52203,15.680405 131.1729,13.71678 127.39097,9.3853876 125.11773,6.0550887 L 120.98456,0 125.99228,0 131,0 l 0,4.4068817 c 0,4.0792441 0.38202,4.7267251 5.13832,8.7089283 2.82608,2.366126 5.71109,5.670529 6.41114,7.343119 0.70004,1.672589 5.16721,7.091071 9.92704,12.041071 9.58273,9.965594 11.8752,12.814826 15.81758,19.659115 2.35199,4.083238 6.89589,9.583314 18.87003,22.840885 5.67838,6.287006 14.21752,16.594455 20.33589,24.547091 6.60812,8.589209 9.00219,11.279099 12,13.482739 1.1,0.80859 3.73282,3.62621 5.85071,6.26137 2.11789,2.63516 11.38282,12.38973 20.58872,21.67681 13.67905,13.79967 17.29862,18.05924 19.80557,23.3075 2.07775,4.34974 4.59423,7.68074 7.79889,10.3232 5.64264,4.65273 8.87685,7.77025 17.25679,16.63413 3.46538,3.66551 7.06538,6.93009 8,7.25463 0.93463,0.32454 3.89323,2.99122 6.57467,5.92595 6.81542,7.45921 11.6883,12.46554 16.40413,16.8534 2.22661,2.07176 5.6254,6.14271 7.55287,9.04657 1.92747,2.90386 6.02953,7.95879 9.11568,11.23318 3.08615,3.27439 6.5071,7.64112 7.60211,9.70385 2.03619,3.83566 6.72425,7.37499 13.54162,10.22347 2.10927,0.88131 4.52651,2.21403 5.37164,2.9616 2.06668,1.82811 9.58683,6.18888 14.67643,8.51056 2.27691,1.03864 4.42617,2.35173 4.77613,2.91798 0.34997,0.56625 2.70637,2.42662 5.23645,4.13415 7.16981,4.83885 15.38625,12.22574 16.9646,15.25182 0.78889,1.5125 2.09511,2.75 2.90272,2.75 1.35435,0 12.87462,5.77045 39.0536,19.56176 5.96293,3.14133 11.61197,5.43824 13.37482,5.43824 2.82116,0 3.05185,0.26456 3.05185,3.5 0,1.925 -0.1125,3.48248 -0.25,3.46107 -0.1375,-0.0214 -5.875,-2.90792 -12.75,-6.41446 z"
       id="path2991"
       style="fill:#3ed77e" />
    <path
       d="m 452,323.54661 c -6.875,-3.50655 -15.875,-8.18814 -20,-10.40355 C 416.66972,304.90965 412.6278,303 410.53141,303 c -2.69532,0 -4.92652,-1.73016 -6.67423,-5.17545 C 401.4965,293.17088 384.47435,279.4085 377,276.11056 c -1.375,-0.6067 -5.2,-2.84925 -8.5,-4.98345 -7.29881,-4.72033 -55.46131,-28.97962 -64.5,-32.48843 -3.575,-1.38781 -7.83777,-2.8482 -9.47281,-3.24532 -1.63505,-0.39711 -6.01007,-2.22307 -9.72227,-4.05769 C 281.09272,229.50105 276.50098,228 274.60106,228 c -2.35028,0 -3.55776,-0.50662 -3.77774,-1.58501 -0.3205,-1.57121 -20.55024,-10.3317 -23.98754,-10.38782 -3.91204,-0.0639 -34.12622,-12.9616 -39.75797,-16.97176 -1.50991,-1.07515 -6.96817,-3.35781 -12.12946,-5.07257 -10.72001,-3.56156 -24.72973,-10.11663 -60.01951,-28.08281 -6.91413,-3.52002 -14.53939,-7.30003 -16.945,-8.40003 -2.40562,-1.1 -7.4282,-4.25088 -11.16129,-7.00195 -3.73309,-2.75107 -11.632835,-7.64508 -17.554992,-10.87558 C 83.345401,136.39198 77.825,133.16756 77,132.45711 75.297345,130.99087 51.928531,119 50.773644,119 c -0.414253,0 -3.79529,-1.94086 -7.513415,-4.31303 C 32.077193,107.55218 7.5161048,96 3.5298776,96 0.00892865,96 0,95.988528 0,91.464816 c 0,-4.156429 0.15975095,-4.449687 1.912847,-3.511459 1.0520658,0.563049 2.0645658,1.410351 2.25,1.882894 0.1854341,0.472544 7.935357,4.552704 17.22205,9.067024 9.286694,4.514315 19.186694,9.664175 22,11.444125 C 46.198204,112.12735 54.8,116.67667 62.5,120.457 c 7.7,3.78032 15.35,7.87058 17,9.08946 1.65,1.21887 6.6,4.13159 11,6.4727 4.4,2.34111 11.825,6.84645 16.5,10.01185 6.55249,4.43665 38.82865,21.43296 61.65894,32.46899 1.13778,0.55 5.16748,2.5197 8.95488,4.37711 3.7874,1.85741 11.67997,5.05442 17.53904,7.10446 5.85908,2.05004 12.83408,5.06847 15.5,6.70763 2.66593,1.63916 9.12292,4.85466 14.34888,7.14555 8.28066,3.62996 10.43324,4.16525 16.75,4.16525 l 7.24826,0 0,-4.38534 c 0,-4.09109 -0.42091,-4.77887 -6.2727,-10.25 -8.18267,-7.65038 -14.50424,-12.73984 -18.2273,-14.67468 -1.65,-0.85749 -4.125,-2.60232 -5.5,-3.8774 -1.375,-1.27508 -6.05329,-5.24203 -10.3962,-8.81545 C 204.26089,162.42371 196.46024,155.675 191.26903,151 c -5.19122,-4.675 -11.15575,-9.66202 -13.25452,-11.08226 -2.09877,-1.42024 -7.99017,-5.92024 -13.092,-10 C 159.82068,125.83798 153.7219,121.15 151.36968,119.5 c -2.35223,-1.65 -6.82779,-4.8 -9.94568,-7 -3.1179,-2.2 -8.8763,-6.92519 -12.79645,-10.50042 C 124.7074,98.424345 117.92914,92.349345 113.56475,88.499577 106.45019,82.223922 98.217194,74.284977 95.5,71.080037 93.35403,68.548859 82.82613,59 82.1814,59 81.806142,59 79.487331,57.161051 77.028488,54.913447 74.569645,52.665843 67.594845,47.031929 61.528932,42.393639 55.463019,37.755349 47.575,31.452875 44,28.388143 40.425,25.32341 35.25,21.340916 32.5,19.538157 26.960146,15.906511 13,2.6597478 13,1.0346345 13,0.45973977 15.22175,0 18,0 l 5,0 0,3.3631581 c 0,2.7416591 0.916064,4.2200292 4.957159,7.9999999 C 30.683596,13.913421 33.30518,16 33.782901,16 c 1.219866,0 10.535422,7.232868 19.96319,15.5 4.390508,3.85 10.325493,8.575 13.188856,10.5 7.495924,5.039409 26.77779,21.47135 31.039367,26.451644 4.049266,4.732176 8.138986,8.740473 14.025686,13.746425 3.025,2.572412 8.65,7.637571 12.5,11.255908 3.85,3.618337 8.93913,8.033923 11.30918,9.812413 2.37005,1.77848 6.58266,5.03361 9.36134,7.23361 2.77869,2.2 6.46456,4.87497 8.19082,5.94437 1.72626,1.06941 6.40098,4.58567 10.38827,7.81392 3.98728,3.22824 10.8011,8.50282 15.14183,11.72127 4.34072,3.21845 10.9784,8.71382 14.75039,12.21193 10.55346,9.7872 29.48462,25.33684 33.10735,27.19366 7.9517,4.07563 42.8441,37.01516 45.82992,43.2649 1.65295,3.45984 2.91709,4.33045 12.38091,8.52671 5.79699,2.57038 11.66499,4.98638 13.03999,5.36888 1.375,0.3825 5.07394,1.76621 8.21987,3.07491 4.03625,1.67907 7.64198,2.37945 12.25,2.37945 l 6.53013,0 0,-4.02827 c 0,-3.75388 -0.65691,-4.69044 -9.64438,-13.75 -5.30441,-5.34695 -11.49191,-11.63055 -13.75,-13.96355 -2.25809,-2.333 -4.41235,-4.2455 -4.78725,-4.25 C 295.81418,201.99613 281,186.96211 281,185.95508 281,184.72283 272.43509,179 270.59088,179 c -4.50017,0 -28.89798,-9.7895 -37.40496,-15.00855 -2.57726,-1.58115 -6.59842,-3.88083 -8.93592,-5.11039 -3.97665,-2.09178 -5.30342,-4.11197 -3.45204,-5.25619 0.43888,-0.27124 5.49429,2.1772 11.23426,5.44098 9.90572,5.63246 10.78026,5.93415 17.20204,5.93415 l 6.76574,0 0,-4.29058 c 0,-4.02004 -0.49798,-4.79247 -7.8976,-12.25 -4.34367,-4.37768 -9.85617,-9.80651 -12.25,-12.06406 -2.39382,-2.25754 -7.65297,-7.9768 -11.687,-12.70946 -4.03403,-4.73266 -8.10826,-8.85038 -9.05383,-9.15049 -0.94557,-0.30011 -2.93948,-2.47616 -4.43091,-4.83566 -1.49142,-2.3595 -4.3892,-6.01709 -6.43949,-8.12797 -2.05029,-2.110882 -4.63081,-5.33186 -5.73449,-7.157731 -1.80059,-2.978819 -6.38882,-8.355275 -24.51369,-28.724977 -6.49042,-7.294285 -9.44823,-11.397315 -10.41739,-14.450868 -0.38807,-1.222712 -3.93884,-5.607288 -7.89059,-9.743502 C 145.06244,30.37629 140.3267,24.811135 138.98836,21.873794 138.331,20.431055 135.87115,17.644031 133.52203,15.680405 131.1729,13.71678 127.39097,9.3853876 125.11773,6.0550887 L 120.98456,0 125.99228,0 131,0 l 0,4.4068817 c 0,4.0792441 0.38202,4.7267251 5.13832,8.7089283 2.82608,2.366126 5.71109,5.670529 6.41114,7.343119 0.70004,1.672589 5.16721,7.091071 9.92704,12.041071 9.58273,9.965594 11.8752,12.814826 15.81758,19.659115 2.35199,4.083238 6.89589,9.583314 18.87003,22.840885 5.67838,6.287006 14.21752,16.594455 20.33589,24.547091 6.60812,8.589209 9.00219,11.279099 12,13.482739 1.1,0.80859 3.73282,3.62621 5.85071,6.26137 2.11789,2.63516 11.38282,12.38973 20.58872,21.67681 13.67905,13.79967 17.29862,18.05924 19.80557,23.3075 2.07775,4.34974 4.59423,7.68074 7.79889,10.3232 5.64264,4.65273 8.87685,7.77025 17.25679,16.63413 3.46538,3.66551 7.06538,6.93009 8,7.25463 0.93463,0.32454 3.89323,2.99122 6.57467,5.92595 6.81542,7.45921 11.6883,12.46554 16.40413,16.8534 2.22661,2.07176 5.6254,6.14271 7.55287,9.04657 1.92747,2.90386 6.02953,7.95879 9.11568,11.23318 3.08615,3.27439 6.5071,7.64112 7.60211,9.70385 2.03619,3.83566 6.72425,7.37499 13.54162,10.22347 2.10927,0.88131 4.52651,2.21403 5.37164,2.9616 2.06668,1.82811 9.58683,6.18888 14.67643,8.51056 2.27691,1.03864 4.42617,2.35173 4.77613,2.91798 0.34997,0.56625 2.70637,2.42662 5.23645,4.13415 7.16981,4.83885 15.38625,12.22574 16.9646,15.25182 0.78889,1.5125 2.09511,2.75 2.90272,2.75 1.35435,0 12.87462,5.77045 39.0536,19.56176 5.96293,3.14133 11.61197,5.43824 13.37482,5.43824 2.82116,0 3.05185,0.26456 3.05185,3.5 0,1.925 -0.1125,3.48248 -0.25,3.46107 -0.1375,-0.0214 -5.875,-2.90792 -12.75,-6.41446 z"
       id="path2989"
       style="fill:#000000" />
  </g>
</svg>
