<?xml version="1.0" encoding="UTF-8" standalone="no"?>
<!-- Created with Inkscape (http://www.inkscape.org/) -->

<svg
   xmlns:dc="http://purl.org/dc/elements/1.1/"
   xmlns:cc="http://creativecommons.org/ns#"
   xmlns:rdf="http://www.w3.org/1999/02/22-rdf-syntax-ns#"
   xmlns:svg="http://www.w3.org/2000/svg"
   xmlns="http://www.w3.org/2000/svg"
   xmlns:xlink="http://www.w3.org/1999/xlink"
   version="1.1"
   width="444"
   height="792"
   id="svg2">
  <metadata
     id="metadata8">
    <rdf:RDF>
      <cc:Work
         rdf:about="">
        <dc:format>image/svg+xml</dc:format>
        <dc:type
           rdf:resource="http://purl.org/dc/dcmitype/StillImage" />
        <dc:title></dc:title>
      </cc:Work>
    </rdf:RDF>
  </metadata>
  <defs
     id="defs6" />
  <image
     xlink:href="file:///media/michi/arch/home/michi/broken-art/selection_pngs/44491-21.png"
     x="0"
     y="0"
     width="444"
     height="792"
     id="image10" />
  <g
     id="g2987">
    <path
       d="M 0,396 0,0 l 222,0 222,0 0,396 0,396 -222,0 -222,0 0,-396 z"
       id="path2993"
       style="fill:#fef454" />
    <path
       d="m 440.5,157.32595 c -1.65,-0.2059 -6.15,-1.01171 -10,-1.79067 -3.85,-0.77896 -9.025,-1.69091 -11.5,-2.02654 -2.475,-0.33564 -8.1,-1.24162 -12.5,-2.01329 -4.4,-0.77168 -12.275,-2.11185 -17.5,-2.97815 -5.225,-0.86631 -11.525,-2.02021 -14,-2.56424 -2.475,-0.54402 -9.45,-1.37378 -15.5,-1.84389 -6.05,-0.47012 -16.93945,-2.24968 -24.19877,-3.95459 -7.25932,-1.70491 -16.25932,-3.58142 -20,-4.17002 -12.02891,-1.89279 -48.81688,-10.58744 -71.80123,-16.96987 -6.05,-1.68 -13.25,-3.64595 -16,-4.36877 -2.75,-0.72282 -7.04061,-2.25596 -9.53469,-3.40698 -2.49408,-1.15101 -5.73812,-2.3948 -7.20898,-2.76396 -1.47086,-0.36916 -3.19785,-1.30206 -3.83776,-2.07309 C 206.27867,105.63085 204.4418,105 202.83665,105 201.2315,105 196.8991,104.05984 193.2091,102.91076 183.2282,99.802661 155.33343,90.65856 140.15388,85.518887 132.81352,83.033499 126.37633,81 125.84902,81 c -0.52731,0 -2.89815,-0.883501 -5.26854,-1.963335 -2.37038,-1.079834 -7.85819,-2.696091 -12.19513,-3.591682 C 104.04841,74.549393 99.375,73.218719 98,72.48793 94.86334,70.820851 86.89086,68.1847 81,66.866774 78.525,66.313058 73.8,65.042521 70.5,64.043359 67.2,63.044198 61.8,61.662469 58.5,60.972852 55.2,60.283235 46.65,57.72239 39.5,55.282085 22.931381,49.627193 17.326446,48.234555 7.75,47.393276 L 0,46.712448 0,23.356224 0,0 l 222,0 222,0 0,79 c 0,43.45 -0.1125,78.93258 -0.25,78.85017 -0.1375,-0.0824 -1.6,-0.31831 -3.25,-0.52422 z"
       id="path2991"
       style="fill:#7ef07e" />
    <path
       d="m 440.5,157.32595 c -1.65,-0.2059 -6.15,-1.01171 -10,-1.79067 -3.85,-0.77896 -9.025,-1.69091 -11.5,-2.02654 -2.475,-0.33564 -8.1,-1.24162 -12.5,-2.01329 -4.4,-0.77168 -12.275,-2.11185 -17.5,-2.97815 -5.225,-0.86631 -11.525,-2.02021 -14,-2.56424 -2.475,-0.54402 -9.45,-1.37378 -15.5,-1.84389 -6.05,-0.47012 -16.93945,-2.24968 -24.19877,-3.95459 -7.25932,-1.70491 -16.25932,-3.58142 -20,-4.17002 -12.02891,-1.89279 -48.81688,-10.58744 -71.80123,-16.96987 -6.05,-1.68 -13.25,-3.64595 -16,-4.36877 -2.75,-0.72282 -7.04061,-2.25596 -9.53469,-3.40698 -2.49408,-1.15101 -5.73812,-2.3948 -7.20898,-2.76396 -1.47086,-0.36916 -3.19785,-1.30206 -3.83776,-2.07309 C 206.27867,105.63085 204.4418,105 202.83665,105 201.2315,105 196.8991,104.05984 193.2091,102.91076 183.2282,99.802661 155.33343,90.65856 140.15388,85.518887 132.81352,83.033499 126.37633,81 125.84902,81 c -0.52731,0 -2.89815,-0.883501 -5.26854,-1.963335 -2.37038,-1.079834 -7.85819,-2.696091 -12.19513,-3.591682 C 104.04841,74.549393 99.375,73.218719 98,72.48793 94.86334,70.820851 86.89086,68.1847 81,66.866774 78.525,66.313058 73.8,65.042521 70.5,64.043359 67.2,63.044198 61.8,61.662469 58.5,60.972852 55.2,60.283235 46.65,57.72239 39.5,55.282085 22.931381,49.627193 17.326446,48.234555 7.75,47.393276 0.02721414,46.714839 0,46.702295 0,43.82104 c 0,-2.433658 0.2770489,-2.747368 1.75,-1.981574 0.9625,0.500409 4.45,1.235683 7.75,1.633941 7.844426,0.946701 26.782614,5.829895 29,7.477623 1.909426,1.418885 27.397334,8.551859 43,12.033859 2.2,0.490967 9.85,2.942339 17,5.447492 7.15,2.505154 13.78571,4.557704 14.74602,4.561222 1.69556,0.0062 12.21591,3.258012 16.25398,5.024042 1.1,0.481079 4.7,1.633472 8,2.560873 3.3,0.927401 8.7,2.740768 12,4.029704 3.3,1.288936 13.2,4.640525 22,7.447977 8.8,2.807451 19.3831,6.193309 23.518,7.524129 4.1349,1.330822 8.54575,2.419672 9.80188,2.419672 1.25614,0 3.94804,0.86603 5.982,1.92452 4.59915,2.39341 15.38189,6.46129 20.69812,7.80852 2.2,0.55753 8.275,2.23466 13.5,3.72698 5.225,1.49231 11.975,3.32807 15,4.07947 3.025,0.7514 10,2.50757 15.5,3.9026 5.5,1.39503 21.25,4.82447 35,7.62097 13.75,2.79651 28.375,5.90496 32.5,6.90767 4.125,1.00272 12.225,2.1189 18,2.48042 5.775,0.36151 12.75,1.29038 15.5,2.06415 2.75,0.77377 10.175,2.11261 16.5,2.97522 6.325,0.8626 13.08002,1.99352 15.01115,2.51315 3.67768,0.9896 23.0876,3.92462 31.23885,4.7237 4.21998,0.4137 4.75,0.73385 4.75,2.86914 0,1.32192 -0.1125,2.33607 -0.25,2.25366 -0.1375,-0.0824 -1.6,-0.31831 -3.25,-0.52422 z"
       id="path2989"
       style="fill:#000000" />
  </g>
</svg>
