<?xml version="1.0" encoding="UTF-8" standalone="no"?>
<!-- Created with Inkscape (http://www.inkscape.org/) -->

<svg
   xmlns:dc="http://purl.org/dc/elements/1.1/"
   xmlns:cc="http://creativecommons.org/ns#"
   xmlns:rdf="http://www.w3.org/1999/02/22-rdf-syntax-ns#"
   xmlns:svg="http://www.w3.org/2000/svg"
   xmlns="http://www.w3.org/2000/svg"
   xmlns:xlink="http://www.w3.org/1999/xlink"
   version="1.1"
   width="460"
   height="781"
   id="svg2">
  <metadata
     id="metadata8">
    <rdf:RDF>
      <cc:Work
         rdf:about="">
        <dc:format>image/svg+xml</dc:format>
        <dc:type
           rdf:resource="http://purl.org/dc/dcmitype/StillImage" />
        <dc:title></dc:title>
      </cc:Work>
    </rdf:RDF>
  </metadata>
  <defs
     id="defs6" />
  <image
     xlink:href="file:///media/michi/arch/home/michi/broken-art/selection_scaled_pngs/46693-943.png"
     x="0"
     y="0"
     width="460"
     height="781"
     id="image10" />
  <g
     id="g2987">
    <path
       d="M 0,390.5 0,0 230,0 460,0 460,390.5 460,781 230,781 0,781 0,390.5 z"
       id="path2999"
       style="fill:#fefefe" />
    <path
       d="M 0,390.5 0,0 230,0 460,0 460,390.5 460,781 230,781 0,781 0,390.5 z"
       id="path2997"
       style="fill:#fef97e" />
    <path
       d="M 0,390.5 0,0 230,0 460,0 460,390.5 460,781 230,781 0,781 0,390.5 z M 419.89903,774.96921 C 421.05456,772.75227 422,770.72727 422,770.46921 422,770.21114 418.65052,770 414.5567,770 c -6.55807,0 -7.62843,0.26432 -9,2.22251 -0.85618,1.22237 -1.5567,3.24737 -1.5567,4.5 0,2.14991 0.38647,2.27749 6.89903,2.27749 l 6.89904,0 2.10096,-4.03079 z"
       id="path2995"
       style="fill:#bea0fe" />
    <path
       d="M 0,390.5 0,0 l 171.03444,0 171.03445,0 -0.6151,5.25 c -0.3383,2.8875 -0.86591,5.925 -1.17247,6.75 -0.30655,0.825 -0.88712,11.625 -1.29014,24 -0.44284,13.597398 -1.54496,28.039397 -2.78544,36.5 -2.36999,16.164293 -3.73905,59.68704 -3.586,114 0.1098,38.96708 1.75457,92.67859 2.8945,94.52304 1.05193,1.70207 2.36349,26.87638 3.43734,65.97696 0.74242,27.03277 2.33461,47.7919 4.56356,59.5 0.31412,1.65 0.9902,7.67978 1.50239,13.39951 0.51219,5.71973 1.57605,12.24473 2.36413,14.5 1.986,5.68338 5.24536,21.8939 7.15392,35.58023 0.88047,6.31385 1.96501,11.93885 2.41009,12.5 1.70241,2.14637 6.26155,23.96233 7.52758,36.02026 0.86298,8.21922 2.52051,17.58962 3.53779,20 2.82824,6.70134 6.14674,19.49523 7.52208,29 0.87543,6.05 2.1888,12.8 2.91859,15 0.72979,2.2 2.08939,7.45381 3.02132,11.67514 0.97292,4.407 2.29748,7.90656 3.1107,8.21862 0.77895,0.29891 1.41627,1.47552 1.41627,2.61469 0,1.13918 0.83707,3.7408 1.86016,5.78139 1.02308,2.04059 3.28059,8.66016 5.01667,14.71016 1.73609,6.05 4.7258,14.0254 6.64382,17.7231 1.91801,3.69771 4.45247,9.32271 5.63214,12.5 1.17967,3.1773 4.08365,9.37833 6.4533,13.78007 2.36965,4.40174 5.00824,9.98657 5.86353,12.41074 0.8553,2.42416 3.31427,8.04773 5.46439,12.49683 2.15011,4.44909 4.6879,10.00176 5.63952,12.33926 0.95162,2.3375 2.04605,4.25 2.43206,4.25 0.38602,0 2.86827,4.3875 5.51612,9.75 2.64785,5.3625 5.11143,9.975 5.47462,10.25 0.36319,0.275 1.35095,1.85 2.19502,3.5 6.97503,13.63481 9.22614,16.5 12.96364,16.5 l 2.84501,0 0,15 0,15 -230,0 L 0,781 0,390.5 z M 419.89903,774.96921 C 421.05456,772.75227 422,770.72727 422,770.46921 422,770.21114 418.65052,770 414.5567,770 c -6.55807,0 -7.62843,0.26432 -9,2.22251 -0.85618,1.22237 -1.5567,3.24737 -1.5567,4.5 0,2.14991 0.38647,2.27749 6.89903,2.27749 l 6.89904,0 2.10096,-4.03079 z"
       id="path2993"
       style="fill:#7ede54" />
    <path
       d="M 0,390.5 0,0 l 171.03444,0 171.03445,0 -0.6151,5.25 c -0.3383,2.8875 -0.86591,5.925 -1.17247,6.75 -0.30655,0.825 -0.88712,11.625 -1.29014,24 -0.44284,13.597398 -1.54496,28.039397 -2.78544,36.5 -2.36999,16.164293 -3.73905,59.68704 -3.586,114 0.1098,38.96708 1.75457,92.67859 2.8945,94.52304 1.05193,1.70207 2.36349,26.87638 3.43734,65.97696 0.74242,27.03277 2.33461,47.7919 4.56356,59.5 0.31412,1.65 0.9902,7.67978 1.50239,13.39951 0.51219,5.71973 1.57605,12.24473 2.36413,14.5 1.986,5.68338 5.24536,21.8939 7.15392,35.58023 0.88047,6.31385 1.96501,11.93885 2.41009,12.5 1.70241,2.14637 6.26155,23.96233 7.52758,36.02026 0.86298,8.21922 2.52051,17.58962 3.53779,20 2.82824,6.70134 6.14674,19.49523 7.52208,29 0.87543,6.05 2.1888,12.8 2.91859,15 0.72979,2.2 2.08939,7.45381 3.02132,11.67514 0.97292,4.407 2.29748,7.90656 3.1107,8.21862 0.77895,0.29891 1.41627,1.47552 1.41627,2.61469 0,1.13918 0.83707,3.7408 1.86016,5.78139 1.02308,2.04059 3.28059,8.66016 5.01667,14.71016 1.73609,6.05 4.7258,14.0254 6.64382,17.7231 1.91801,3.69771 4.45247,9.32271 5.63214,12.5 1.17967,3.1773 4.08365,9.37833 6.4533,13.78007 2.36965,4.40174 5.00824,9.98657 5.86353,12.41074 0.8553,2.42416 3.31427,8.04773 5.46439,12.49683 2.15011,4.44909 4.6879,10.00176 5.63952,12.33926 0.95162,2.3375 2.04605,4.25 2.43206,4.25 0.38602,0 2.86827,4.3875 5.51612,9.75 2.64785,5.3625 5.11143,9.975 5.47462,10.25 0.36319,0.275 1.35095,1.85 2.19502,3.5 6.97503,13.63481 9.22614,16.5 12.96364,16.5 l 2.84501,0 0,15 0,15 -32.49076,0 -32.49075,0 3.17759,-5.25 c 5.63261,-9.30616 8.08902,-11.59492 27.80392,-25.9063 7.90293,-5.73688 8.00515,-5.92394 7.95197,-14.55189 -0.0505,-8.19623 -0.25746,-8.78683 -6.98534,-19.9363 -4.25183,-7.04615 -7.14731,-14.25414 -6.28587,-15.64798 0.34554,-0.5591 0.14374,-0.7171 -0.44846,-0.3511 -1.14802,0.70952 -4.61053,-5.9155 -8.33726,-15.95217 -1.20578,-3.24735 -2.5005,-6.12926 -2.87716,-6.40426 -0.94817,-0.69226 -6.56186,-11.94668 -7.48198,-15 -0.41435,-1.375 -3.17944,-7.491 -6.14464,-13.59112 -2.96519,-6.10011 -5.40474,-11.72511 -5.42122,-12.5 C 389.95356,635.134 388.42015,630 386.56245,624.5 l -3.37762,-10 -5.80075,-0.30612 c -8.00027,-0.42219 -9.64987,0.16513 -15.66909,5.5788 -8.71796,7.84092 -13.33929,11.41208 -17.88711,13.82235 -9.11791,4.83235 -18.4388,8.67722 -22.28691,9.19336 -3.69063,0.49502 -13.32907,5.31373 -14.57602,7.28723 -0.29427,0.46574 -2.31927,1.57982 -4.5,2.47573 -5.67641,2.33205 -21.77122,10.54423 -29.96495,15.28925 -3.85,2.22955 -11.04275,6.15987 -15.98388,8.73406 -4.94113,2.57418 -10.34113,5.70184 -12,6.95035 -4.44136,3.34269 -20.28126,11.33476 -24.96082,12.59407 -4.43918,1.19461 -12.5553,5.61558 -12.5553,6.83905 0,0.42245 -2.47643,1.54702 -5.50318,2.49905 -6.5413,2.05749 -24.67844,11.21305 -30.34569,15.31838 -2.20736,1.599 -5.25849,4.38701 -6.7803,6.19558 -1.86658,2.21831 -7.52119,5.62434 -17.37768,10.46738 -8.03592,3.9485 -15.50615,8.05262 -16.60053,9.12028 -5.87373,5.73035 -15.93188,14.08814 -19.18105,15.93844 -2.04137,1.16248 -6.07361,3.74112 -8.96055,5.7303 -2.886944,1.98918 -6.824444,4.13663 -8.750003,4.77212 C 90.406703,774.02088 90,774.55268 90,777.57755 L 90,781 45,781 0,781 0,390.5 z M 419.89903,774.96921 C 421.05456,772.75227 422,770.72727 422,770.46921 422,770.21114 418.65052,770 414.5567,770 c -6.55807,0 -7.62843,0.26432 -9,2.22251 -0.85618,1.22237 -1.5567,3.24737 -1.5567,4.5 0,2.14991 0.38647,2.27749 6.89903,2.27749 l 6.89904,0 2.10096,-4.03079 z"
       id="path2991"
       style="fill:#3e057e" />
    <path
       d="m 83.990743,775.50937 c 2.997389,-3.03509 7.007121,-5.99712 8.96584,-6.62317 1.948879,-0.6229 4.443417,-1.88863 5.543417,-2.81275 1.1,-0.92411 4.925,-3.43056 8.5,-5.56988 3.575,-2.13933 10.93021,-7.85281 16.34491,-12.69663 C 128.7596,742.96312 133.65981,739 134.23425,739 c 0.57445,0 6.61294,-2.75175 13.41889,-6.11499 7.95885,-3.93298 13.08724,-7.11603 14.37202,-8.92034 3.24942,-4.56339 13.56898,-11.12992 27.97484,-17.80091 7.425,-3.43833 14.175,-6.69296 15,-7.23251 2.57885,-1.68656 13.16126,-6.63469 21.4365,-10.02328 4.36508,-1.78744 10.81334,-5.21945 14.32947,-7.62668 3.51613,-2.40724 8.92941,-5.49854 12.02951,-6.86955 3.1001,-1.37101 5.87684,-2.81202 6.17054,-3.20224 0.58426,-0.77631 1.89765,-1.54317 11.79944,-6.8895 3.65506,-1.97349 7.26023,-4.20283 8.01148,-4.95408 0.75126,-0.75126 1.75323,-1.36592 2.2266,-1.36592 1.63017,0 22.32762,-10.28006 28.5408,-14.17571 3.4234,-2.14646 11.22245,-5.64784 17.33123,-7.78084 12.10456,-4.22655 20.8177,-9.48903 30.62443,-18.49624 3.3,-3.03096 8.8125,-6.94583 12.25,-8.69971 l 6.25,-3.18888 0,-6.3399 c 0,-3.48694 -0.87208,-10.27263 -1.93795,-15.07931 -1.06587,-4.80667 -2.4607,-12.78941 -3.09962,-17.73941 -0.63893,-4.95 -2.22492,-11.7 -3.52443,-15 -3.39898,-8.63143 -5.14855,-16.30218 -6.95653,-30.5 -1.73016,-13.58674 -2.94688,-19.59184 -6.84237,-33.77044 -1.40085,-5.09874 -3.29256,-14.77374 -4.20381,-21.5 C 348.52405,459.0033 347.18168,451.7 346.45225,449.5 c -2.57634,-7.77043 -4.60524,-18.14368 -5.96548,-30.5 -3.17833,-28.87178 -4.54586,-39.73866 -5.50905,-43.77699 -0.56106,-2.35234 -1.22437,-21.25234 -1.47403,-42 -0.31184,-25.91474 -0.93559,-41.3228 -1.99264,-49.22301 -1.43345,-10.71324 -3.08345,-53.68501 -3.72454,-97 -0.38984,-26.33912 1.09614,-96.283734 2.20949,-104 3.06733,-21.258649 4.02715,-32.132047 4.0164,-45.5 -0.007,-9.232569 0.56462,-18.013663 1.48777,-22.837968 C 336.32508,10.351149 337,5.2886493 337,3.4120318 337,0.42683278 337.31705,0 339.53444,0 c 2.46887,0 2.51853,0.13584468 1.91935,5.25 -0.3383,2.8875 -0.86591,5.925 -1.17247,6.75 -0.30655,0.825 -0.88712,11.625 -1.29014,24 -0.44284,13.597398 -1.54496,28.039397 -2.78544,36.5 -2.36999,16.164293 -3.73905,59.68704 -3.586,114 0.1098,38.96708 1.75457,92.67859 2.8945,94.52304 1.05193,1.70207 2.36349,26.87638 3.43734,65.97696 0.74242,27.03277 2.33461,47.7919 4.56356,59.5 0.31412,1.65 0.9902,7.67978 1.50239,13.39951 0.51219,5.71973 1.57605,12.24473 2.36413,14.5 1.986,5.68338 5.24536,21.8939 7.15392,35.58023 0.88047,6.31385 1.96501,11.93885 2.41009,12.5 1.70241,2.14637 6.26155,23.96233 7.52758,36.02026 0.86298,8.21922 2.52051,17.58962 3.53779,20 2.82824,6.70134 6.14674,19.49523 7.52208,29 0.87543,6.05 2.1888,12.8 2.91859,15 0.72979,2.2 2.08939,7.45381 3.02132,11.67514 0.97292,4.407 2.29748,7.90656 3.1107,8.21862 0.77895,0.29891 1.41627,1.47552 1.41627,2.61469 0,1.13918 0.83707,3.7408 1.86016,5.78139 1.02308,2.04059 3.28059,8.66016 5.01667,14.71016 1.73609,6.05 4.7258,14.0254 6.64382,17.7231 1.91801,3.69771 4.45247,9.32271 5.63214,12.5 1.17967,3.1773 4.08365,9.37833 6.4533,13.78007 2.36965,4.40174 5.00824,9.98657 5.86353,12.41074 0.8553,2.42416 3.31427,8.04773 5.46439,12.49683 2.15011,4.44909 4.6879,10.00176 5.63952,12.33926 0.95162,2.3375 2.04605,4.25 2.43206,4.25 0.38602,0 2.86827,4.3875 5.51612,9.75 2.64785,5.3625 5.11143,9.975 5.47462,10.25 0.36319,0.275 1.35095,1.85 2.19502,3.5 6.97503,13.63481 9.22614,16.5 12.96364,16.5 l 2.84501,0 0,15 0,15 -32.49076,0 -32.49075,0 3.17759,-5.25 c 5.63261,-9.30616 8.08902,-11.59492 27.80392,-25.9063 7.90293,-5.73688 8.00515,-5.92394 7.95197,-14.55189 -0.0505,-8.19623 -0.25746,-8.78683 -6.98534,-19.9363 -4.25183,-7.04615 -7.14731,-14.25414 -6.28587,-15.64798 0.34554,-0.5591 0.14374,-0.7171 -0.44846,-0.3511 -1.14802,0.70952 -4.61053,-5.9155 -8.33726,-15.95217 -1.20578,-3.24735 -2.5005,-6.12926 -2.87716,-6.40426 -0.94817,-0.69226 -6.56186,-11.94668 -7.48198,-15 -0.41435,-1.375 -3.17944,-7.491 -6.14464,-13.59112 -2.96519,-6.10011 -5.40474,-11.72511 -5.42122,-12.5 C 389.95356,635.134 388.42015,630 386.56245,624.5 l -3.37762,-10 -5.80075,-0.30612 c -8.00027,-0.42219 -9.64987,0.16513 -15.66909,5.5788 -8.71796,7.84092 -13.33929,11.41208 -17.88711,13.82235 -9.11791,4.83235 -18.4388,8.67722 -22.28691,9.19336 -3.69063,0.49502 -13.32907,5.31373 -14.57602,7.28723 -0.29427,0.46574 -2.31927,1.57982 -4.5,2.47573 -5.67641,2.33205 -21.77122,10.54423 -29.96495,15.28925 -3.85,2.22955 -11.04275,6.15987 -15.98388,8.73406 -4.94113,2.57418 -10.34113,5.70184 -12,6.95035 -4.44136,3.34269 -20.28126,11.33476 -24.96082,12.59407 -4.43918,1.19461 -12.5553,5.61558 -12.5553,6.83905 0,0.42245 -2.47643,1.54702 -5.50318,2.49905 -6.5413,2.05749 -24.67844,11.21305 -30.34569,15.31838 -2.20736,1.599 -5.25849,4.38701 -6.7803,6.19558 -1.86658,2.21831 -7.52119,5.62434 -17.37768,10.46738 -8.03592,3.9485 -15.50615,8.05262 -16.60053,9.12028 -5.87373,5.73035 -15.93188,14.08814 -19.18105,15.93844 -2.04137,1.16248 -6.07361,3.74112 -8.96055,5.7303 -2.886944,1.98918 -6.824444,4.13663 -8.750003,4.77212 C 90.406703,774.02088 90,774.55268 90,777.57755 L 90,781 l -5.71584,0 -5.71584,0 5.422423,-5.49063 z M 419.89903,774.96921 C 421.05456,772.75227 422,770.72727 422,770.46921 422,770.21114 418.65052,770 414.5567,770 c -6.55807,0 -7.62843,0.26432 -9,2.22251 -0.85618,1.22237 -1.5567,3.24737 -1.5567,4.5 0,2.14991 0.38647,2.27749 6.89903,2.27749 l 6.89904,0 2.10096,-4.03079 z"
       id="path2989"
       style="fill:#000000" />
  </g>
</svg>
