<?xml version="1.0" encoding="UTF-8" standalone="no"?>
<!-- Created with Inkscape (http://www.inkscape.org/) -->

<svg
   xmlns:dc="http://purl.org/dc/elements/1.1/"
   xmlns:cc="http://creativecommons.org/ns#"
   xmlns:rdf="http://www.w3.org/1999/02/22-rdf-syntax-ns#"
   xmlns:svg="http://www.w3.org/2000/svg"
   xmlns="http://www.w3.org/2000/svg"
   xmlns:xlink="http://www.w3.org/1999/xlink"
   version="1.1"
   width="526"
   height="786"
   id="svg2">
  <metadata
     id="metadata8">
    <rdf:RDF>
      <cc:Work
         rdf:about="">
        <dc:format>image/svg+xml</dc:format>
        <dc:type
           rdf:resource="http://purl.org/dc/dcmitype/StillImage" />
        <dc:title></dc:title>
      </cc:Work>
    </rdf:RDF>
  </metadata>
  <defs
     id="defs6" />
  <image
     xlink:href="file:///media/michi/arch/home/michi/broken-art/selection_scaled_pngs/46693-936.png"
     x="0"
     y="0"
     width="526"
     height="786"
     id="image10" />
  <g
     id="g2987">
    <path
       d="M 0,393 0,0 l 263,0 263,0 0,393 0,393 -263,0 -263,0 0,-393 z"
       id="path3007"
       style="fill:#fec6fe" />
    <path
       d="M 0,393 0,0 82.5,0 165,0 l 0,3.3327934 c 0,3.2533627 0.13704,3.3610137 5.75,4.5168715 3.1625,0.651243 12.27716,1.8105744 20.25481,2.5762921 20.20069,1.938923 30.38009,4.751257 49.67204,13.723251 4.49728,2.091518 12.14728,5.35881 17,7.260649 21.30756,8.350669 46.21746,18.514744 57.82315,23.593782 5.11244,2.237376 11.42247,4.397679 19,6.504842 8.55591,2.379232 33.09983,12.213813 37.64952,15.085904 7.46015,4.709392 19.62753,11.079963 31.35048,16.414434 3.85,1.751922 13.975,6.562648 22.5,10.690501 18.59409,9.00336 18.22557,8.83963 24.5,10.88533 2.75,0.89661 6.9125,2.48185 9.25,3.52277 13.41216,5.97261 15.94229,6.93691 24.75,9.4329 8.77745,2.48742 18.07674,5.40294 25.8096,8.09183 3.74528,1.30232 8.80778,2.36785 11.25,2.36785 l 4.4404,0 0,324 0,324 -263,0 -263,0 0,-393 z"
       id="path3005"
       style="fill:#a9b3fe" />
    <path
       d="M 0,393 0,0 l 49,0 49,0 0,3.5 0,3.5 7.5,0 7.5,0 0,-3.5 0,-3.5 26,0 26,0 0,3.3327934 c 0,3.2533627 0.13704,3.3610137 5.75,4.5168715 3.1625,0.651243 12.27716,1.8105744 20.25481,2.5762921 20.20069,1.938923 30.38009,4.751257 49.67204,13.723251 4.49728,2.091518 12.14728,5.35881 17,7.260649 21.30756,8.350669 46.21746,18.514744 57.82315,23.593782 5.11244,2.237376 11.42247,4.397679 19,6.504842 8.55591,2.379232 33.09983,12.213813 37.64952,15.085904 7.46015,4.709392 19.62753,11.079963 31.35048,16.414434 3.85,1.751922 13.975,6.562648 22.5,10.690501 18.59409,9.00336 18.22557,8.83963 24.5,10.88533 2.75,0.89661 6.9125,2.48185 9.25,3.52277 13.41216,5.97261 15.94229,6.93691 24.75,9.4329 8.77745,2.48742 18.07674,5.40294 25.8096,8.09183 3.74528,1.30232 8.80778,2.36785 11.25,2.36785 l 4.4404,0 0,324 0,324 -263,0 -263,0 0,-393 z"
       id="path3003"
       style="fill:#54f2fe" />
    <path
       d="M 0,393 0,0 14,0 28,0 28,3.0995706 c 0,1.9360242 1.553829,5.5022249 4.139244,9.5000004 L 36.278489,19 44.139244,19 52,19 52,11.121972 C 52,4.083875 51.760112,3.0766068 49.75,1.674424 47.679168,0.22988535 49.510668,0.10072706 72.75,0.05245192 L 98,0 l 0,3.5 0,3.5 7.5,0 7.5,0 0,-3.5 0,-3.5 26,0 26,0 0,3.3327934 c 0,3.2533627 0.13704,3.3610137 5.75,4.5168715 3.1625,0.651243 12.27716,1.8105744 20.25481,2.5762921 20.20069,1.938923 30.38009,4.751257 49.67204,13.723251 4.49728,2.091518 12.14728,5.35881 17,7.260649 21.30756,8.350669 46.21746,18.514744 57.82315,23.593782 5.11244,2.237376 11.42247,4.397679 19,6.504842 8.55591,2.379232 33.09983,12.213813 37.64952,15.085904 7.46015,4.709392 19.62753,11.079963 31.35048,16.414434 3.85,1.751922 13.975,6.562648 22.5,10.690501 18.59409,9.00336 18.22557,8.83963 24.5,10.88533 2.75,0.89661 6.9125,2.48185 9.25,3.52277 13.41216,5.97261 15.94229,6.93691 24.75,9.4329 8.77745,2.48742 18.07674,5.40294 25.8096,8.09183 3.74528,1.30232 8.80778,2.36785 11.25,2.36785 l 4.4404,0 0,324 0,324 -263,0 -263,0 0,-393 z"
       id="path3001"
       style="fill:#c5e97e" />
    <path
       d="M 0,393 0,0 14,0 28,0 28,3.0995706 c 0,1.9360242 1.553829,5.5022249 4.139244,9.5000004 L 36.278489,19 44.139244,19 52,19 52,11.121972 C 52,4.083875 51.760112,3.0766068 49.75,1.674424 47.679168,0.22988535 49.510668,0.10072706 72.75,0.05245192 L 98,0 l 0,3.5 0,3.5 7.5,0 7.5,0 0,-3.5 0,-3.5 26,0 26,0 0,3.3327934 c 0,3.2533627 0.13704,3.3610137 5.75,4.5168715 3.1625,0.651243 12.27716,1.8105744 20.25481,2.5762921 20.20069,1.938923 30.38009,4.751257 49.67204,13.723251 4.49728,2.091518 12.14728,5.35881 17,7.260649 21.30756,8.350669 46.21746,18.514744 57.82315,23.593782 5.11244,2.237376 11.42247,4.397679 19,6.504842 8.55591,2.379232 33.09983,12.213813 37.64952,15.085904 7.46015,4.709392 19.62753,11.079963 31.35048,16.414434 3.85,1.751922 13.975,6.562648 22.5,10.690501 18.59409,9.00336 18.22557,8.83963 24.5,10.88533 2.75,0.89661 6.9125,2.48185 9.25,3.52277 13.41216,5.97261 15.94229,6.93691 24.75,9.4329 8.77745,2.48742 18.07674,5.40294 25.8096,8.09183 3.74528,1.30232 8.80778,2.36785 11.25,2.36785 l 4.4404,0 0,324 0,324 -263,0 L 0,786 0,393 z M 128,46.149223 c 0,-0.467927 -0.428,-2.155427 -0.9511,-3.75 C 126.52579,40.80465 125.60844,37.5875 125.01035,35.25 L 123.92291,31 116.46146,31 109,31 l 0,6.443296 C 109,45.794636 110.47853,47 120.72251,47 124.72513,47 128,46.61715 128,46.149223 z"
       id="path2999"
       style="fill:#e1d954" />
    <path
       d="M 0,393 0,0 14,0 28,0 28,3.0995706 c 0,1.9360242 1.553829,5.5022249 4.139244,9.5000004 L 36.278489,19 44.139244,19 52,19 52,11.121972 C 52,4.083875 51.760112,3.0766068 49.75,1.674424 47.679168,0.22988535 49.510668,0.10072706 72.75,0.05245192 L 98,0 l 0,3.5 0,3.5 7.5,0 7.5,0 0,-3.5 C 113,0.16666667 113.16667,0 116.5,0 l 3.5,0 0.0163,4.75 c 0.0117,3.3860453 1.28956,7.692195 4.45035,14.996253 4.64569,10.735428 9.92518,28.249154 11.07936,36.753747 0.53813,3.965205 1.2738,5.413918 3.55467,7 1.58186,1.1 6.71437,4.595549 11.40558,7.767886 4.69121,3.172337 9.3452,6.547337 10.34219,7.5 11.55405,11.040276 19.29453,17.486132 29.69946,24.732114 3.94889,2.75 8.70355,6.20528 10.56592,7.6784 10.90769,8.62789 38.13816,28.48065 42.38613,30.9022 8.89373,5.06987 10.62495,6.61334 17.44758,15.55538 3.55808,4.66337 12.56335,13.10757 23.84999,22.36402 3.97959,3.26377 17.51963,11.52099 26.70243,16.28415 8.25591,4.28238 24.41635,15.93304 36.5,26.3142 C 359.60095,232.56483 378.17542,247 379.39884,247 c 0.72249,0 17.7522,11.01465 19.16611,12.39645 0.62105,0.60695 4.35213,3.12855 8.29128,5.60355 6.45655,4.0567 17.73532,11.97184 34.64377,24.31208 3.3,2.40843 7.8,5.43239 10,6.71992 5.54668,3.24615 31.82257,22.27368 38.5,27.87955 3.025,2.53956 8.65,7.16605 12.5,10.2811 3.85,3.11504 8.77883,7.49603 10.95295,9.73553 3.41473,3.51742 4.53801,4.07182 8.25,4.07182 l 4.29705,0 0,219 0,219 -263,0 L 0,786 0,393 z M 128,46.149223 c 0,-0.467927 -0.428,-2.155427 -0.9511,-3.75 C 126.52579,40.80465 125.60844,37.5875 125.01035,35.25 L 123.92291,31 116.46146,31 109,31 l 0,6.443296 C 109,45.794636 110.47853,47 120.72251,47 124.72513,47 128,46.61715 128,46.149223 z m 392.42832,99.380257 c -5.44169,-3.02552 -21.12224,-8.35404 -39.78046,-13.51807 -4.31868,-1.19528 -11.18203,-3.71134 -15.2519,-5.59125 -4.06987,-1.8799 -12.2364,-5.20372 -18.14786,-7.38627 C 441.33665,116.85135 428.4,111.06597 418.5,106.17748 408.6,101.289 397.575,96.008807 394,94.443726 390.425,92.878645 385.82144,90.563546 383.76987,89.299062 381.7183,88.034578 379.81961,87 379.55055,87 c -0.26905,0 -4.29852,-2.25 -8.95437,-5 -4.65585,-2.75 -8.95076,-5 -9.54425,-5 -0.59349,0 -1.86046,-0.412554 -2.8155,-0.916787 -4.46054,-2.355038 -19.33485,-8.098007 -23.30575,-8.998345 -5.83187,-1.322283 -16.30831,-4.788024 -21.93068,-7.25495 -2.475,-1.085956 -6.075,-2.647375 -8,-3.469822 -1.925,-0.822446 -4.4,-1.895761 -5.5,-2.385143 -1.1,-0.489383 -7.4,-2.984236 -14,-5.544119 -6.6,-2.559882 -13.8,-5.460307 -16,-6.445388 -2.2,-0.985081 -8.5,-3.57965 -14,-5.76571 C 250,34.033676 242.48434,30.855104 238.79854,29.156242 218.04219,19.589217 208.15419,16.902486 188.5,15.489302 170.61091,14.203033 134,4.3869794 134,0.87685596 134,0.39458518 140.975,0 149.5,0 l 15.5,0 0,3.3327934 c 0,3.2533627 0.13704,3.3610137 5.75,4.5168715 3.1625,0.651243 12.27716,1.8105744 20.25481,2.5762921 20.20069,1.938923 30.38009,4.751257 49.67204,13.723251 4.49728,2.091518 12.14728,5.35881 17,7.260649 21.30756,8.350669 46.21746,18.514744 57.82315,23.593782 5.11244,2.237376 11.42247,4.397679 19,6.504842 8.55591,2.379232 33.09983,12.213813 37.64952,15.085904 7.46015,4.709392 19.62753,11.079963 31.35048,16.414434 3.85,1.751922 13.975,6.562648 22.5,10.690501 18.59409,9.00336 18.22557,8.83963 24.5,10.88533 2.75,0.89661 6.9125,2.48185 9.25,3.52277 13.41216,5.97261 15.94229,6.93691 24.75,9.4329 8.77745,2.48742 18.07674,5.40294 25.8096,8.09183 3.74528,1.30232 8.80778,2.36785 11.25,2.36785 l 4.4404,0 0,5 c 0,2.75 -0.3375,4.95349 -0.75,4.89665 -0.4125,-0.0568 -2.58226,-1.12207 -4.82168,-2.36717 z"
       id="path2997"
       style="fill:#8c6254" />
    <path
       d="M 0,393 0,0 14,0 28,0 28,3.0995706 c 0,1.9360242 1.553829,5.5022249 4.139244,9.5000004 L 36.278489,19 44.139244,19 52,19 52,11.121972 C 52,4.083875 51.760112,3.0766068 49.75,1.674424 47.640616,0.20299226 48.140582,0.10162581 57.75,0.05245192 L 68,0 68,4.4531409 c 0,3.90854 0.568548,5.070351 4.648951,9.5000001 L 77.297902,19 84.648951,19 92,19 92,9.5 92,0 95,0 c 2.761905,0 3,0.27777778 3,3.5 l 0,3.5 7.5,0 7.5,0 0,-3.5 C 113,0.16666667 113.16667,0 116.5,0 l 3.5,0 0.0163,4.75 c 0.0117,3.3860453 1.28956,7.692195 4.45035,14.996253 4.64569,10.735428 9.92518,28.249154 11.07936,36.753747 0.53813,3.965205 1.2738,5.413918 3.55467,7 1.58186,1.1 6.71437,4.595549 11.40558,7.767886 4.69121,3.172337 9.3452,6.547337 10.34219,7.5 11.55405,11.040276 19.29453,17.486132 29.69946,24.732114 3.94889,2.75 8.70355,6.20528 10.56592,7.6784 10.90769,8.62789 38.13816,28.48065 42.38613,30.9022 8.89373,5.06987 10.62495,6.61334 17.44758,15.55538 3.55808,4.66337 12.56335,13.10757 23.84999,22.36402 3.97959,3.26377 17.51963,11.52099 26.70243,16.28415 8.25591,4.28238 24.41635,15.93304 36.5,26.3142 C 359.60095,232.56483 378.17542,247 379.39884,247 c 0.72249,0 17.7522,11.01465 19.16611,12.39645 0.62105,0.60695 4.35213,3.12855 8.29128,5.60355 6.45655,4.0567 17.73532,11.97184 34.64377,24.31208 3.3,2.40843 7.8,5.43239 10,6.71992 5.54668,3.24615 31.82257,22.27368 38.5,27.87955 3.025,2.53956 8.65,7.16605 12.5,10.2811 3.85,3.11504 8.77883,7.49603 10.95295,9.73553 3.41473,3.51742 4.53801,4.07182 8.25,4.07182 l 4.29705,0 0,219 0,219 -263,0 L 0,786 0,393 z M 128,46.149223 c 0,-0.467927 -0.428,-2.155427 -0.9511,-3.75 C 126.52579,40.80465 125.60844,37.5875 125.01035,35.25 L 123.92291,31 116.46146,31 109,31 l 0,6.443296 C 109,45.794636 110.47853,47 120.72251,47 124.72513,47 128,46.61715 128,46.149223 z m 392.42832,99.380257 c -5.44169,-3.02552 -21.12224,-8.35404 -39.78046,-13.51807 -4.31868,-1.19528 -11.18203,-3.71134 -15.2519,-5.59125 -4.06987,-1.8799 -12.2364,-5.20372 -18.14786,-7.38627 C 441.33665,116.85135 428.4,111.06597 418.5,106.17748 408.6,101.289 397.575,96.008807 394,94.443726 390.425,92.878645 385.82144,90.563546 383.76987,89.299062 381.7183,88.034578 379.81961,87 379.55055,87 c -0.26905,0 -4.29852,-2.25 -8.95437,-5 -4.65585,-2.75 -8.95076,-5 -9.54425,-5 -0.59349,0 -1.86046,-0.412554 -2.8155,-0.916787 -4.46054,-2.355038 -19.33485,-8.098007 -23.30575,-8.998345 -5.83187,-1.322283 -16.30831,-4.788024 -21.93068,-7.25495 -2.475,-1.085956 -6.075,-2.647375 -8,-3.469822 -1.925,-0.822446 -4.4,-1.895761 -5.5,-2.385143 -1.1,-0.489383 -7.4,-2.984236 -14,-5.544119 -6.6,-2.559882 -13.8,-5.460307 -16,-6.445388 -2.2,-0.985081 -8.5,-3.57965 -14,-5.76571 C 250,34.033676 242.48434,30.855104 238.79854,29.156242 218.04219,19.589217 208.15419,16.902486 188.5,15.489302 170.61091,14.203033 134,4.3869794 134,0.87685596 134,0.39458518 140.975,0 149.5,0 l 15.5,0 0,3.3327934 c 0,3.2533627 0.13704,3.3610137 5.75,4.5168715 3.1625,0.651243 12.27716,1.8105744 20.25481,2.5762921 20.20069,1.938923 30.38009,4.751257 49.67204,13.723251 4.49728,2.091518 12.14728,5.35881 17,7.260649 21.30756,8.350669 46.21746,18.514744 57.82315,23.593782 5.11244,2.237376 11.42247,4.397679 19,6.504842 8.55591,2.379232 33.09983,12.213813 37.64952,15.085904 7.46015,4.709392 19.62753,11.079963 31.35048,16.414434 3.85,1.751922 13.975,6.562648 22.5,10.690501 18.59409,9.00336 18.22557,8.83963 24.5,10.88533 2.75,0.89661 6.9125,2.48185 9.25,3.52277 13.41216,5.97261 15.94229,6.93691 24.75,9.4329 8.77745,2.48742 18.07674,5.40294 25.8096,8.09183 3.74528,1.30232 8.80778,2.36785 11.25,2.36785 l 4.4404,0 0,5 c 0,2.75 -0.3375,4.95349 -0.75,4.89665 -0.4125,-0.0568 -2.58226,-1.12207 -4.82168,-2.36717 z"
       id="path2995"
       style="fill:#70417e" />
    <path
       d="M 0,393 0,0 14,0 28,0 28,3.0995706 c 0,1.9360242 1.553829,5.5022249 4.139244,9.5000004 L 36.278489,19 44.139244,19 52,19 52,11.121972 C 52,4.083875 51.760112,3.0766068 49.75,1.674424 47.640616,0.20299226 48.140582,0.10162581 57.75,0.05245192 L 68,0 68,4.4531409 c 0,3.90854 0.568548,5.070351 4.648951,9.5000001 L 77.297902,19 84.648951,19 92,19 92,9.5 92,0 95,0 c 2.761905,0 3,0.27777778 3,3.5 l 0,3.5 7.5,0 7.5,0 0,-3.5 C 113,0.16666667 113.16667,0 116.5,0 l 3.5,0 0.0163,4.75 c 0.0117,3.3860453 1.28956,7.692195 4.45035,14.996253 4.64569,10.735428 9.92518,28.249154 11.07936,36.753747 0.53813,3.965205 1.2738,5.413918 3.55467,7 1.58186,1.1 6.71437,4.595549 11.40558,7.767886 4.69121,3.172337 9.3452,6.547337 10.34219,7.5 11.55405,11.040276 19.29453,17.486132 29.69946,24.732114 3.94889,2.75 8.70355,6.20528 10.56592,7.6784 10.90769,8.62789 38.13816,28.48065 42.38613,30.9022 8.89373,5.06987 10.62495,6.61334 17.44758,15.55538 3.55808,4.66337 12.56335,13.10757 23.84999,22.36402 3.97959,3.26377 17.51963,11.52099 26.70243,16.28415 8.25591,4.28238 24.41635,15.93304 36.5,26.3142 C 359.60095,232.56483 378.17542,247 379.39884,247 c 0.72249,0 17.7522,11.01465 19.16611,12.39645 0.62105,0.60695 4.35213,3.12855 8.29128,5.60355 6.45655,4.0567 17.73532,11.97184 34.64377,24.31208 3.3,2.40843 7.8,5.43239 10,6.71992 5.54668,3.24615 31.82257,22.27368 38.5,27.87955 3.025,2.53956 8.65,7.16605 12.5,10.2811 3.85,3.11504 8.77883,7.49603 10.95295,9.73553 3.41473,3.51742 4.53801,4.07182 8.25,4.07182 l 4.29705,0 0,7 c 0,3.85 -0.27462,7 -0.61026,7 -0.33565,0 -5.39815,-4.63164 -11.25,-10.29254 C 508.28788,346.04657 499.9,338.52021 495.5,334.98222 c -4.4,-3.53799 -8.45,-6.94047 -9,-7.56106 -1.56576,-1.76673 -33.31589,-24.57888 -40,-28.73959 -3.3,-2.05418 -10.95,-7.35214 -17,-11.77325 -6.05,-4.4211 -20.45,-14.29578 -32,-21.94372 C 361.74378,241.28827 364.36328,243.19068 345.91362,227.5 332.4107,216.01632 321.31157,207.87712 312,202.63049 c -3.575,-2.01434 -7.175,-4.11372 -8,-4.66529 -0.825,-0.55157 -2.625,-1.55887 -4,-2.23845 -13.77839,-6.80977 -36.0315,-25.67243 -47.71878,-40.44842 -1.77032,-2.23819 -6.27032,-5.83161 -10,-7.98538 -6.88223,-3.97427 -20.90568,-13.78391 -27.28122,-19.08368 -1.925,-1.60019 -5.975,-4.62465 -9,-6.72103 -3.025,-2.09638 -7.3,-5.24642 -9.5,-7.00009 -2.2,-1.75367 -6.76459,-5.04015 -10.14353,-7.30328 -3.37894,-2.26313 -6.75394,-4.69508 -7.5,-5.40432 -0.74606,-0.70925 -3.80381,-3.312518 -6.79501,-5.785046 -2.99119,-2.472527 -7.71619,-6.64693 -10.5,-9.27645 -2.7838,-2.629521 -8.70698,-7.200659 -13.16262,-10.158084 -7.13398,-4.735167 -8.86512,-5.441197 -14.5,-5.913699 C 130.37948,70.352163 125.5875,69.813534 123.25,69.45032 l -4.25,-0.660391 0,-4.814978 c 0,-4.595921 -0.2593,-5.046092 -5.69962,-9.894964 C 110.16559,51.285994 106.82809,49 105.88372,49 104.93934,49 104.01667,48.657839 103.83333,48.239641 103.65,47.821444 99.45,44.361378 94.5,40.550605 89.55,36.739833 83.025,31.234152 80,28.315759 l -5.5,-5.306168 -8,-0.0043 -8,-0.0043 -4.25,4.9351 C 50.082779,32.775058 50,33.014399 50,40.224149 c 0,5.351372 0.538435,8.409075 1.977968,11.232636 1.087882,2.133818 2.500751,5.463719 3.139709,7.399779 0.638957,1.936061 3.922825,6.472858 7.297483,10.081773 8.852488,9.466995 11.667107,13.707858 21.610857,32.561663 1.740464,3.3 3.796618,6.71043 4.569232,7.57874 0.772613,0.86831 1.404751,2.14316 1.404751,2.833 0,0.68985 7.574006,8.97941 16.83113,18.42126 24.09272,24.57351 24.70988,25.32705 32.33085,39.47527 5.43267,10.08567 14.08934,24.0457 16.86171,27.19173 1.21169,1.375 3.37125,4.075 4.79904,6 2.43531,3.2834 11.44516,14.04175 15.49329,18.5 2.66943,2.93988 11.71965,16.95134 16.14788,25 3.98805,7.24859 19.54057,31.30214 21.7696,33.6689 7.01476,7.44818 20.99342,27.03783 25.68998,36.00188 2.96847,5.66572 5.06741,8.12106 19.94288,23.32922 6.45562,6.6 13.06413,13.7996 14.68557,15.9991 1.62144,2.19951 3.30818,4.44951 3.74831,5 3.73192,4.66767 10.13038,13.92148 14.6678,21.21341 8.69949,13.98063 15.74938,24.62414 17.74312,26.78749 1.01376,1.1 2.94116,3.575 4.28311,5.5 1.34195,1.925 2.90472,4.04688 3.47282,4.7153 0.5681,0.66841 1.51897,1.80508 2.11304,2.52594 0.59407,0.72086 4.1395,6.47397 7.87874,12.7847 8.46127,14.28015 10.56784,17.04102 22.48899,29.47406 24.37873,25.42553 26.8088,28.26896 39.58011,46.31262 3.23602,4.57194 10.6226,12.89694 16.41462,18.5 24.16024,23.37204 24.57693,23.90893 36.62364,47.18738 8.6319,16.67985 9.12354,17.42951 22.9534,35 7.35945,9.35 17.35749,22.85 22.21786,30 4.86038,7.15 11.30983,16.6 14.33212,21 5.76567,8.39396 9.43735,15.43448 12.96189,24.85465 2.07424,5.54389 2.18279,5.64535 6.04035,5.64535 l 3.92815,0 0,47 0,47 -263,0 L 0,786 0,393 z M 128,46.149223 c 0,-0.467927 -0.428,-2.155427 -0.9511,-3.75 C 126.52579,40.80465 125.60844,37.5875 125.01035,35.25 L 123.92291,31 116.46146,31 109,31 l 0,6.443296 C 109,45.794636 110.47853,47 120.72251,47 124.72513,47 128,46.61715 128,46.149223 z m 392.42832,99.380257 c -5.44169,-3.02552 -21.12224,-8.35404 -39.78046,-13.51807 -4.31868,-1.19528 -11.18203,-3.71134 -15.2519,-5.59125 -4.06987,-1.8799 -12.2364,-5.20372 -18.14786,-7.38627 C 441.33665,116.85135 428.4,111.06597 418.5,106.17748 408.6,101.289 397.575,96.008807 394,94.443726 390.425,92.878645 385.82144,90.563546 383.76987,89.299062 381.7183,88.034578 379.81961,87 379.55055,87 c -0.26905,0 -4.29852,-2.25 -8.95437,-5 -4.65585,-2.75 -8.95076,-5 -9.54425,-5 -0.59349,0 -1.86046,-0.412554 -2.8155,-0.916787 -4.46054,-2.355038 -19.33485,-8.098007 -23.30575,-8.998345 -5.83187,-1.322283 -16.30831,-4.788024 -21.93068,-7.25495 -2.475,-1.085956 -6.075,-2.647375 -8,-3.469822 -1.925,-0.822446 -4.4,-1.895761 -5.5,-2.385143 -1.1,-0.489383 -7.4,-2.984236 -14,-5.544119 -6.6,-2.559882 -13.8,-5.460307 -16,-6.445388 -2.2,-0.985081 -8.5,-3.57965 -14,-5.76571 C 250,34.033676 242.48434,30.855104 238.79854,29.156242 218.04219,19.589217 208.15419,16.902486 188.5,15.489302 170.61091,14.203033 134,4.3869794 134,0.87685596 134,0.39458518 140.975,0 149.5,0 l 15.5,0 0,3.3327934 c 0,3.2533627 0.13704,3.3610137 5.75,4.5168715 3.1625,0.651243 12.27716,1.8105744 20.25481,2.5762921 20.20069,1.938923 30.38009,4.751257 49.67204,13.723251 4.49728,2.091518 12.14728,5.35881 17,7.260649 21.30756,8.350669 46.21746,18.514744 57.82315,23.593782 5.11244,2.237376 11.42247,4.397679 19,6.504842 8.55591,2.379232 33.09983,12.213813 37.64952,15.085904 7.46015,4.709392 19.62753,11.079963 31.35048,16.414434 3.85,1.751922 13.975,6.562648 22.5,10.690501 18.59409,9.00336 18.22557,8.83963 24.5,10.88533 2.75,0.89661 6.9125,2.48185 9.25,3.52277 13.41216,5.97261 15.94229,6.93691 24.75,9.4329 8.77745,2.48742 18.07674,5.40294 25.8096,8.09183 3.74528,1.30232 8.80778,2.36785 11.25,2.36785 l 4.4404,0 0,5 c 0,2.75 -0.3375,4.95349 -0.75,4.89665 -0.4125,-0.0568 -2.58226,-1.12207 -4.82168,-2.36717 z"
       id="path2993"
       style="fill:#1b777e" />
    <path
       d="M 0,465.5 0,145 l 3.8466083,0 c 3.7299463,0 4.1576438,-0.38942 14.1021437,-12.84001 5.640544,-7.062 11.44707,-14.91437 12.903391,-17.44971 C 38.510126,101.37835 43.885431,92.263631 47.25,86.905005 50.734673,81.355094 51,80.392134 51,73.294999 51,68.195174 50.537794,65.132918 49.608929,64.078741 48.84384,63.210433 45.91884,58.468884 43.108929,53.541964 39.148698,46.598065 38,43.618918 38,40.291964 38,37.365813 37.572476,36 36.656537,36 34.233765,36 20,17.19417 20,13.993173 20,13.386577 19.153619,11.002461 18.119153,8.695136 14.114807,-0.2363565 14.024739,0 21.432612,0 L 28,0 28,3.0995706 c 0,1.9360242 1.553829,5.5022249 4.139244,9.5000004 L 36.278489,19 44.139244,19 52,19 52,11.121972 C 52,4.083875 51.760112,3.0766068 49.75,1.674424 47.640616,0.20299226 48.140582,0.10162581 57.75,0.05245192 L 68,0 68,4.4531409 c 0,3.90854 0.568548,5.070351 4.648951,9.5000001 L 77.297902,19 84.648951,19 92,19 92,9.5 92,0 95,0 c 2.761905,0 3,0.27777778 3,3.5 l 0,3.5 7.5,0 7.5,0 0,-3.5 C 113,0.16666667 113.16667,0 116.5,0 l 3.5,0 0.0163,4.75 c 0.0117,3.3860453 1.28956,7.692195 4.45035,14.996253 4.64569,10.735428 9.92518,28.249154 11.07936,36.753747 0.53813,3.965205 1.2738,5.413918 3.55467,7 1.58186,1.1 6.71437,4.595549 11.40558,7.767886 4.69121,3.172337 9.3452,6.547337 10.34219,7.5 11.55405,11.040276 19.29453,17.486132 29.69946,24.732114 3.94889,2.75 8.70355,6.20528 10.56592,7.6784 10.90769,8.62789 38.13816,28.48065 42.38613,30.9022 8.89373,5.06987 10.62495,6.61334 17.44758,15.55538 3.55808,4.66337 12.56335,13.10757 23.84999,22.36402 3.97959,3.26377 17.51963,11.52099 26.70243,16.28415 8.25591,4.28238 24.41635,15.93304 36.5,26.3142 C 359.60095,232.56483 378.17542,247 379.39884,247 c 0.72249,0 17.7522,11.01465 19.16611,12.39645 0.62105,0.60695 4.35213,3.12855 8.29128,5.60355 6.45655,4.0567 17.73532,11.97184 34.64377,24.31208 3.3,2.40843 7.8,5.43239 10,6.71992 5.54668,3.24615 31.82257,22.27368 38.5,27.87955 3.025,2.53956 8.65,7.16605 12.5,10.2811 3.85,3.11504 8.77883,7.49603 10.95295,9.73553 3.41473,3.51742 4.53801,4.07182 8.25,4.07182 l 4.29705,0 0,7 c 0,3.85 -0.27462,7 -0.61026,7 -0.33565,0 -5.39815,-4.63164 -11.25,-10.29254 C 508.28788,346.04657 499.9,338.52021 495.5,334.98222 c -4.4,-3.53799 -8.45,-6.94047 -9,-7.56106 -1.56576,-1.76673 -33.31589,-24.57888 -40,-28.73959 -3.3,-2.05418 -10.95,-7.35214 -17,-11.77325 -6.05,-4.4211 -20.45,-14.29578 -32,-21.94372 C 361.74378,241.28827 364.36328,243.19068 345.91362,227.5 332.4107,216.01632 321.31157,207.87712 312,202.63049 c -3.575,-2.01434 -7.175,-4.11372 -8,-4.66529 -0.825,-0.55157 -2.625,-1.55887 -4,-2.23845 -13.77839,-6.80977 -36.0315,-25.67243 -47.71878,-40.44842 -1.77032,-2.23819 -6.27032,-5.83161 -10,-7.98538 -6.88223,-3.97427 -20.90568,-13.78391 -27.28122,-19.08368 -1.925,-1.60019 -5.975,-4.62465 -9,-6.72103 -3.025,-2.09638 -7.3,-5.24642 -9.5,-7.00009 -2.2,-1.75367 -6.76459,-5.04015 -10.14353,-7.30328 -3.37894,-2.26313 -6.75394,-4.69508 -7.5,-5.40432 -0.74606,-0.70925 -3.80381,-3.312518 -6.79501,-5.785046 -2.99119,-2.472527 -7.71619,-6.64693 -10.5,-9.27645 -2.7838,-2.629521 -8.70698,-7.200659 -13.16262,-10.158084 -7.13398,-4.735167 -8.86512,-5.441197 -14.5,-5.913699 C 130.37948,70.352163 125.5875,69.813534 123.25,69.45032 l -4.25,-0.660391 0,-4.814978 c 0,-4.595921 -0.2593,-5.046092 -5.69962,-9.894964 C 110.16559,51.285994 106.82809,49 105.88372,49 104.93934,49 104.01667,48.657839 103.83333,48.239641 103.65,47.821444 99.45,44.361378 94.5,40.550605 89.55,36.739833 83.025,31.234152 80,28.315759 l -5.5,-5.306168 -8,-0.0043 -8,-0.0043 -4.25,4.9351 C 50.082779,32.775058 50,33.014399 50,40.224149 c 0,5.351372 0.538435,8.409075 1.977968,11.232636 1.087882,2.133818 2.500751,5.463719 3.139709,7.399779 0.638957,1.936061 3.922825,6.472858 7.297483,10.081773 8.852488,9.466995 11.667107,13.707858 21.610857,32.561663 1.740464,3.3 3.796618,6.71043 4.569232,7.57874 0.772613,0.86831 1.404751,2.14316 1.404751,2.833 0,0.68985 7.574006,8.97941 16.83113,18.42126 24.09272,24.57351 24.70988,25.32705 32.33085,39.47527 5.43267,10.08567 14.08934,24.0457 16.86171,27.19173 1.21169,1.375 3.37125,4.075 4.79904,6 2.43531,3.2834 11.44516,14.04175 15.49329,18.5 2.66943,2.93988 11.71965,16.95134 16.14788,25 3.98805,7.24859 19.54057,31.30214 21.7696,33.6689 7.01476,7.44818 20.99342,27.03783 25.68998,36.00188 2.96847,5.66572 5.06741,8.12106 19.94288,23.32922 6.45562,6.6 13.06413,13.7996 14.68557,15.9991 1.62144,2.19951 3.30818,4.44951 3.74831,5 3.73192,4.66767 10.13038,13.92148 14.6678,21.21341 8.69949,13.98063 15.74938,24.62414 17.74312,26.78749 1.01376,1.1 2.94116,3.575 4.28311,5.5 1.34195,1.925 2.90472,4.04688 3.47282,4.7153 0.5681,0.66841 1.51897,1.80508 2.11304,2.52594 0.59407,0.72086 4.1395,6.47397 7.87874,12.7847 8.46127,14.28015 10.56784,17.04102 22.48899,29.47406 24.37873,25.42553 26.8088,28.26896 39.58011,46.31262 3.23602,4.57194 10.6226,12.89694 16.41462,18.5 24.16024,23.37204 24.57693,23.90893 36.62364,47.18738 8.6319,16.67985 9.12354,17.42951 22.9534,35 7.35945,9.35 17.35749,22.85 22.21786,30 4.86038,7.15 11.30983,16.6 14.33212,21 5.76567,8.39396 9.43735,15.43448 12.96189,24.85465 2.07424,5.54389 2.18279,5.64535 6.04035,5.64535 l 3.92815,0 0,47 0,47 -263,0 L 0,786 0,465.5 z M 128,46.149223 c 0,-0.467927 -0.428,-2.155427 -0.9511,-3.75 C 126.52579,40.80465 125.60844,37.5875 125.01035,35.25 L 123.92291,31 116.46146,31 109,31 l 0,6.443296 C 109,45.794636 110.47853,47 120.72251,47 124.72513,47 128,46.61715 128,46.149223 z m 392.42832,99.380257 c -5.44169,-3.02552 -21.12224,-8.35404 -39.78046,-13.51807 -4.31868,-1.19528 -11.18203,-3.71134 -15.2519,-5.59125 -4.06987,-1.8799 -12.2364,-5.20372 -18.14786,-7.38627 C 441.33665,116.85135 428.4,111.06597 418.5,106.17748 408.6,101.289 397.575,96.008807 394,94.443726 390.425,92.878645 385.82144,90.563546 383.76987,89.299062 381.7183,88.034578 379.81961,87 379.55055,87 c -0.26905,0 -4.29852,-2.25 -8.95437,-5 -4.65585,-2.75 -8.95076,-5 -9.54425,-5 -0.59349,0 -1.86046,-0.412554 -2.8155,-0.916787 -4.46054,-2.355038 -19.33485,-8.098007 -23.30575,-8.998345 -5.83187,-1.322283 -16.30831,-4.788024 -21.93068,-7.25495 -2.475,-1.085956 -6.075,-2.647375 -8,-3.469822 -1.925,-0.822446 -4.4,-1.895761 -5.5,-2.385143 -1.1,-0.489383 -7.4,-2.984236 -14,-5.544119 -6.6,-2.559882 -13.8,-5.460307 -16,-6.445388 -2.2,-0.985081 -8.5,-3.57965 -14,-5.76571 C 250,34.033676 242.48434,30.855104 238.79854,29.156242 218.04219,19.589217 208.15419,16.902486 188.5,15.489302 170.61091,14.203033 134,4.3869794 134,0.87685596 134,0.39458518 140.975,0 149.5,0 l 15.5,0 0,3.3327934 c 0,3.2533627 0.13704,3.3610137 5.75,4.5168715 3.1625,0.651243 12.27716,1.8105744 20.25481,2.5762921 20.20069,1.938923 30.38009,4.751257 49.67204,13.723251 4.49728,2.091518 12.14728,5.35881 17,7.260649 21.30756,8.350669 46.21746,18.514744 57.82315,23.593782 5.11244,2.237376 11.42247,4.397679 19,6.504842 8.55591,2.379232 33.09983,12.213813 37.64952,15.085904 7.46015,4.709392 19.62753,11.079963 31.35048,16.414434 3.85,1.751922 13.975,6.562648 22.5,10.690501 18.59409,9.00336 18.22557,8.83963 24.5,10.88533 2.75,0.89661 6.9125,2.48185 9.25,3.52277 13.41216,5.97261 15.94229,6.93691 24.75,9.4329 8.77745,2.48742 18.07674,5.40294 25.8096,8.09183 3.74528,1.30232 8.80778,2.36785 11.25,2.36785 l 4.4404,0 0,5 c 0,2.75 -0.3375,4.95349 -0.75,4.89665 -0.4125,-0.0568 -2.58226,-1.12207 -4.82168,-2.36717 z"
       id="path2991"
       style="fill:#371e54" />
    <path
       d="m 521.66516,711.75 c -2.91223,-4.61909 -8.73472,-17.31624 -12.72524,-27.75 -2.10737,-5.51 -6.8306,-13.92556 -11.78624,-21 -2.50429,-3.575 -8.02738,-11.71227 -12.27355,-18.08283 -6.41382,-9.62268 -19.94847,-27.43905 -31.4636,-41.41717 -3.10904,-3.77405 -12.3155,-19.23543 -15.77938,-26.5 -7.67955,-16.10582 -14.23983,-25.57754 -23.28556,-33.61964 -12.77846,-11.36068 -22.8627,-22.03434 -28.31558,-29.97061 -9.05011,-13.17176 -17.43073,-23.10055 -34.37236,-40.72202 -15.54583,-16.16965 -22.27983,-24.78276 -28.75529,-36.77941 -1.66003,-3.07542 -6.21887,-9.82542 -10.13075,-15 -8.99595,-11.89971 -18.61035,-25.94983 -25.35901,-37.05868 -8.7865,-14.4633 -18.8288,-27.23536 -31.52861,-40.09892 C 242.77948,330.47117 237.68268,324.25303 233.55348,316.5 230.49973,310.76625 221.12039,295.74643 220.1275,295 c -1.65607,-1.24499 -14.18947,-17.09657 -17.79011,-22.5 -2.199,-3.3 -8.63634,-13.875 -14.30521,-23.5 -8.95405,-15.20283 -15.81298,-25.01045 -22.72875,-32.5 -1.01572,-1.1 -5.25092,-6.275 -9.41154,-11.5 -6.83027,-8.57761 -10.61262,-14.50023 -25.7793,-40.36666 -3.46307,-5.9062 -9.02885,-12.40518 -22.33343,-26.07807 C 98.032703,128.539 89.229084,119.254 88.215565,117.92193 86.113382,115.15904 75.323537,96.626419 72.10474,90.25 L 69.959352,86 62.098365,86 c -7.714347,0 -7.905347,0.06063 -10.238974,3.25 -1.307893,1.7875 -3.348454,5.05 -4.534581,7.25 -5.803586,10.76435 -14.933785,26.05387 -16.803437,28.13919 C 29.959618,125.26575 28.6,127.02648 27.5,128.55193 26.4,130.07738 21,136.81848 15.5,143.53215 10,150.24582 4.2706896,157.26009 2.7681992,159.11941 L 0.03639834,162.5 0.01819917,153.75 0,145 l 3.8466083,0 c 3.7299463,0 4.1576438,-0.38942 14.1021437,-12.84001 5.640544,-7.062 11.44707,-14.91437 12.903391,-17.44971 C 38.510126,101.37835 43.885431,92.263631 47.25,86.905005 50.734673,81.355094 51,80.392134 51,73.294999 51,68.195174 50.537794,65.132918 49.608929,64.078741 48.84384,63.210433 45.91884,58.468884 43.108929,53.541964 39.148698,46.598065 38,43.618918 38,40.291964 38,37.365813 37.572476,36 36.656537,36 34.233765,36 20,17.19417 20,13.993173 20,13.386577 19.153619,11.002461 18.119153,8.695136 14.114807,-0.2363565 14.024739,0 21.432612,0 L 28,0 28,3.0995706 c 0,1.9360242 1.553829,5.5022249 4.139244,9.5000004 L 36.278489,19 44.139244,19 52,19 52,11.121972 C 52,4.083875 51.760112,3.0766068 49.75,1.674424 47.640616,0.20299226 48.140582,0.10162581 57.75,0.05245192 L 68,0 68,4.4531409 c 0,3.90854 0.568548,5.070351 4.648951,9.5000001 L 77.297902,19 84.648951,19 92,19 92,9.5 92,0 95,0 c 2.761905,0 3,0.27777778 3,3.5 l 0,3.5 7.5,0 7.5,0 0,-3.5 C 113,0.16666667 113.16667,0 116.5,0 l 3.5,0 0.0163,4.75 c 0.0117,3.3860453 1.28956,7.692195 4.45035,14.996253 4.64569,10.735428 9.92518,28.249154 11.07936,36.753747 0.53813,3.965205 1.2738,5.413918 3.55467,7 1.58186,1.1 6.71437,4.595549 11.40558,7.767886 4.69121,3.172337 9.3452,6.547337 10.34219,7.5 11.55405,11.040276 19.29453,17.486132 29.69946,24.732114 3.94889,2.75 8.70355,6.20528 10.56592,7.6784 10.90769,8.62789 38.13816,28.48065 42.38613,30.9022 8.89373,5.06987 10.62495,6.61334 17.44758,15.55538 3.55808,4.66337 12.56335,13.10757 23.84999,22.36402 3.97959,3.26377 17.51963,11.52099 26.70243,16.28415 8.25591,4.28238 24.41635,15.93304 36.5,26.3142 C 359.60095,232.56483 378.17542,247 379.39884,247 c 0.72249,0 17.7522,11.01465 19.16611,12.39645 0.62105,0.60695 4.35213,3.12855 8.29128,5.60355 6.45655,4.0567 17.73532,11.97184 34.64377,24.31208 3.3,2.40843 7.8,5.43239 10,6.71992 5.54668,3.24615 31.82257,22.27368 38.5,27.87955 3.025,2.53956 8.65,7.16605 12.5,10.2811 3.85,3.11504 8.77883,7.49603 10.95295,9.73553 3.41473,3.51742 4.53801,4.07182 8.25,4.07182 l 4.29705,0 0,7 c 0,3.85 -0.27462,7 -0.61026,7 -0.33565,0 -5.39815,-4.63164 -11.25,-10.29254 C 508.28788,346.04657 499.9,338.52021 495.5,334.98222 c -4.4,-3.53799 -8.45,-6.94047 -9,-7.56106 -1.56576,-1.76673 -33.31589,-24.57888 -40,-28.73959 -3.3,-2.05418 -10.95,-7.35214 -17,-11.77325 -6.05,-4.4211 -20.45,-14.29578 -32,-21.94372 C 361.74378,241.28827 364.36328,243.19068 345.91362,227.5 332.4107,216.01632 321.31157,207.87712 312,202.63049 c -3.575,-2.01434 -7.175,-4.11372 -8,-4.66529 -0.825,-0.55157 -2.625,-1.55887 -4,-2.23845 -13.77839,-6.80977 -36.0315,-25.67243 -47.71878,-40.44842 -1.77032,-2.23819 -6.27032,-5.83161 -10,-7.98538 -6.88223,-3.97427 -20.90568,-13.78391 -27.28122,-19.08368 -1.925,-1.60019 -5.975,-4.62465 -9,-6.72103 -3.025,-2.09638 -7.3,-5.24642 -9.5,-7.00009 -2.2,-1.75367 -6.76459,-5.04015 -10.14353,-7.30328 -3.37894,-2.26313 -6.75394,-4.69508 -7.5,-5.40432 -0.74606,-0.70925 -3.80381,-3.312518 -6.79501,-5.785046 -2.99119,-2.472527 -7.71619,-6.64693 -10.5,-9.27645 -2.7838,-2.629521 -8.70698,-7.200659 -13.16262,-10.158084 -7.13398,-4.735167 -8.86512,-5.441197 -14.5,-5.913699 C 130.37948,70.352163 125.5875,69.813534 123.25,69.45032 l -4.25,-0.660391 0,-4.814978 c 0,-4.595921 -0.2593,-5.046092 -5.69962,-9.894964 C 110.16559,51.285994 106.82809,49 105.88372,49 104.93934,49 104.01667,48.657839 103.83333,48.239641 103.65,47.821444 99.45,44.361378 94.5,40.550605 89.55,36.739833 83.025,31.234152 80,28.315759 l -5.5,-5.306168 -8,-0.0043 -8,-0.0043 -4.25,4.9351 C 50.082779,32.775058 50,33.014399 50,40.224149 c 0,5.351372 0.538435,8.409075 1.977968,11.232636 1.087882,2.133818 2.500751,5.463719 3.139709,7.399779 0.638957,1.936061 3.922825,6.472858 7.297483,10.081773 8.852488,9.466995 11.667107,13.707858 21.610857,32.561663 1.740464,3.3 3.796618,6.71043 4.569232,7.57874 0.772613,0.86831 1.404751,2.14316 1.404751,2.833 0,0.68985 7.574006,8.97941 16.83113,18.42126 24.09272,24.57351 24.70988,25.32705 32.33085,39.47527 5.43267,10.08567 14.08934,24.0457 16.86171,27.19173 1.21169,1.375 3.37125,4.075 4.79904,6 2.43531,3.2834 11.44516,14.04175 15.49329,18.5 2.66943,2.93988 11.71965,16.95134 16.14788,25 3.98805,7.24859 19.54057,31.30214 21.7696,33.6689 7.01476,7.44818 20.99342,27.03783 25.68998,36.00188 2.96847,5.66572 5.06741,8.12106 19.94288,23.32922 6.45562,6.6 13.06413,13.7996 14.68557,15.9991 1.62144,2.19951 3.30818,4.44951 3.74831,5 3.73192,4.66767 10.13038,13.92148 14.6678,21.21341 8.69949,13.98063 15.74938,24.62414 17.74312,26.78749 1.01376,1.1 2.94116,3.575 4.28311,5.5 1.34195,1.925 2.90472,4.04688 3.47282,4.7153 0.5681,0.66841 1.51897,1.80508 2.11304,2.52594 0.59407,0.72086 4.1395,6.47397 7.87874,12.7847 8.46127,14.28015 10.56784,17.04102 22.48899,29.47406 24.37873,25.42553 26.8088,28.26896 39.58011,46.31262 3.23602,4.57194 10.6226,12.89694 16.41462,18.5 24.16024,23.37204 24.57693,23.90893 36.62364,47.18738 8.6319,16.67985 9.12354,17.42951 22.9534,35 7.35945,9.35 17.35749,22.85 22.21786,30 4.86038,7.15 11.30983,16.6 14.33212,21 5.76567,8.39396 9.43735,15.43448 12.96189,24.85465 2.07424,5.54389 2.18279,5.64535 6.04035,5.64535 l 3.92815,0 0,12.5 c 0,6.875 -0.23059,12.5 -0.51242,12.5 -0.28183,0 -2.00192,-2.3625 -3.82242,-5.25 z M 128,46.149223 c 0,-0.467927 -0.428,-2.155427 -0.9511,-3.75 C 126.52579,40.80465 125.60844,37.5875 125.01035,35.25 L 123.92291,31 116.46146,31 109,31 l 0,6.443296 C 109,45.794636 110.47853,47 120.72251,47 124.72513,47 128,46.61715 128,46.149223 z m 392.42832,99.380257 c -5.44169,-3.02552 -21.12224,-8.35404 -39.78046,-13.51807 -4.31868,-1.19528 -11.18203,-3.71134 -15.2519,-5.59125 -4.06987,-1.8799 -12.2364,-5.20372 -18.14786,-7.38627 C 441.33665,116.85135 428.4,111.06597 418.5,106.17748 408.6,101.289 397.575,96.008807 394,94.443726 390.425,92.878645 385.82144,90.563546 383.76987,89.299062 381.7183,88.034578 379.81961,87 379.55055,87 c -0.26905,0 -4.29852,-2.25 -8.95437,-5 -4.65585,-2.75 -8.95076,-5 -9.54425,-5 -0.59349,0 -1.86046,-0.412554 -2.8155,-0.916787 -4.46054,-2.355038 -19.33485,-8.098007 -23.30575,-8.998345 -5.83187,-1.322283 -16.30831,-4.788024 -21.93068,-7.25495 -2.475,-1.085956 -6.075,-2.647375 -8,-3.469822 -1.925,-0.822446 -4.4,-1.895761 -5.5,-2.385143 -1.1,-0.489383 -7.4,-2.984236 -14,-5.544119 -6.6,-2.559882 -13.8,-5.460307 -16,-6.445388 -2.2,-0.985081 -8.5,-3.57965 -14,-5.76571 C 250,34.033676 242.48434,30.855104 238.79854,29.156242 218.04219,19.589217 208.15419,16.902486 188.5,15.489302 170.61091,14.203033 134,4.3869794 134,0.87685596 134,0.39458518 140.975,0 149.5,0 l 15.5,0 0,3.3327934 c 0,3.2533627 0.13704,3.3610137 5.75,4.5168715 3.1625,0.651243 12.27716,1.8105744 20.25481,2.5762921 20.20069,1.938923 30.38009,4.751257 49.67204,13.723251 4.49728,2.091518 12.14728,5.35881 17,7.260649 21.30756,8.350669 46.21746,18.514744 57.82315,23.593782 5.11244,2.237376 11.42247,4.397679 19,6.504842 8.55591,2.379232 33.09983,12.213813 37.64952,15.085904 7.46015,4.709392 19.62753,11.079963 31.35048,16.414434 3.85,1.751922 13.975,6.562648 22.5,10.690501 18.59409,9.00336 18.22557,8.83963 24.5,10.88533 2.75,0.89661 6.9125,2.48185 9.25,3.52277 13.41216,5.97261 15.94229,6.93691 24.75,9.4329 8.77745,2.48742 18.07674,5.40294 25.8096,8.09183 3.74528,1.30232 8.80778,2.36785 11.25,2.36785 l 4.4404,0 0,5 c 0,2.75 -0.3375,4.95349 -0.75,4.89665 -0.4125,-0.0568 -2.58226,-1.12207 -4.82168,-2.36717 z"
       id="path2989"
       style="fill:#000000" />
  </g>
</svg>
