<?xml version="1.0" encoding="UTF-8" standalone="no"?>
<!-- Created with Inkscape (http://www.inkscape.org/) -->

<svg
   xmlns:dc="http://purl.org/dc/elements/1.1/"
   xmlns:cc="http://creativecommons.org/ns#"
   xmlns:rdf="http://www.w3.org/1999/02/22-rdf-syntax-ns#"
   xmlns:svg="http://www.w3.org/2000/svg"
   xmlns="http://www.w3.org/2000/svg"
   xmlns:xlink="http://www.w3.org/1999/xlink"
   version="1.1"
   width="561"
   height="759"
   id="svg2">
  <metadata
     id="metadata8">
    <rdf:RDF>
      <cc:Work
         rdf:about="">
        <dc:format>image/svg+xml</dc:format>
        <dc:type
           rdf:resource="http://purl.org/dc/dcmitype/StillImage" />
        <dc:title></dc:title>
      </cc:Work>
    </rdf:RDF>
  </metadata>
  <defs
     id="defs6" />
  <image
     xlink:href="file:///media/michi/arch/home/michi/broken-art/selection_scaled_pngs/46693-590.png"
     x="0"
     y="0"
     width="561"
     height="759"
     id="image10" />
  <g
     id="g2987">
    <path
       d="M 0,379.5 0,0 280.5,0 561,0 561,379.5 561,759 280.5,759 0,759 0,379.5 z"
       id="path2995"
       style="fill:#fefefe" />
    <path
       d="M 0.05217036,379.5 -0.08644511,0 280.45678,0 561,0 561,379.5 561,759 280.59539,759 0.19078583,759 0.05217036,379.5 z"
       id="path2993"
       style="fill:#fefd54" />
    <path
       d="M 0.19195718,379.75 -0.08644511,0 174.95678,0 350,0 l 0,3.0564765 c 0,1.6810621 -2.25377,8.2329515 -5.00839,14.5597545 -2.75461,6.326803 -5.48313,13.388888 -6.06337,15.693523 -3.13862,12.466104 -4.21995,16.944882 -5.91225,24.488127 -1.5627,6.965598 -3.95039,13.652524 -13.10516,36.702119 -0.43689,1.1 -1.0737,3.575 -1.41512,5.5 -0.34142,1.925 -0.99645,4.625 -1.45562,6 -0.45918,1.375 -1.60075,5.2 -2.53683,8.5 -3.18457,11.22666 -10.39825,28.94085 -12.42041,30.5 -1.28085,0.98758 -6.98794,10.65157 -10.92522,18.5 C 284.48792,176.7952 277,192.93271 277,194.01171 c 0,0.55848 -0.3975,1.79682 -0.88333,2.75186 -1.25932,2.47554 -2.42027,5.41568 -6.6086,16.73643 -4.27982,11.568 -4.86771,12.70613 -13.30675,25.76124 -4.6683,7.22182 -6.53366,11.13649 -7.17019,15.04751 -0.73943,4.54322 -4.44255,14.14525 -6.05148,15.69125 -0.2862,0.275 -1.05765,1.625 -1.71434,3 -0.65669,1.375 -2.633,4.975 -4.39181,8 -4.4074,7.58037 -7.2987,13.76969 -8.64217,18.5 -3.79343,13.3566 -5.06615,16.57093 -9.46044,23.89298 -2.67597,4.45886 -6.41435,9.6162 -8.30753,11.46076 -1.89318,1.84456 -3.90962,5.08983 -4.48098,7.21171 -0.97113,3.60647 -5.66879,13.20306 -10.98204,22.43455 C 190.23853,372.7734 183,388.86235 183,391.17295 c 0,1.2515 -6.02967,14.11587 -6.9496,14.82705 -0.35572,0.275 -1.72086,2.075 -3.03366,4 -1.31279,1.925 -4.20534,5.70895 -6.42788,8.40878 C 161.53973,424.54222 160,427.479 160,430.97593 c 0,2.90901 -4.14916,11.34895 -7.5,15.256 -3.42936,3.99861 -10.33992,18.82691 -13.59701,29.17576 -3.59878,11.43446 -9.04769,20.55856 -17.26246,28.90569 -3.10229,3.15227 -5.64053,6.19919 -5.64053,6.77094 0,1.61513 -4.96677,11.77482 -9.00287,18.41568 -4.13594,6.80511 -8.633095,15.49316 -15.528793,30 -2.614376,5.5 -7.820383,14.59573 -11.568904,20.21274 -3.748522,5.617 -7.750164,12.367 -8.892538,15 -1.142375,2.63299 -2.494077,5.54114 -3.003782,6.46254 C 62.152923,611.7508 58.606618,619.35864 55.032952,629 50.149782,642.17426 49.112313,644.82052 47.883329,647.23643 47.397498,648.19147 47,649.47346 47,650.0853 c 0,1.4704 -5.849413,14.76618 -7.001594,15.9147 -0.275877,0.275 -1.105406,1.67395 -1.843398,3.10877 -0.737992,1.43483 -3.127432,4.968 -5.309868,7.8515 -2.182435,2.88349 -5.443714,8.00954 -7.247286,11.39122 -1.803571,3.38168 -4.397202,7.78282 -5.763623,9.78031 C 17.489065,701.56005 14.534914,707.33527 8.6481627,720 2.1731303,733.93036 1.5655583,736.15757 1.0099258,748 0.71316432,754.325 0.34507844,588.6125 0.19195718,379.75 z"
       id="path2991"
       style="fill:#7e5e7e" />
    <path
       d="M 0.46219218,380 0.45402489,0.5 0.72843286,348.25 1.0028408,696 4.915646,696 c 3.5958432,0 4.1467887,-0.38478 6.801266,-4.75 1.588654,-2.6125 3.853092,-6.8312 5.032085,-9.37488 1.178993,-2.54369 2.733813,-5.24369 3.455156,-6 6.18459,-6.48443 13.033168,-19.06495 18.16874,-33.37512 7.135475,-19.88287 10.778735,-28.48583 18.813547,-44.42511 4.836468,-9.59448 9.154514,-17.69884 9.595657,-18.0097 1.812967,-1.27752 10.423765,-15.91336 15.231861,-25.8897 2.829776,-5.87152 5.643433,-11.57549 6.252571,-12.67549 0.609138,-1.1 2.341621,-4.52914 3.849962,-7.62032 1.50834,-3.09117 4.250206,-8.04117 6.093035,-11 1.842824,-2.95882 3.862444,-6.50468 4.488044,-7.87968 5.05876,-11.11867 6.9785,-14.3562 10.21045,-17.21929 3.97158,-3.51831 10.97991,-12.6889 12.82412,-16.78071 0.61972,-1.375 2.09302,-5.875 3.274,-10 2.70549,-9.44993 7.82789,-20.17046 14.66766,-30.69754 2.92941,-4.50865 5.3262,-9.35226 5.3262,-10.76357 0,-1.41132 0.40011,-3.34742 0.88913,-4.30246 0.48903,-0.95504 1.68926,-3.37362 2.6672,-5.37463 0.97793,-2.001 3.72782,-5.82301 6.11086,-8.49335 2.38305,-2.67033 4.33281,-5.12679 4.33281,-5.45879 0,-0.332 0.9,-1.64135 2,-2.90966 1.1,-1.26831 2,-2.91217 2,-3.65301 0,-0.74084 0.34015,-1.34699 0.75589,-1.34699 0.92599,0 2.31284,-3.08894 6.09308,-13.57118 1.6009,-4.43915 3.36903,-8.93915 3.92916,-10 0.56014,-1.06085 2.12209,-4.17882 3.471,-6.92882 1.34891,-2.75 3.7075,-7.25 5.24129,-10 6.21009,-11.13429 7.23587,-13.22386 9.08172,-18.5 1.05828,-3.025 3.20274,-6.85 4.76544,-8.5 7.05419,-7.44823 15.42135,-23.07101 17.07383,-31.87946 0.98803,-5.26668 5.16582,-14.65029 10.9616,-24.62054 6.85668,-11.79527 9.62452,-17.60712 9.64154,-20.2451 0.0277,-4.29393 3.17161,-11.29283 8.87389,-19.7549 6.32896,-9.39204 9.76235,-16.20919 13.09465,-26 2.4334,-7.14967 3.04987,-8.76073 5.41495,-14.15113 0.88108,-2.00812 1.60032,-4.03312 1.59831,-4.5 -0.002,-0.46688 2.29148,-5.57387 5.09662,-11.34887 2.80515,-5.775 6.95673,-14.325 9.22575,-19 2.26902,-4.675 6.02301,-11.24206 8.34221,-14.59347 2.3192,-3.35141 5.34044,-8.52641 6.71385,-11.5 3.18214,-6.88967 9.24432,-25.07174 11.05958,-33.1706 1.65892,-7.401284 5.66486,-18.841203 9.60108,-27.418113 2.46361,-5.368149 4.45933,-12.095454 6.32415,-21.317817 0.87334,-4.319078 5.39797,-21.341854 6.64496,-25 1.28253,-3.762422 3.1517,-8.166922 6.12706,-14.437829 C 337.15923,9.3963645 338,5.9088645 338,3.8121706 L 338,0 l 6,0 6,0 0,3.0564765 c 0,1.6810621 -2.25377,8.2329515 -5.00839,14.5597545 -2.75461,6.326803 -5.48313,13.388888 -6.06337,15.693523 -3.13862,12.466104 -4.21995,16.944882 -5.91225,24.488127 -1.5627,6.965598 -3.95039,13.652524 -13.10516,36.702119 -0.43689,1.1 -1.0737,3.575 -1.41512,5.5 -0.34142,1.925 -0.99645,4.625 -1.45562,6 -0.45918,1.375 -1.60075,5.2 -2.53683,8.5 -3.18457,11.22666 -10.39825,28.94085 -12.42041,30.5 -1.28085,0.98758 -6.98794,10.65157 -10.92522,18.5 C 284.48792,176.7952 277,192.93271 277,194.01171 c 0,0.55848 -0.3975,1.79682 -0.88333,2.75186 -1.25932,2.47554 -2.42027,5.41568 -6.6086,16.73643 -4.27982,11.568 -4.86771,12.70613 -13.30675,25.76124 -4.6683,7.22182 -6.53366,11.13649 -7.17019,15.04751 -0.73943,4.54322 -4.44255,14.14525 -6.05148,15.69125 -0.2862,0.275 -1.05765,1.625 -1.71434,3 -0.65669,1.375 -2.633,4.975 -4.39181,8 -4.4074,7.58037 -7.2987,13.76969 -8.64217,18.5 -3.79343,13.3566 -5.06615,16.57093 -9.46044,23.89298 -2.67597,4.45886 -6.41435,9.6162 -8.30753,11.46076 -1.89318,1.84456 -3.90962,5.08983 -4.48098,7.21171 -0.97113,3.60647 -5.66879,13.20306 -10.98204,22.43455 C 190.23853,372.7734 183,388.86235 183,391.17295 c 0,1.2515 -6.02967,14.11587 -6.9496,14.82705 -0.35572,0.275 -1.72086,2.075 -3.03366,4 -1.31279,1.925 -4.20534,5.70895 -6.42788,8.40878 C 161.53973,424.54222 160,427.479 160,430.97593 c 0,2.90901 -4.14916,11.34895 -7.5,15.256 -3.42936,3.99861 -10.33992,18.82691 -13.59701,29.17576 -3.59878,11.43446 -9.04769,20.55856 -17.26246,28.90569 -3.10229,3.15227 -5.64053,6.19919 -5.64053,6.77094 0,1.61513 -4.96677,11.77482 -9.00287,18.41568 -4.13594,6.80511 -8.633095,15.49316 -15.528793,30 -2.614376,5.5 -7.820383,14.59573 -11.568904,20.21274 -3.748522,5.617 -7.750164,12.367 -8.892538,15 -1.142375,2.63299 -2.494077,5.54114 -3.003782,6.46254 C 62.152923,611.7508 58.606618,619.35864 55.032952,629 50.149782,642.17426 49.112313,644.82052 47.883329,647.23643 47.397498,648.19147 47,649.47346 47,650.0853 c 0,1.4704 -5.849413,14.76618 -7.001594,15.9147 -0.275877,0.275 -1.105406,1.67395 -1.843398,3.10877 -0.737992,1.43483 -3.127432,4.968 -5.309868,7.8515 -2.182435,2.88349 -5.443714,8.00954 -7.247286,11.39122 -1.803571,3.38168 -4.397202,7.78282 -5.763623,9.78031 C 17.489065,701.56005 14.534914,707.33527 8.6481627,720 2.1731303,733.93036 1.5655583,736.15757 1.0099258,748 0.71316432,754.325 0.46668419,588.725 0.46219218,380 z"
       id="path2989"
       style="fill:#000000" />
  </g>
</svg>
